<?xml version="1.0" standalone="no"?><!DOCTYPE svg PUBLIC "-//W3C//DTD SVG 1.1//EN" "http://www.w3.org/Graphics/SVG/1.1/DTD/svg11.dtd" ><svg xmlns="http://www.w3.org/2000/svg"><metadata></metadata><defs><font id="Founder:FZSongKeBenXiuKaiS-R-GB	Regular" horiz-adv-x="256"><font-face font-family="FZSongKeBenXiuKaiS-R-GB" font-weight="400" font-stretch="normal" units-per-em="256" panose-1="2 0 0 0 0 0 0 0 0 0" ascent="224" descent="-56" x-height="0" bbox="-1 -41 256 218" underline-thickness="12" underline-position="-44" unicode-range="U+0030-ff1a" /><missing-glyph horiz-adv-x="256"  /><glyph glyph-name="" unicode="0" d="M122 87 q-15 -82 -70 -83 q-42 3 -42 59 q0 10 2 24 q12 86 70 88 q41 -4 43 -58 q0 -15 -3 -30 ZM103 92 q3 16 3 28 q0 41 -26 42 q-37 -3 -50 -81 q-2 -11 -2 -23 q1 -39 27 -41 q36 2 48 75 Z" /><glyph glyph-name="" unicode="1" d="M70 173 l-29 -166 l-17 0 l26 146 l-24 -10 q-14 -1 -14 7 l54 25 l4 -2 Z" /><glyph glyph-name="" unicode="2" d="M110 7 l-104 0 l0 8 q51 44 80 74 q19 21 19 48 q-1 24 -21 25 q-18 0 -34 -31 q-9 4 -10 19 q18 25 46 25 q37 -2 39 -38 q0 -30 -28 -58 q-36 -35 -63 -55 l63 0 q16 -8 13 -17 Z" /><glyph glyph-name="" unicode=":" d="M52 103 q-5 -15 -17 -16 q-12 1 -11 14 q3 17 16 19 q14 -2 12 -17 ZM38 20 q-4 -15 -17 -16 q-11 1 -11 14 q4 18 16 19 q14 -2 12 -17 Z" /><glyph glyph-name="" unicode="&#x3001;" d="M89 25 q-6 -17 -18 -24 q-11 24 -27 45 q-3 4 -2 6 q1 3 6 1 q31 -13 41 -28 Z" /><glyph glyph-name="" unicode="&#x3002;" d="M64 42 q-13 -1 -14 -14 q1 -13 14 -14 q13 1 14 14 q-1 13 -14 14 ZM64 56 q25 -2 27 -28 q-2 -25 -27 -27 q-26 3 -28 27 q2 26 28 28 Z" /><glyph glyph-name="" unicode="&#x4e00;" d="M179 102 q21 4 32 11 q3 3 8 -1 l27 -19 q2 -2 0 -5 q-2 -6 -5 -4 q-20 4 -44 3 q-118 -7 -170 -17 q-4 -1 -5 1 q-4 4 -10 16 q-2 2 -1 3 q0 1 3 1 q50 -3 165 11 Z" /><glyph glyph-name="" unicode="&#x4e09;" d="M205 36 q17 1 22 4 q5 3 8 0 q10 -14 12 -19 q2 -2 1 -4 q-2 -1 -5 0 q-47 4 -184 -3 q-19 -1 -33 -5 q-4 0 -7 2 q-2 3 -7 10 q-3 5 -4 7 q-1 3 0 3 q0 1 2 0 q22 -3 82 -1 q66 2 113 6 ZM184 152 q-42 1 -100 -5 q-4 -1 -7 2 q-3 3 -6 11 q-1 2 0 2 q0 1 2 1 q37 -2 86 3 q1 0 4 1 q10 1 13 3 q3 1 5 -2 q3 -2 7 -11 q2 -5 -4 -5 ZM184 87 q-53 1 -97 -5 q-3 -2 -6 2 q-3 3 -7 11 q-1 3 2 3 q45 -1 83 3 q1 0 5 1 q9 2 12 3 q2 1 5 -2 q1 -1 4 -7 q1 -2 2 -4 q2 -3 1 -4 q-1 -1 -4 -1 Z" /><glyph glyph-name="" unicode="&#x4e0a;" d="M241 -2 q-40 7 -111 6 q-74 -2 -102 -11 q-6 -2 -9 2 q-4 6 -10 17 q4 -1 16 -1 q14 1 52 3 q27 1 40 2 q3 67 0 142 q0 18 -9 30 q-1 2 0 3 q0 1 2 0 q13 -5 26 -11 q5 -2 3 -8 q-2 -18 -2 -34 l0 -29 q14 0 32 2 q8 2 14 3 q4 2 6 -1 q4 -5 7 -11 q1 -2 1 -3 q0 -1 -2 -1 q-43 0 -58 -1 q0 -14 -1 -41 q0 -29 -1 -40 q44 2 61 2 q14 0 25 5 q7 3 13 -1 q1 -1 4 -4 q7 -6 10 -10 q4 -3 1 -7 q-2 -5 -8 -3 Z" /><glyph glyph-name="" unicode="&#x4e0d;" d="M31 171 q18 -2 53 0 q29 1 93 6 q27 2 37 9 q5 3 8 -1 q8 -8 12 -17 q2 -2 0 -4 q-2 -1 -6 0 q-17 2 -38 2 q-14 -1 -48 -3 l12 -7 q5 -3 2 -6 q-2 -3 -6 -9 q-4 -6 -13 -18 q0 0 0 -1 q1 -3 1 -5 q0 -2 0 -21 q-1 -74 -1 -100 q0 -11 -5 -18 q-3 -5 -7 -1 q-4 4 -9 14 q-1 2 0 5 q1 2 2 7 q1 5 1 7 q3 28 2 62 q0 16 -2 28 q-47 -58 -110 -71 q-4 -1 -5 0 q0 2 4 4 q63 30 105 87 q-3 5 -6 9 q-1 3 0 4 q1 2 4 1 q1 0 4 -2 q4 -1 6 -2 q0 2 2 4 q7 11 12 28 q0 0 0 1 q-70 -6 -92 -10 q-4 -2 -8 4 q-1 2 -3 5 q-1 2 -3 4 q-2 3 -2 4 q1 2 4 1 ZM154 94 q-3 2 -3 4 q1 1 4 0 q37 -16 64 -44 q5 -4 3 -10 q-3 -8 -10 -16 q-4 -4 -7 2 q-15 35 -51 64 Z" /><glyph glyph-name="" unicode="&#x4e0e;" d="M189 112 q3 2 5 -1 q4 -2 12 -10 q4 -3 6 -5 q3 -2 1 -4 q-7 -11 -9 -25 q-12 -47 -24 -71 q-8 -15 -21 -22 q-5 -4 -8 2 q-3 12 -12 27 q-1 2 0 3 q1 1 2 0 q0 0 2 -1 q9 -5 13 -6 q3 -1 5 1 q21 27 27 87 q0 5 -4 5 q-43 0 -105 -9 q-6 0 -9 2 q-3 2 -9 8 q-1 1 -2 2 q-1 1 -1 3 q1 1 3 1 q5 -1 18 -1 q3 0 5 0 q12 75 9 104 q-1 3 1 2 q2 -1 6 -3 q4 -1 10 -5 q3 -1 2 -6 q-9 -60 -14 -91 q28 1 63 5 q18 3 28 8 ZM162 42 q-62 -1 -129 -11 q-4 0 -7 2 q-4 4 -9 11 q-1 3 2 3 q76 2 131 11 q4 0 7 -1 q1 -1 5 -6 q-2 3 2 -3 q2 -3 2 -4 q-1 -2 -4 -2 ZM194 154 q3 -3 7 -7 q3 -4 -2 -5 q-41 0 -77 -5 q-4 0 -6 2 l-3 7 q-1 2 1 2 q53 4 74 7 q5 1 6 -1 Z" /><glyph glyph-name="" unicode="&#x4e14;" d="M201 22 q21 2 33 7 q5 2 8 -1 q10 -8 11 -14 q2 -2 0 -5 q-2 -4 -6 -4 q-25 5 -48 4 q-121 -2 -178 -13 q-3 -1 -6 2 q-6 6 -8 9 q-2 3 -2 4 q1 1 4 1 q28 0 75 3 q2 83 0 134 q-1 5 -2 14 q-1 6 -1 9 q-1 2 0 2 q0 1 3 0 q10 -3 14 -5 q0 0 2 -1 q43 4 63 11 q4 2 7 -1 q2 -1 5 -4 q6 -3 8 -5 q4 -4 2 -9 q-5 -5 -6 -42 q-2 -56 -2 -97 q4 0 12 1 q8 0 12 0 ZM145 63 q-22 -2 -44 -4 q0 -31 0 -43 q28 2 58 3 q2 69 2 141 q0 4 -5 4 q-6 -1 -28 -4 q-18 -2 -26 -3 q0 -14 0 -40 q17 2 38 6 q3 1 5 -2 q1 -1 2 -3 q1 -3 1 -4 q0 -4 -3 -4 q-10 0 -36 -3 q-5 -1 -7 -1 q0 -18 0 -36 q15 1 39 6 q4 1 5 -2 q3 -6 3 -7 q2 -4 -4 -4 Z" /><glyph glyph-name="" unicode="&#x4e1a;" d="M164 178 q-3 -22 -3 -35 q0 -11 0 -36 q-1 -26 -1 -39 q29 34 34 60 q0 4 5 1 q11 -5 18 -11 q4 -3 1 -6 q-30 -31 -58 -50 q0 -9 -1 -26 q0 -14 0 -19 l17 1 q30 2 45 7 q4 2 7 -1 q1 -1 4 -4 q7 -6 9 -9 q2 -3 1 -4 q0 -1 -3 -1 q-127 0 -210 -12 q-4 -1 -6 2 q-5 7 -7 10 q-1 3 0 3 q0 1 3 1 q21 0 75 2 q0 11 0 36 q1 43 1 75 q0 35 -6 47 q-1 3 0 4 q1 1 4 0 q3 -1 13 -5 q2 -1 3 -1 q3 -2 3 -7 q-1 -10 -1 -51 q0 -66 0 -97 q15 2 32 2 q1 39 1 128 q-1 33 -6 45 q-1 5 3 4 q11 -4 20 -9 q3 -2 3 -5 ZM45 101 q-1 3 0 3 q0 0 3 -1 q8 -4 23 -13 q3 -2 4 -3 q5 -4 3 -10 q-2 -8 -5 -16 q-2 -3 -4 -4 q-2 0 -3 3 q-13 23 -21 41 Z" /><glyph glyph-name="" unicode="&#x4e22;" d="M142 199 q15 -3 31 -9 q2 -1 3 -1 q5 -1 3 -7 q1 -6 -8 -7 q-2 0 -6 -1 q-17 -1 -28 -4 q-2 0 -6 -1 q-5 -1 -7 -2 q1 0 2 0 q5 -1 11 -4 q4 -1 2 -6 q-3 -10 -3 -28 l0 -3 l22 3 q10 1 20 6 q4 3 7 0 q2 -2 5 -6 q4 -4 5 -6 q2 -2 1 -3 q-1 -1 -4 -1 q-30 0 -57 -3 q0 -21 -1 -38 q32 3 65 6 q19 2 29 8 q4 2 7 -1 q6 -6 14 -15 q3 -3 1 -4 q-1 -2 -7 -2 q-13 1 -46 1 q-20 -1 -74 -5 q5 -3 8 -7 q3 -3 0 -7 q-19 -28 -43 -49 q-2 -1 -2 -2 q1 -1 4 -1 q13 1 52 4 q19 2 27 3 q-9 17 -17 28 q-3 4 -2 5 q1 0 6 -3 q8 -5 31 -22 q4 -4 6 -5 q4 -3 3 -8 q-1 -12 -6 -26 q-2 -4 -4 -4 q-2 0 -3 4 q-4 12 -10 25 q-14 -3 -54 -9 q-38 -7 -54 -10 q-9 -2 -8 7 q1 1 2 7 q1 5 1 6 q0 3 4 4 q11 0 29 23 q18 19 19 37 q-60 -6 -80 -10 q-4 0 -5 1 q-3 3 -8 8 q-2 2 -3 3 q-2 3 -1 3 q1 1 5 1 q25 -1 99 5 q0 4 0 15 q1 15 1 23 q-26 -3 -47 -7 q-3 -1 -6 2 q-3 5 -5 9 q-2 3 1 3 q26 0 56 3 l0 5 q0 24 -5 35 q0 0 0 1 q-1 0 -4 -1 q-30 -5 -39 -5 q-5 -1 -6 1 q0 2 5 3 q39 10 65 24 q6 4 6 5 q0 2 1 4 q0 1 0 2 Z" /><glyph glyph-name="" unicode="&#x4e24;" d="M60 102 q-1 -19 -1 -83 q1 -8 -1 -24 q-1 -5 -4 -6 q-3 0 -6 4 q-1 2 -3 7 q-2 5 -3 7 q-1 3 -1 11 q3 7 3 12 q0 48 -1 62 q0 24 -7 29 q-1 2 -1 4 q1 1 3 0 q3 -1 8 -4 q3 -2 5 -3 q7 0 19 0 q5 1 14 1 q9 1 13 1 q0 2 0 6 q1 5 1 8 q0 18 -4 29 l0 0 q-14 -1 -32 -5 q-3 0 -6 2 q-6 6 -10 11 q-1 2 -1 3 q0 0 3 0 q12 0 26 0 q40 2 81 5 q22 2 37 6 q4 2 7 -1 q7 -6 13 -12 q1 -2 1 -3 q-1 -2 -3 -1 q-24 3 -59 0 q5 -2 15 -7 q3 -1 3 -5 q-1 -17 -3 -31 l13 1 q13 0 23 6 q4 2 8 -1 q3 -1 7 -6 q1 -1 2 -2 q3 -3 1 -6 q-3 -12 -4 -27 q-1 -13 -2 -43 q-1 -15 -1 -22 q0 -29 -10 -41 q-3 -5 -6 -4 q-2 0 -4 6 q-4 15 -16 25 q-2 2 -1 3 q1 2 3 1 q6 0 11 0 q4 1 5 5 q5 47 3 90 q1 5 -5 4 q-15 0 -29 -1 q-3 -17 -7 -31 q16 -8 25 -19 q3 -4 2 -9 q0 -7 -9 -18 q-3 -3 -5 2 q-3 20 -15 39 q-11 -34 -38 -53 q-1 -1 -2 0 q-2 1 -1 3 q29 35 34 85 q-20 -1 -38 -3 q-3 -16 -8 -30 q15 -7 18 -11 q4 -4 2 -8 q-1 -6 -8 -15 q-1 -2 -2 -1 q-2 0 -2 2 q-3 15 -10 28 q-11 -29 -33 -43 q-2 -1 -3 1 q-1 1 0 3 q24 28 31 73 l-21 -2 q-9 -1 -14 2 l-1 0 q1 -3 1 -6 ZM113 158 q2 -1 2 -5 q-1 -18 -3 -32 q19 0 37 2 q1 8 1 15 q1 15 -3 28 q-1 1 -1 2 q-1 0 -3 0 q-28 -2 -42 -4 q6 -3 12 -6 Z" /><glyph glyph-name="" unicode="&#x4e2a;" d="M117 208 q14 -4 22 -10 q5 -3 0 -10 q-1 -1 -5 -6 q2 3 -2 -3 q11 -9 34 -32 q48 -46 87 -62 q3 -1 3 -2 q-1 -1 -4 -2 q-17 -3 -32 -3 q-4 0 -8 3 q-13 11 -38 40 q-6 7 -9 10 q-4 4 -12 13 q-6 7 -25 27 l-6 -10 q-42 -73 -105 -102 q-2 -1 -3 0 q0 1 2 3 q63 49 96 116 q10 21 3 28 q-1 3 2 2 ZM116 117 q-2 3 -1 4 q1 1 5 0 q7 -3 14 -7 q4 -1 2 -9 q-1 -11 0 -49 q0 -42 1 -66 q-1 -18 -6 -21 q-7 2 -14 13 q-2 4 0 6 q3 6 4 23 q0 13 -1 43 q0 23 0 30 q0 24 -4 33 Z" /><glyph glyph-name="" unicode="&#x4e3a;" d="M45 115 q20 0 28 1 q9 1 25 2 q13 2 19 2 q6 24 8 43 q5 28 -4 35 q-2 5 -1 6 q2 1 7 -2 q5 -2 14 -8 q3 -1 4 -2 q7 -4 5 -11 q-6 -29 -14 -59 q7 1 22 3 q15 2 22 4 q12 3 19 9 q4 5 8 2 q4 -3 13 -9 q4 -3 1 -7 q-4 -6 -7 -20 q-16 -88 -40 -127 q-6 -5 -11 1 q-4 12 -15 29 q-1 2 -2 3 q-3 4 -2 6 q1 1 5 -1 q2 0 10 -3 q2 -1 3 -1 q7 -4 10 5 q17 40 23 98 q2 6 -8 5 q-7 -1 -32 -4 q-14 -2 -22 -3 q-31 -108 -118 -132 q-6 -2 -7 -1 q0 2 5 5 q75 41 100 122 l1 3 q-36 -6 -50 -9 q-5 -2 -10 2 q-4 3 -10 8 q-2 2 -2 4 q0 1 3 1 ZM67 175 q7 0 25 -6 q5 -1 4 -8 q-2 -8 -9 -27 q-1 -3 -2 -3 q-2 0 -3 3 q-5 20 -16 38 q-2 2 -2 3 q0 1 3 0 ZM127 76 q-3 3 2 2 q12 -3 32 -11 q3 -2 3 -5 q0 -10 -6 -19 q-3 -5 -7 1 q-7 14 -24 32 Z" /><glyph glyph-name="" unicode="&#x4e4b;" d="M253 6 q2 0 2 -1 q1 -2 -1 -3 q-2 -1 -4 -2 q-30 -13 -50 -19 q-7 -2 -13 1 q-67 28 -118 53 q-5 2 -13 0 q-17 -6 -32 -14 q-3 -2 -6 1 q-8 7 -14 17 q0 2 1 2 q31 0 53 8 q2 0 4 0 q57 39 102 74 q2 1 1 3 q-2 2 -4 1 q-55 -10 -113 -30 q-3 -2 -4 1 q-6 7 -13 16 q-1 2 1 2 q9 -1 19 0 q49 7 100 19 q15 3 29 12 q2 2 4 0 q0 1 1 0 q10 -10 17 -20 q3 -2 -1 -5 q-42 -20 -124 -75 q41 -21 88 -34 q42 -12 88 -7 ZM89 191 q-2 2 -2 3 q1 1 4 0 q25 -11 44 -22 q8 -6 5 -12 q-3 -6 -10 -18 q-1 -1 -1 -2 q-3 -3 -5 -3 q-3 1 -4 5 q-14 27 -31 49 Z" /><glyph glyph-name="" unicode="&#x4e5f;" d="M17 70 q-1 2 -1 2 q1 1 2 1 q11 2 55 21 l0 4 q1 35 -5 48 q-1 2 -1 3 q1 1 3 0 q9 -3 19 -7 q1 0 1 -2 q-2 -22 -2 -39 q4 2 13 5 q12 5 18 8 q1 25 1 43 q1 27 -5 45 q-1 3 2 2 q11 -3 21 -9 q1 0 1 -2 q-3 -34 -5 -72 q7 3 23 10 q11 5 17 8 q1 4 1 15 q0 1 1 2 q0 0 2 -1 q5 -3 14 -11 q2 -1 3 -2 q2 -2 0 -4 q-1 -2 -3 -7 q-3 -9 -4 -13 q-8 -30 -16 -54 q-2 -7 -9 -13 q-3 -2 -4 1 q-7 10 -13 17 q-1 1 -1 2 q0 1 2 1 q2 -1 5 -1 q3 -1 5 -1 q2 1 3 4 q7 18 12 50 q-19 -7 -39 -16 q-2 -42 -2 -57 q0 -11 -5 -21 q-1 -3 -4 -1 q-3 3 -7 8 q-1 1 -1 4 q3 28 5 61 q-17 -8 -32 -14 q0 -36 0 -60 q-2 -22 18 -23 q66 -6 112 5 q15 2 27 38 q1 3 3 3 q1 -1 1 -4 q0 -22 -2 -45 q-1 -5 -6 -6 q-25 -5 -65 -6 q-43 -2 -71 1 q-34 2 -32 35 q1 12 1 55 q-4 -2 -11 -6 q-28 -14 -31 -17 q-2 -2 -4 1 q-5 5 -10 11 Z" /><glyph glyph-name="" unicode="&#x4e60;" d="M82 133 q-1 2 2 3 q23 -5 39 -12 q6 -2 4 -8 q-4 -11 -8 -17 q-3 -3 -6 0 q-9 16 -31 34 ZM151 90 q1 1 2 0 q1 -1 0 -3 q-27 -23 -92 -65 q-2 0 -4 1 q-5 4 -7 9 q-1 2 0 3 q8 13 13 31 q1 2 2 0 q1 -1 2 -5 q1 -3 1 -5 q1 -2 4 -2 q36 13 79 36 ZM157 181 q19 2 29 8 q5 3 9 0 q1 -1 4 -3 q3 -1 9 -7 q4 -1 1 -7 q-5 -8 -5 -21 q-6 -81 -17 -142 q-4 -23 -18 -32 q-7 -5 -10 3 q-8 16 -23 30 q-2 3 2 4 q28 -9 29 1 q15 58 17 145 q0 9 -9 9 q-63 -3 -113 -14 q-3 -1 -6 1 q0 0 -1 1 q-1 1 -4 6 q-2 3 -3 4 q-1 2 -1 3 q1 1 3 1 q44 1 107 10 Z" /><glyph glyph-name="" unicode="&#x4e66;" d="M102 209 q-1 2 -1 3 q1 2 3 1 q5 -1 17 -6 q3 -1 4 -1 q5 -1 3 -6 q-2 -10 -4 -52 q6 1 15 2 q5 1 7 1 q2 1 7 1 q10 3 14 5 q3 3 6 1 q3 -1 7 -5 q2 -1 3 -2 q4 -1 1 -5 q0 -1 -1 -2 q-1 -3 -3 -12 q-3 -11 -6 -30 q-1 -5 -1 -7 l4 1 q17 2 25 7 q4 3 7 0 q8 -5 13 -10 q4 -2 1 -5 q-4 -9 -7 -24 q-1 -10 -4 -25 q-4 -20 -22 -30 q-6 -4 -7 3 q0 11 -11 22 q-2 1 -2 3 q1 1 3 1 q23 -8 22 3 q4 17 6 42 q1 6 -6 5 q-7 -1 -22 -2 q-31 -3 -49 -5 q0 -9 1 -24 q0 -17 1 -23 q1 -47 -6 -64 q-2 -4 -4 -4 q-1 -1 -3 3 q-8 10 -7 24 q2 25 4 86 q-55 -5 -77 -9 q-6 -1 -8 2 q-3 6 -7 12 q37 0 92 5 q0 26 -1 48 q-8 -1 -23 -3 q-14 -2 -19 -3 q-4 -2 -6 1 q-5 5 -7 9 q-2 2 1 2 q16 0 54 4 q0 4 0 13 q-1 32 -7 49 ZM158 143 q-3 0 -10 -1 q-15 -2 -24 -3 q0 -24 0 -49 q19 2 34 3 q4 25 7 43 q0 7 -7 7 ZM187 187 q1 0 2 0 q15 -3 23 -6 q6 -1 4 -9 q-3 -12 -8 -26 q-1 -4 -3 -4 q-1 0 -3 4 q-6 24 -16 37 q-2 3 -2 4 q1 1 3 0 Z" /><glyph glyph-name="" unicode="&#x4e86;" d="M114 123 q-2 2 -2 4 q1 1 4 0 q6 0 14 -4 q4 5 13 16 q14 17 19 24 q2 4 1 5 q-1 2 -5 2 q-57 -6 -89 -14 q-4 -2 -8 0 q-9 7 -15 13 q-1 2 -1 3 q1 1 3 0 q32 -2 96 7 q20 3 27 6 q4 3 8 -1 q2 -1 13 -12 q5 -5 0 -9 q-17 -14 -56 -43 l2 0 q4 -2 4 -8 q5 -56 0 -100 q-3 -31 -27 -40 q-6 -3 -8 3 q-3 16 -13 28 q-3 3 -2 4 q1 1 4 0 q1 0 4 -1 q2 0 12 -3 q8 -2 10 5 q8 24 5 79 q-2 27 -13 36 Z" /><glyph glyph-name="" unicode="&#x4e8b;" d="M72 150 q5 -1 8 -3 q12 1 42 3 q0 3 0 8 q-1 6 -1 8 q-54 -4 -93 -10 q-5 -1 -7 1 q-5 4 -9 9 q-1 1 0 2 q0 1 2 1 q15 0 65 3 q28 1 42 2 q-1 23 -6 36 q-1 3 2 2 q4 -1 12 -3 q5 -1 8 -2 q4 -1 2 -6 q-2 -9 -2 -26 q4 0 12 1 q38 3 51 4 q21 2 29 7 q5 3 9 -3 q6 -6 8 -10 q3 -5 -1 -5 q-37 1 -109 -2 q0 -7 0 -16 q15 2 26 3 q1 0 3 1 q8 1 10 3 q4 3 7 0 q4 -2 10 -8 q3 -2 2 -5 q0 -1 -2 -4 q-7 -20 -11 -26 q-3 -3 -9 4 q-7 0 -27 -1 q-6 -1 -9 -1 q1 -3 1 -8 q0 -6 0 -9 q12 2 24 3 q11 1 19 5 q4 2 6 0 q1 -1 5 -5 q1 -1 1 -1 q2 -3 -1 -6 q-3 -6 -7 -19 q23 1 38 4 q6 1 9 -2 q2 -3 5 -7 q2 -2 1 -4 q0 -1 -2 -1 q-13 1 -51 -1 q2 0 -3 0 q-1 -9 -3 -17 q1 -1 4 -4 q2 -2 3 -4 q1 -1 1 -3 q-1 -1 -3 -1 q-23 0 -46 -2 q0 -22 1 -39 q0 -22 -7 -29 q-3 -5 -7 0 q-6 11 -20 23 q-2 2 0 3 q20 -2 17 3 q2 17 2 38 q-26 -3 -43 -6 q-3 0 -5 2 q-1 1 -2 2 q-3 3 -4 4 q-1 1 -1 2 q0 1 2 1 q2 0 7 0 q30 2 46 4 q0 9 0 19 q-52 -4 -88 -9 q-3 -1 -5 1 q-2 1 -9 8 q-1 3 2 3 q58 3 100 7 l0 18 q-22 -1 -42 -4 q-4 -1 -7 2 q-1 1 -3 3 q-1 2 -1 2 q-2 2 1 2 q4 0 13 1 q24 2 39 3 q0 9 0 16 q-21 -1 -37 -3 q0 -6 -3 -7 q-7 1 -8 9 q-1 18 -5 34 q-1 3 2 2 ZM173 146 q-14 0 -37 -3 q0 -3 0 -7 q0 -5 0 -11 q25 2 37 3 q3 8 3 15 q2 3 -3 3 ZM85 139 q1 -10 1 -19 q10 1 36 3 q0 10 0 19 q-21 -1 -37 -3 ZM168 87 q0 6 -7 6 q-6 0 -24 -2 q0 -9 0 -18 q5 1 16 1 q10 1 15 1 q0 9 0 12 ZM166 48 q0 2 0 7 q1 7 1 10 q-15 0 -30 -2 q0 -10 0 -19 q1 0 3 0 q9 2 18 2 q2 1 4 1 q3 1 4 1 Z" /><glyph glyph-name="" unicode="&#x4e8c;" d="M173 157 q5 1 7 -2 q2 -2 6 -6 q2 -3 3 -4 q2 -6 -4 -6 q-54 1 -104 -5 q-7 -1 -10 3 q-7 7 -9 10 q-1 3 -1 4 q1 1 4 0 q2 0 6 0 q12 -1 18 0 q46 0 84 6 ZM210 57 q11 0 19 3 q6 2 9 -2 q2 -2 8 -10 q1 -1 2 -2 q3 -4 2 -6 q-1 -2 -5 -1 q-100 2 -219 -9 q-5 0 -8 3 q-1 1 -2 3 q-5 8 -7 12 q-1 2 -1 3 q0 0 3 0 q25 -2 54 -1 q50 0 145 7 Z" /><glyph glyph-name="" unicode="&#x4e94;" d="M192 173 q4 2 7 -1 q5 -4 8 -9 q2 -2 1 -4 q-1 -1 -4 -1 q-13 0 -67 -4 q2 1 -6 0 q3 -1 5 -3 q5 -4 2 -11 l-11 -42 q8 1 21 3 q4 1 5 1 q7 1 12 5 q3 3 6 0 q1 0 2 -1 q6 -4 9 -7 q2 -2 0 -5 q-3 -4 -4 -12 q-4 -26 -7 -56 q34 2 62 6 q4 2 6 -1 q5 -6 10 -15 q1 -2 1 -3 q0 -2 -2 -1 q-48 4 -115 2 q-69 -3 -110 -11 q-3 0 -7 3 q-1 1 -4 6 q-3 4 -4 5 q-1 3 3 3 q12 0 62 2 q10 0 15 0 q8 22 19 65 q-5 -1 -16 -2 q-12 -2 -17 -3 q-2 0 -5 2 q-2 3 -6 8 q-1 2 -1 2 q1 1 2 1 q14 0 46 2 q3 14 8 37 q1 4 1 6 q0 9 -1 13 q-26 -2 -56 -7 q-4 0 -5 2 q-3 3 -6 9 q-1 3 2 3 q82 2 139 13 ZM124 88 q-1 -4 -3 -11 q-12 -41 -17 -54 q26 0 49 2 q6 38 7 62 q1 4 -4 3 q-8 0 -29 -2 q15 2 -3 0 Z" /><glyph glyph-name="" unicode="&#x4eb2;" d="M20 103 q-3 3 2 2 q55 0 114 6 q3 6 7 18 q2 6 3 9 q4 15 3 23 q0 2 0 2 q-46 -4 -70 -8 q-4 0 -7 2 q-5 4 -11 10 q-1 3 1 3 q12 -1 26 0 q11 0 33 2 q0 9 0 17 q-1 12 -9 21 q-2 2 -1 4 q1 2 3 1 q7 -2 22 -8 q1 -1 2 -1 q5 -2 3 -8 q-6 -13 -6 -25 q3 0 9 1 q6 0 9 1 q2 0 6 1 q14 2 21 5 q2 1 4 0 q-1 1 1 -1 q6 -6 10 -12 q1 -4 -2 -4 q-10 1 -40 -1 q4 -2 15 -10 q1 -1 2 -2 q0 0 1 -1 q2 -3 0 -5 q-14 -19 -26 -33 q50 5 70 10 q7 1 10 -2 q9 -9 11 -12 q2 -3 2 -4 q-1 -2 -4 -1 q-10 2 -39 1 q-7 0 -10 0 q-12 -1 -35 -2 q-18 -2 -26 -2 q5 -2 15 -7 q0 0 1 -1 q2 -1 1 -5 q-1 -8 -1 -19 q36 4 48 6 q3 1 5 -2 q4 -6 7 -10 q1 -2 1 -3 q-1 -1 -3 -1 q-16 1 -59 -2 l0 -12 q0 -5 0 -14 q1 -14 0 -30 q-1 -28 -13 -34 q-3 -3 -5 1 q-5 13 -19 29 q-2 1 -1 2 q0 1 2 1 q22 -5 19 3 q2 13 2 42 q0 6 0 11 q-12 -1 -33 -3 q-12 -2 -16 -2 q-2 -1 -4 0 q2 -1 -1 1 q-6 6 -9 10 q-1 1 -1 2 q0 1 2 1 q27 0 62 3 q-1 21 -7 32 q-33 -2 -82 -9 q-4 -1 -5 1 q-8 8 -10 12 ZM193 -10 q-7 28 -26 49 q-3 3 2 2 q22 -6 37 -26 q3 -4 0 -8 q-5 -12 -8 -18 q-2 -2 -3 -2 q-1 0 -2 3 ZM81 39 q2 3 4 0 q12 -14 -29 -51 q-1 -1 -2 -1 q-1 0 -1 2 q-1 1 -2 9 q-2 5 -2 6 q-1 3 3 4 q18 10 29 31 ZM103 113 q-8 12 -15 36 q-1 2 0 2 q1 1 3 0 q3 -1 14 -7 q4 -1 5 -2 q1 -1 1 -5 q0 -14 -1 -22 q-1 -4 -3 -5 q-2 0 -4 3 Z" /><glyph glyph-name="" unicode="&#x4eba;" d="M117 178 q8 -3 22 -12 q4 -2 2 -7 q-15 -38 -33 -68 q1 -1 4 -3 q46 -37 66 -49 q19 -15 73 -22 q3 0 4 -2 q0 -1 -3 -2 q-18 -8 -48 -13 q-8 -2 -13 3 q-21 17 -70 63 q-13 11 -18 16 q-37 -56 -89 -81 q-3 -1 -4 0 q-1 2 2 4 q70 58 95 127 q10 24 7 43 q0 5 3 3 Z" /><glyph glyph-name="" unicode="&#x4ece;" d="M77 -3 q-3 -1 -4 0 q0 2 2 4 q70 53 70 164 q1 15 -4 22 q-1 2 -1 4 q1 1 3 0 q14 -4 22 -8 q3 -1 2 -4 q-2 -9 -4 -28 q0 -3 0 -4 q-3 -21 -7 -39 q42 -82 95 -98 q2 -1 3 -3 q0 -1 -3 -1 q-19 -4 -40 -5 q-6 0 -10 5 q-19 29 -40 69 q-5 9 -8 17 q-18 -69 -76 -95 ZM11 15 q-3 -1 -4 0 q0 1 2 3 q61 48 62 139 q0 8 -4 16 q0 3 2 2 q12 -4 20 -8 q2 -1 1 -4 q-2 -9 -4 -26 q0 -2 0 -3 q-3 -24 -10 -44 q22 -14 31 -23 q5 -3 2 -10 q-1 -4 -8 -14 q-2 -3 -4 -3 q-1 0 -2 3 q-6 24 -21 41 q-21 -55 -63 -69 Z" /><glyph glyph-name="" unicode="&#x4ed6;" d="M145 202 q12 -4 19 -9 q2 0 2 -3 q-4 -27 -6 -75 q8 3 22 8 q8 3 11 4 q0 6 0 13 q0 1 1 2 q0 0 2 -1 q9 -6 16 -12 q2 -2 0 -5 q-3 -8 -6 -20 q-1 -5 -4 -16 q-2 -6 -9 -33 q-5 -10 -9 -13 q-3 -2 -4 1 q-8 11 -14 17 q-1 1 -1 2 q1 1 3 1 q2 -1 9 -1 q3 -1 5 3 q7 21 10 51 q-14 -4 -32 -12 q-1 -30 -1 -52 q0 -11 -5 -22 q-2 -2 -4 0 q-3 4 -7 7 q-1 2 -1 5 q4 27 5 57 q-4 -1 -12 -5 q-8 -3 -12 -5 q0 -28 2 -60 q0 -16 15 -19 q35 -6 78 1 q9 1 14 11 q8 15 13 27 q1 4 3 4 q1 0 1 -5 q0 -2 0 -16 q-1 -21 -1 -26 q-2 -6 -6 -6 q-49 -10 -105 -3 q-25 4 -26 27 q-1 23 -3 58 q-9 -4 -16 -9 q-2 -1 -4 0 q-1 1 -4 3 q-3 3 -4 3 q-1 2 -1 2 q0 1 1 1 q2 1 7 3 q4 2 21 9 q0 14 0 28 q-1 13 -4 20 q-1 3 -1 4 q1 1 3 -1 q1 0 3 -2 q9 -4 12 -6 q4 -1 3 -11 q-1 -12 -1 -26 q12 5 24 9 q1 18 1 48 q0 28 -5 43 q0 3 2 2 ZM79 193 q-1 3 0 4 q1 1 4 -1 q3 -1 9 -5 q6 -4 8 -6 q4 -2 1 -8 q-9 -22 -25 -45 q0 -14 -1 -38 q0 -55 -2 -79 q-2 -32 -10 -34 q-3 -1 -6 8 q-1 3 -3 9 q-1 3 -1 4 q-2 6 1 10 q3 5 5 24 q3 35 3 79 q-24 -29 -55 -46 q-2 -1 -3 0 q0 1 1 3 q45 40 71 95 q6 15 3 26 Z" /><glyph glyph-name="" unicode="&#x4ee5;" d="M82 -13 q-6 -3 -8 -2 q-1 2 5 6 q84 56 109 149 q7 29 3 39 q-2 4 -1 5 q1 1 5 -1 q15 -10 24 -19 q3 -2 -1 -6 q-5 -5 -11 -20 q-19 -52 -38 -80 q33 -14 59 -34 q6 -4 3 -9 q-1 -7 -8 -19 q-1 -3 -3 -3 q-2 0 -5 4 q-15 26 -48 58 q-28 -42 -85 -68 ZM117 109 q-32 -48 -74 -96 q-3 -4 -5 0 q-5 8 -10 15 q-2 3 1 4 q4 3 14 10 q5 5 8 7 q1 35 -2 90 q-2 17 -5 22 q-2 2 -1 3 q1 1 4 0 q14 -7 17 -9 q5 -3 4 -11 q0 -5 -1 -22 q-3 -47 -4 -62 q32 30 50 51 q4 4 5 4 q2 -2 -1 -6 ZM143 107 q-2 -4 -4 -4 q-2 -1 -4 3 q-12 25 -31 48 q-2 3 -1 4 q1 1 5 -1 q10 -5 35 -21 q6 -4 4 -9 q-2 -13 -4 -20 Z" /><glyph glyph-name="" unicode="&#x4eec;" d="M78 198 q10 -8 14 -13 q4 -1 1 -6 q-8 -24 -23 -45 l6 -3 q2 -2 2 -8 q0 -9 -1 -24 q0 -35 -2 -63 q-1 -29 0 -50 q0 -3 -1 -4 q-2 -1 -4 1 q-7 6 -13 15 q-2 4 -2 10 q5 28 7 61 q1 21 -1 40 q-1 5 -1 8 q0 3 0 4 q-20 -24 -50 -42 q-2 -1 -3 0 q-1 1 1 3 q44 41 59 82 q6 17 6 33 q0 3 1 4 q1 0 4 -3 ZM211 144 q0 5 -6 5 q-21 -2 -37 -5 q-3 0 -4 1 q-5 3 -5 6 q-1 2 0 2 q14 0 35 5 q9 2 18 6 q5 5 8 0 q2 -2 10 -14 q2 -3 0 -7 q-3 -10 -3 -30 q0 -19 1 -45 q1 -33 1 -55 q-1 -25 -10 -37 q-5 -5 -8 0 q-5 8 -21 25 q-3 3 -3 4 q1 1 4 0 q21 -5 21 3 q1 10 0 54 q0 51 -1 82 ZM106 143 q4 -1 12 -5 q5 -1 4 -12 q1 -62 -3 -134 q-1 -4 -2 -5 q-1 0 -5 2 q-4 3 -9 9 q-3 5 0 13 q3 10 4 41 q2 35 1 67 q-2 17 -5 21 q-1 2 0 3 q1 1 3 0 ZM115 173 q-1 2 0 3 q0 1 3 0 q7 -3 27 -14 q4 -4 2 -9 q0 -1 -2 -6 q-2 -4 -3 -6 q-2 -3 -3 -4 q-2 0 -4 3 q-12 17 -20 33 Z" /><glyph glyph-name="" unicode="&#x4ef6;" d="M84 73 q-1 3 2 3 q3 0 10 1 q35 1 56 4 q0 23 0 45 q-7 -1 -21 -3 q-8 -1 -11 -1 q-12 -20 -33 -34 q-2 -2 -3 -1 q-1 2 1 4 q25 32 32 63 q1 4 1 17 q0 3 2 2 q8 -3 16 -9 q2 0 2 -2 q-5 -15 -11 -27 q14 0 25 2 q0 13 0 25 q0 14 -2 39 q-1 4 -1 6 q0 3 2 3 q10 -4 18 -8 q1 -1 1 -3 q-1 -8 -1 -39 l-1 -21 q22 3 34 7 q3 0 4 -1 q1 -1 2 -3 q1 -1 6 -9 q1 -2 1 -2 q-1 -1 -2 -1 q-20 0 -45 -3 q0 -22 -1 -45 l26 3 q24 3 36 6 q4 1 7 -2 q3 -3 9 -12 q2 -3 2 -4 q0 -1 -3 -1 q-8 1 -40 1 q-4 0 -12 -1 q-16 -1 -25 -2 q0 -50 -1 -75 q0 -16 -5 -29 q-2 -4 -4 -3 q-3 0 -4 5 q-3 12 -3 26 q1 12 1 37 q1 26 1 38 q-3 0 -9 -1 q-32 -3 -48 -6 q-4 -1 -5 1 q-2 4 -6 10 ZM92 184 q-12 -27 -25 -45 l5 -3 q4 -2 2 -8 q-2 -13 -2 -36 q0 -82 -2 -106 q0 -5 -2 -6 q-2 -1 -6 2 q-1 2 -8 9 q-3 3 -1 11 q6 62 5 116 q0 5 0 9 q-19 -24 -52 -40 q-5 -2 -1 2 q41 34 59 80 q8 22 7 32 q0 3 1 4 q2 1 4 -1 q3 -2 15 -14 q3 -3 1 -6 Z" /><glyph glyph-name="" unicode="&#x4f1a;" d="M148 33 q-3 4 -2 5 q2 1 6 -3 q8 -5 29 -24 q3 -2 4 -3 q4 -3 3 -8 q-4 -16 -8 -24 q-2 -3 -4 -3 q-1 0 -2 3 q-3 13 -10 27 q-21 -4 -84 -14 q-12 -2 -17 -3 q-5 -1 -6 0 q-2 2 -1 6 q1 8 2 12 q0 3 3 4 q0 0 1 0 q12 1 30 21 q15 16 16 30 q-44 -4 -52 -6 q-2 0 -4 2 q-5 6 -7 10 q-1 3 2 2 q77 1 139 12 q3 0 6 -1 q1 -1 3 -4 q3 -3 4 -5 q2 -2 2 -4 q-1 -1 -4 -1 q-23 1 -77 -4 q3 -3 6 -6 q3 -3 0 -6 q-19 -22 -40 -41 q-2 -2 -2 -3 q1 -1 4 -1 q13 1 52 5 q15 1 21 2 q-6 14 -13 23 ZM114 208 q13 -6 22 -13 q4 -3 -1 -9 q-2 -2 -4 -5 q5 -5 21 -20 q6 -5 9 -8 q51 -49 89 -64 q3 -1 3 -2 q-1 -2 -4 -3 q-18 -3 -33 -3 q-1 0 -2 1 q-4 0 -6 2 q-24 23 -48 52 q-5 6 -17 19 q-11 12 -17 18 q-4 -6 -10 -13 q-43 -71 -102 -100 q-3 -1 -4 0 q0 1 2 3 q59 49 95 114 q11 19 4 28 q-1 2 0 3 q1 1 3 0 ZM151 116 q3 0 5 -1 q3 -2 7 -8 q1 -1 1 -3 q-1 -1 -3 -1 q-28 1 -66 -4 q-2 -2 -5 1 q0 1 -1 2 q-1 1 -3 6 q-1 2 1 2 q37 1 64 6 Z" /><glyph glyph-name="" unicode="&#x4f24;" d="M155 125 q11 -4 18 -9 q3 -1 2 -5 q0 -2 -1 -6 q-2 -7 -4 -18 q11 2 20 3 q15 4 21 7 q1 2 3 0 q7 -4 13 -11 q3 -2 1 -4 q-7 -14 -8 -24 q-1 -3 -2 -9 q-5 -21 -12 -43 q-7 -25 -23 -32 q-6 -1 -6 3 q-3 14 -12 25 q-2 2 -1 3 q0 2 2 1 q1 0 4 -2 q6 -2 9 -3 q5 -3 6 2 q17 27 21 75 q0 3 -3 3 q-1 0 -3 0 q-13 -1 -33 -4 q-17 -73 -70 -102 q-4 -2 -5 -1 q-1 1 2 4 q44 43 56 96 q-20 -3 -32 -6 q-2 0 -4 1 q-2 2 -5 8 q-2 1 -2 2 q-2 4 2 4 q14 -1 43 2 q6 26 0 38 q-1 2 0 2 q1 1 3 0 ZM81 200 q-1 4 1 4 q1 1 3 -2 q4 -5 13 -17 q3 -5 0 -9 l-18 -25 q-1 -2 -5 -6 q-3 -5 -5 -7 q6 -8 7 -57 q0 -39 -1 -72 q0 -33 -8 -34 q-3 0 -11 14 q-3 5 0 11 q3 12 5 56 q1 46 -1 73 q-23 -26 -56 -41 q-2 -1 -3 0 q0 2 1 3 q47 39 72 83 q7 15 6 26 ZM142 168 q6 17 5 30 q-1 4 1 5 q1 1 4 -2 q3 -2 10 -7 q7 -4 9 -7 q3 -5 -1 -10 q-6 -12 -17 -27 q5 1 14 2 q12 2 17 3 q23 2 33 6 q5 2 7 -1 q4 -4 8 -10 q1 -2 0 -2 q0 -1 -2 -1 q-47 -3 -85 -7 q-18 -21 -41 -34 q-5 -2 -7 0 q-1 1 3 5 q26 23 42 57 Z" /><glyph glyph-name="" unicode="&#x4f46;" d="M193 171 q5 2 7 0 q6 -4 11 -9 q3 -1 1 -6 q-1 -9 -3 -31 q-2 -25 -8 -63 q-1 -10 -5 -15 q-4 -3 -6 1 q-3 10 -11 19 q-1 0 -3 0 q-31 -3 -42 -5 l0 -2 q-2 -12 -6 -16 q-5 0 -9 9 q-2 5 -1 13 q3 24 -2 75 q-1 11 -6 20 q-1 2 0 3 q0 1 3 0 q3 -1 10 -4 q3 -1 4 -1 l0 -1 q7 1 29 4 q11 1 18 2 q12 2 19 7 ZM71 -19 q-2 -4 -6 -1 q-6 6 -9 10 q-4 6 -1 13 q8 21 9 106 q0 7 -2 13 q-22 -24 -54 -39 q-1 -1 -2 1 q-1 1 0 2 q53 44 71 85 q6 14 5 26 q0 3 1 4 q1 0 3 -1 q2 -1 8 -6 q5 -4 7 -6 q3 -3 1 -6 q-12 -27 -30 -50 q2 -1 5 -3 q0 0 1 -1 q2 -1 1 -4 q-2 -12 -2 -24 q-1 -74 -6 -119 ZM177 111 q-1 0 -2 0 q-32 -3 -42 -5 q0 -19 0 -33 q23 2 44 6 q3 2 4 -1 q2 -2 2 -5 q4 0 5 6 q5 38 6 70 q0 6 -6 6 q-11 -1 -29 -3 q-19 -3 -29 -4 q2 -17 2 -32 q22 2 41 6 q4 1 4 -2 q1 -1 2 -4 q1 -1 1 -2 q2 -3 -3 -3 ZM85 14 q-1 2 -1 2 q1 1 2 1 q19 0 44 2 q7 1 22 2 q67 5 82 9 q3 2 5 -1 q9 -6 11 -10 q3 -4 -1 -5 q-69 1 -153 -12 q-3 0 -3 1 q-2 2 -7 9 q-1 1 -1 2 Z" /><glyph glyph-name="" unicode="&#x4f53;" d="M211 128 q-6 0 -24 -1 q-16 -2 -24 -2 q50 -70 88 -83 q3 -1 3 -2 q0 -1 -3 -2 q-3 0 -9 -1 q-15 -2 -22 -3 q-4 0 -7 3 q-9 12 -42 59 q-6 9 -9 13 q0 -11 -1 -34 q0 -23 0 -33 q22 2 29 5 q4 1 4 -1 q5 -6 6 -10 q1 -2 -2 -2 q-9 0 -33 -2 q18 2 -4 0 q0 -16 1 -28 q1 -19 -7 -28 q-2 -2 -3 -2 q-2 0 -3 3 q-6 10 -4 26 q1 11 1 28 q-15 -1 -28 -3 q-4 -1 -5 1 q-2 2 -5 8 q-2 3 1 3 q22 0 38 1 q0 10 0 31 q1 22 1 33 q-26 -51 -70 -76 q-3 -1 -4 0 q0 1 2 4 q43 42 67 90 q-6 -1 -17 -2 q-14 -2 -20 -3 q-2 0 -4 1 q-3 2 -7 8 q3 -5 -1 1 q-2 2 1 2 q15 0 53 4 l-1 20 q0 19 -4 43 q-2 4 2 2 q15 -5 21 -8 q3 -1 2 -6 q-2 -5 -4 -30 q0 -3 0 -9 q-1 -6 -1 -10 q30 4 39 6 q3 2 6 -1 q1 -1 5 -6 q-2 3 2 -3 q2 -2 1 -3 q-2 -1 -5 -1 ZM83 186 q7 -5 13 -14 q1 -1 1 -3 q-6 -13 -15 -28 q-1 -2 -3 -5 q-8 -11 -13 -16 q0 0 2 -1 q2 0 5 -3 q3 -1 2 -6 q-2 -13 -2 -34 q0 -39 0 -55 q-1 -20 -2 -33 q0 -5 -3 -6 q-3 0 -7 3 q-4 4 -5 8 q-3 4 -2 10 q6 54 5 97 q0 7 0 13 q-16 -17 -51 -32 q-5 -2 -6 0 q0 3 4 5 q37 25 57 56 q14 22 16 43 q0 3 1 3 q1 0 3 -2 Z" /><glyph glyph-name="" unicode="&#x4f60;" d="M96 174 q-10 -21 -23 -38 q6 -4 7 -6 q3 -2 2 -5 q-4 -11 -4 -25 q-2 -18 -2 -83 q-1 -36 -8 -34 q-5 1 -9 12 q-3 8 -3 12 q0 6 2 10 q0 1 1 2 q1 5 1 10 q4 54 3 93 q-24 -27 -57 -41 q-2 -1 -3 0 q0 1 1 3 q45 35 65 77 q9 20 8 30 q0 3 1 4 q1 1 3 -1 q2 -1 8 -7 q6 -5 7 -7 q2 -3 0 -6 ZM145 211 q9 -5 18 -11 q1 -2 1 -5 q-14 -36 -26 -57 q22 1 52 7 q1 0 4 1 q12 3 14 5 q6 3 9 -1 q6 -6 16 -21 q3 -4 -4 -6 q-10 -3 -28 -6 q-2 -1 -3 0 q-1 1 0 3 q8 17 2 16 q-23 -3 -58 -9 q-4 1 -6 6 q-18 -31 -43 -41 q-4 -1 -2 2 q30 30 47 83 q7 20 5 32 q-1 3 2 2 ZM153 114 q4 -1 11 -4 q4 -1 6 -2 q3 -1 2 -6 q-2 -14 -2 -29 q0 -33 2 -67 q-1 -21 -12 -32 q-2 -3 -6 2 q-6 10 -16 24 q-1 2 1 2 q5 0 12 0 q3 0 3 4 q1 18 1 67 q-1 23 -4 39 q0 3 2 2 ZM232 32 q-11 25 -33 45 q-1 2 -1 2 q1 1 2 1 q26 -7 42 -20 q3 -3 3 -8 q-1 -9 -8 -21 q-3 -3 -5 1 ZM119 76 q4 -3 7 -8 q4 -2 1 -8 q-3 -4 -8 -11 q-10 -16 -16 -22 q-9 -7 -13 0 q-2 4 -2 7 q-1 2 1 3 q12 12 17 20 q8 12 8 17 q1 3 2 4 q1 0 3 -2 Z" /><glyph glyph-name="" unicode="&#x4f73;" d="M245 -4 q-68 0 -150 -11 q-2 -1 -4 0 q1 0 0 1 q-2 2 -5 8 q-2 1 -2 2 q-1 2 0 2 q0 1 2 1 q13 0 68 4 q0 7 -1 21 q0 11 0 16 q-8 -1 -21 -3 q-7 -1 -10 -1 q-4 0 -5 1 q-1 1 -4 6 q-1 2 -2 3 q0 2 2 2 q11 -1 40 2 q-1 12 -1 18 q-1 16 -3 22 q-19 -1 -42 -4 q-3 0 -3 1 q-3 2 -6 10 q-1 2 1 2 q14 -1 57 2 q0 6 -1 18 q0 12 -1 18 q-8 -1 -22 -3 q-6 -1 -9 -1 q-4 -1 -5 1 q0 1 -3 4 q-2 3 -2 4 q-1 3 1 2 q16 0 40 3 q0 7 -1 18 q0 6 0 8 q-2 20 -8 27 q-2 2 -2 3 q1 1 4 0 q7 -2 21 -10 q4 0 3 -7 q-1 -4 -1 -38 q28 4 34 5 q3 2 5 -1 q1 -1 2 -4 q2 -4 2 -5 q1 -2 -2 -2 q-16 0 -41 -3 q0 -16 1 -36 q18 2 32 3 q3 1 8 2 q3 1 10 3 q3 0 6 -2 q0 0 3 -4 q5 -5 6 -6 q1 -2 1 -2 q-1 -1 -2 -1 q-18 0 -80 -4 q2 -1 5 -2 q5 -2 8 -4 q3 0 1 -5 q0 -2 0 -9 q-1 -12 -1 -20 q26 2 39 5 q3 0 4 -2 q0 -1 1 -2 q3 -5 3 -6 q1 -2 -2 -3 q-6 1 -29 -1 q-11 -1 -16 -1 q0 -17 0 -37 q26 2 46 5 q2 0 7 1 q9 0 13 2 q3 2 4 -1 q5 -6 9 -12 q1 -3 -2 -3 ZM80 196 q10 -6 19 -14 q1 -1 1 -4 q-10 -20 -15 -29 q-2 -3 -5 -9 q-6 -10 -9 -14 l7 -4 q3 -1 2 -7 q-2 -13 -2 -34 q0 -78 -1 -101 q-1 -9 -6 -5 q-2 2 -6 5 q-3 3 -4 4 q-2 4 -2 11 q5 39 6 110 q0 7 0 13 q-25 -32 -58 -50 q-4 -2 -6 -1 q-1 1 3 4 q43 37 67 87 q10 19 5 35 q-1 2 0 3 q1 1 4 0 Z" /><glyph glyph-name="" unicode="&#x4f7f;" d="M212 164 q6 3 13 -9 q2 -2 1 -4 q-1 -1 -4 -1 q-25 0 -58 -3 q0 -12 0 -21 q13 2 22 3 q9 2 13 5 q5 1 6 -1 q10 -8 14 -13 q3 -3 -1 -6 q-7 -5 -15 -26 q3 -2 4 -5 q2 -2 1 -3 q0 -1 -3 -1 q-8 0 -44 -2 q-2 -23 -11 -44 q18 -12 45 -27 q26 -13 58 -18 q2 0 2 -2 q0 -1 -2 -2 q-8 -3 -35 -9 q2 1 -5 -1 q-3 -1 -6 1 q-26 18 -62 47 q-17 -30 -61 -46 q-5 -1 -6 1 q0 1 3 4 q38 21 52 51 q-2 2 -6 5 q-4 4 -6 5 q-12 11 -26 14 q-2 0 -3 2 q0 1 3 2 q8 2 12 2 q4 0 7 -2 q7 -8 17 -14 q3 -3 6 -4 q5 15 8 34 q-18 -2 -24 -3 q0 0 0 -1 q-1 -1 -1 -2 q-2 -4 -5 -1 q-5 4 -9 9 q0 1 -1 2 q-1 3 0 5 q1 4 0 11 q0 4 0 7 q-1 14 -4 20 q-1 3 2 3 q4 -1 12 -5 q1 -1 2 -1 q1 0 3 0 q13 1 28 4 q1 11 1 21 q-34 -4 -48 -6 q-2 -1 -5 2 q-3 3 -5 7 q-1 2 0 2 q0 1 2 1 q12 0 52 4 q-3 -1 4 0 l-1 14 q0 20 -5 35 q-1 3 -1 4 q1 1 4 0 q13 -3 17 -6 q4 -1 4 -6 q-2 -24 -2 -39 q27 3 47 7 ZM68 202 q18 -15 22 -21 q3 -3 0 -6 q-7 -11 -14 -26 q-1 -2 -3 -5 q-2 -4 -3 -6 q2 -1 3 -3 q3 -2 2 -5 q0 -30 -3 -97 q-1 -15 -1 -21 q0 -17 -5 -32 q-3 -5 -7 0 q-6 12 -8 18 q-1 5 1 9 q3 7 5 22 q2 51 2 93 q-19 -27 -57 -44 q-2 0 -1 2 q43 36 64 86 q8 19 1 35 q-3 5 2 1 ZM192 120 q-5 -1 -15 -2 q-9 -2 -13 -2 q0 -2 0 -5 q-2 -11 -2 -24 l28 4 q4 11 7 26 q2 4 -5 3 ZM148 115 l-29 -4 q1 -4 1 -14 q1 -8 1 -13 l0 -1 q2 0 8 1 q11 1 17 2 q2 14 2 29 Z" /><glyph glyph-name="" unicode="&#x4fe1;" d="M135 -17 q-2 -4 -4 -1 q-5 3 -7 6 q-1 1 -1 5 q0 23 -5 47 q-1 11 -5 18 q-1 3 2 3 q1 0 2 -1 q4 0 12 -3 q5 0 16 1 q16 1 22 2 q15 2 23 6 q3 2 5 0 q4 -2 13 -8 q4 -2 1 -4 q-8 -15 -13 -42 q5 -4 6 -7 q2 -3 1 -4 q0 -1 -3 -1 q-23 0 -63 -3 q0 -8 -2 -14 ZM86 198 q10 -7 15 -14 q2 -3 0 -6 q-12 -25 -25 -45 q3 -1 6 -3 q2 -1 2 -5 q-2 -20 -1 -89 q0 -19 0 -28 q0 -19 -6 -28 q-1 -3 -3 -3 q-1 0 -3 2 q0 1 -1 3 q-4 9 -4 12 q-2 6 -1 12 q3 13 3 32 q1 37 1 58 q0 5 -1 13 q0 9 -1 13 q-23 -27 -58 -46 q-4 -3 -6 -2 q-1 2 3 4 q44 39 62 72 q15 27 13 47 q0 2 1 3 q2 0 4 -2 ZM95 145 q-1 3 2 3 q19 0 63 4 q-3 16 -18 37 q-1 2 0 3 q1 1 3 0 q7 -2 25 -11 q5 -2 3 -7 q-3 -14 -7 -21 q36 4 49 7 q6 2 9 -1 q3 -2 10 -9 q2 -3 2 -4 q-1 -1 -4 -1 q-48 1 -126 -9 q-3 0 -4 1 q-3 3 -7 8 ZM183 51 q-20 0 -50 -4 q1 -6 2 -22 q1 -13 1 -18 q18 2 34 3 q6 0 12 2 q1 6 2 20 q2 11 2 15 q0 4 -3 4 ZM122 87 q-1 3 2 3 q36 0 60 5 q3 2 6 -1 q2 -1 6 -4 q1 -2 1 -2 q2 -2 1 -3 q0 -1 -3 -2 q-22 0 -66 -4 q-2 -1 -4 0 q1 0 0 1 q0 0 -1 2 q-2 3 -2 5 ZM121 116 q0 2 2 2 q31 0 60 5 q2 2 5 -1 q0 0 1 -1 q4 -3 5 -5 q1 -2 0 -2 q0 -1 -2 -1 q-10 -1 -36 -3 q-20 -2 -27 -2 q-3 0 -4 1 q0 1 -2 4 q-1 2 -2 3 Z" /><glyph glyph-name="" unicode="&#x5019;" d="M221 81 q1 -1 2 -2 q5 -5 6 -6 q1 -3 -2 -4 q-12 1 -57 -5 l0 -4 q21 -30 49 -51 q13 -8 29 -13 q5 -2 5 -3 q0 -1 -4 -2 q-3 0 -14 -1 q-12 -1 -16 -1 q-8 -2 -13 5 q-15 18 -39 52 l-1 -2 q-13 -49 -57 -64 q-9 -4 -10 -2 q0 1 8 7 q32 21 44 60 q0 2 2 6 q1 7 2 11 q-11 -2 -27 -6 q-1 -1 -2 -1 q-5 -1 -8 0 q-5 4 -8 7 q-1 1 -1 2 q0 1 2 1 q2 0 8 1 q5 0 7 1 q1 0 3 0 q11 1 27 4 q2 15 2 31 q-3 -1 -9 -2 q-3 -1 -4 -1 q-2 0 -2 0 q-8 -10 -21 -21 q-3 -1 -4 0 q-1 1 1 4 q17 24 19 44 q1 4 2 5 q1 0 5 -2 q2 -1 5 -4 q3 -2 5 -4 q3 -3 1 -6 l-5 -6 q34 5 45 10 q4 0 5 -1 q5 -5 6 -7 q1 -2 1 -3 q-1 -1 -4 -1 q-6 0 -19 -2 q-8 -1 -12 -1 q0 -15 -1 -31 q31 5 45 10 q2 1 4 -2 ZM82 194 q7 -5 13 -13 q2 -3 0 -4 q-5 -13 -14 -27 q-7 -12 -16 -21 q3 -3 6 -4 q1 -1 1 -4 q2 -48 -1 -99 q0 -1 0 -2 q-2 -22 -4 -26 q-4 -5 -8 -1 q-4 4 -9 12 q-2 4 1 9 q5 15 6 40 q2 24 -1 61 q0 3 0 5 q-17 -16 -49 -31 q-5 -2 -6 0 q-1 2 3 5 q38 24 58 56 q14 22 16 43 q0 3 1 3 q1 0 3 -2 ZM200 151 q7 1 17 6 q5 2 6 0 q7 -5 10 -9 q1 -1 1 -3 q-1 -1 -3 -1 q-44 -2 -110 -14 q-4 -1 -6 0 q-3 4 -7 7 q-1 3 -1 3 q0 1 4 1 q26 1 53 5 q3 7 9 24 q1 3 1 4 q1 2 0 4 q-1 1 -3 0 q-14 0 -32 -4 q-4 0 -6 2 q-4 3 -7 8 q-1 2 -1 3 q1 1 4 0 q40 0 56 8 q4 3 6 0 q3 -3 6 -9 q1 -3 -2 -6 q-7 -8 -15 -32 q11 2 20 3 ZM89 147 q-1 4 0 5 q1 1 4 0 q2 -1 5 -3 q4 -2 5 -3 q2 -2 2 -8 q-1 -90 -2 -136 q0 -3 -3 -2 q-5 3 -11 12 q-1 2 -1 3 q2 11 4 44 q1 40 0 67 q0 14 -3 21 Z" /><glyph glyph-name="" unicode="&#x505a;" d="M110 184 q7 -1 16 -4 q3 -1 2 -3 q0 -2 0 -5 q-2 -28 -4 -43 l4 1 q5 0 15 4 q2 0 3 -1 q5 -5 6 -8 q2 -1 -1 -3 q-12 0 -28 -2 q-1 -6 -2 -18 q-2 -14 -3 -21 q3 1 8 2 q6 2 9 3 q2 2 3 0 q5 -3 9 -8 q2 -2 0 -4 q-6 -15 -8 -33 q3 -3 4 -6 q1 -2 1 -2 q-1 -1 -2 -1 q-21 -2 -41 -5 q0 -11 -3 -18 q-2 -1 -4 0 q-5 7 -4 14 q0 15 -2 32 q-2 14 -5 23 q-1 3 1 2 q4 0 10 -2 q-1 1 2 0 q1 0 5 0 q4 1 6 1 q3 19 4 40 q-13 -3 -23 -4 q-3 -1 -3 1 q-1 1 -2 3 q-2 2 -3 3 q0 2 1 2 q3 0 10 1 q13 0 20 2 l1 12 q2 27 -4 43 q0 2 2 2 ZM66 -15 q-2 -4 -5 -2 q-1 1 -4 5 q-3 3 -4 5 q-4 6 -1 12 q7 22 8 101 q0 7 -3 13 q-23 -24 -52 -38 q-3 1 -1 2 q48 37 66 78 q5 12 4 21 q-1 4 0 5 q1 0 3 -2 q9 -6 13 -10 q0 0 0 -1 q2 -2 1 -5 q-10 -22 -27 -42 q1 0 2 -1 q2 -1 5 -1 q3 -1 3 -5 q-2 -10 -2 -22 q-1 -71 -6 -113 ZM188 112 q5 -2 13 -7 q3 -1 2 -5 q-2 -12 -4 -21 q-4 -17 -12 -31 q6 -8 12 -14 q20 -25 49 -31 q2 -1 3 -2 q0 -2 -2 -2 q-4 -1 -17 -3 q-12 -2 -16 -3 q-7 0 -12 7 l-23 38 q-18 -28 -53 -42 q-2 -1 -3 0 q0 2 2 3 q32 21 46 51 l-1 2 q-14 23 -23 31 q-2 1 -1 2 q0 1 2 1 q9 0 13 -6 q6 -9 14 -20 q6 12 8 27 q3 13 0 23 q-1 2 0 2 q0 1 3 0 ZM191 178 q2 -1 1 -3 q-9 -32 -21 -53 q33 2 54 8 q2 2 3 0 q7 -4 9 -8 q2 -2 1 -2 q0 -1 -2 -2 q-7 0 -34 -2 q-27 -1 -35 -2 q-4 -6 -12 -16 q-1 -2 -1 -2 q-1 -2 -3 -1 q-1 1 0 3 q23 56 20 91 q-1 3 2 2 q1 -1 4 -3 q10 -6 14 -10 ZM101 70 q-1 0 -3 0 q2 -18 3 -33 q4 1 14 2 q9 1 13 1 q1 5 1 16 q1 11 1 16 q1 2 -2 2 q-5 -1 -18 -3 q-6 -1 -9 -1 Z" /><glyph glyph-name="" unicode="&#x5085;" d="M118 64 q-6 2 -9 9 q3 27 -1 51 q0 2 0 4 q-1 9 -3 13 q-1 3 2 2 q5 -2 11 -5 q5 1 14 2 q10 1 14 1 q0 10 0 19 q-5 -1 -13 -2 q-17 -2 -22 -3 q-4 -2 -6 1 q-3 2 -6 7 q-1 2 0 2 q0 1 2 1 q23 0 45 3 q-1 26 -7 35 q-1 3 2 2 q4 -1 14 -5 q2 -1 4 -2 q4 0 3 -6 q-2 -13 -1 -23 q5 2 11 2 q15 3 19 6 q4 2 7 0 q6 -6 7 -9 q2 -2 2 -3 q-1 -1 -4 -1 q-17 0 -42 -3 l0 -19 q18 3 25 5 q6 2 9 -1 q6 -3 11 -8 q2 -2 1 -5 q-9 -39 -13 -67 q-2 -3 -5 -1 q-11 10 -7 18 q6 32 6 52 q0 2 -3 2 q-4 0 -12 -1 q-9 -1 -13 -2 q0 -8 0 -16 q1 0 4 1 q4 1 7 1 q4 2 6 -1 q0 -1 1 -2 q0 -1 1 -2 q1 -2 0 -2 q0 -1 -2 -1 q-3 0 -8 -1 q-6 0 -9 -1 q-1 -9 -1 -17 q8 2 11 3 q4 0 6 -2 q0 -1 1 -2 q1 -1 1 -2 q1 -2 0 -2 q0 -1 -2 -1 q-9 0 -17 -2 l0 -9 q-2 -11 -7 -12 q-7 1 -8 14 q1 3 1 5 q-9 -1 -17 -3 l-5 6 q0 -6 0 -10 q0 -12 -5 -13 ZM81 199 q1 -1 3 -3 q8 -7 10 -10 q4 -2 2 -6 q-14 -31 -27 -47 q3 -3 6 -4 q3 -3 3 -7 q-3 -47 -4 -98 q0 -5 -1 -16 q-1 -23 -2 -30 q0 -2 -1 -3 q-2 0 -4 2 q-2 2 -6 7 q-2 4 -4 6 q-3 3 -1 9 q5 17 6 56 q0 2 0 4 q2 31 1 56 q0 5 -1 8 q-21 -24 -49 -41 q-2 -1 -3 0 q-1 1 1 3 q46 43 60 81 q7 20 6 32 q-1 3 1 3 q1 0 4 -2 ZM237 63 q5 -6 7 -10 q1 -2 1 -3 q-1 -1 -3 -1 q-13 0 -30 0 q-12 -1 -29 -3 q-1 -12 0 -39 q0 -12 0 -17 q1 -14 -10 -24 q-4 -5 -7 0 q-4 7 -16 20 q-3 1 -3 3 q1 2 4 1 q15 -4 16 1 q2 21 0 54 q-41 -4 -71 -9 q-2 0 -5 1 q-5 5 -7 9 q-1 1 -1 2 q0 1 2 1 q31 0 81 5 q0 9 -5 16 q-1 3 3 2 q9 -1 16 -3 q3 -1 3 -4 q0 -4 0 -9 q10 0 19 2 q11 1 28 6 q4 3 7 -1 ZM206 197 q26 -15 26 -23 q0 -2 -6 -10 q-2 -2 -3 -3 q-4 -3 -6 1 q-5 17 -14 32 q-1 2 0 3 q0 1 3 0 ZM147 117 l0 16 q-13 -1 -26 -4 q0 -2 1 -7 q0 -5 0 -8 q3 0 13 1 q8 2 12 2 ZM146 92 q0 9 0 17 q-12 -1 -20 -4 l-4 6 q0 -4 1 -12 q0 -7 0 -10 q5 1 23 3 ZM120 32 q24 -11 23 -14 q0 -8 -6 -16 q-2 -2 -2 -2 q-1 0 -3 2 q-4 12 -14 27 q-1 2 -1 3 q1 1 3 0 Z" /><glyph glyph-name="" unicode="&#x50cf;" d="M120 98 q-1 -3 -4 0 q-6 4 -5 9 q0 10 0 21 q0 13 -3 22 q-5 -2 -15 -6 q-3 -1 -4 -1 q-2 -1 -3 1 q0 2 2 3 q27 14 51 36 q8 6 7 15 q0 3 2 1 q6 -5 8 -10 q1 -3 1 -5 q12 1 29 9 q4 1 7 -2 q5 -5 8 -10 q2 -3 0 -5 q-19 -16 -38 -27 q3 0 10 1 q6 0 9 1 q1 0 2 1 q9 1 13 4 q2 0 3 0 q2 -1 6 -4 q3 -3 5 -5 q1 -1 1 -3 q-4 -5 -5 -19 q-1 -7 -1 -12 q-2 -11 -9 -15 q-3 -1 -4 1 q-1 1 -2 3 q-2 4 -4 6 q-4 -1 -16 -1 q-11 -1 -17 -1 q-3 -4 -6 -9 q17 -12 21 -28 q1 -1 2 -2 q1 -1 3 -3 q16 13 25 22 q6 5 6 14 q0 2 2 1 q5 -2 14 -8 q3 -2 4 -3 q1 -1 -1 -3 q-21 -16 -46 -26 q4 -4 16 -13 q4 -4 7 -6 q13 -9 28 -13 q12 -2 22 -7 q3 -1 3 -2 q0 -1 -3 -2 q-8 -3 -31 -8 q-3 0 -7 3 q-15 18 -43 45 q0 -1 1 -4 q0 -2 0 -4 q0 -5 -1 -14 q0 -21 -2 -31 q-2 -22 -21 -32 q-3 -3 -5 1 q-3 11 -10 19 q-1 3 2 4 q21 -7 22 32 q0 9 0 15 q-40 -37 -82 -37 q0 -5 -1 -14 q0 -6 0 -9 q0 -4 -3 -6 q-3 -1 -6 3 q0 0 -2 2 q-3 4 -4 5 q0 0 0 1 q-2 4 -1 9 q4 42 5 110 q0 11 -1 18 q-24 -28 -57 -42 q-2 -1 -3 0 q0 2 2 3 q44 34 65 75 q8 18 8 29 q-1 3 0 3 q1 1 3 -1 q3 -2 14 -13 q2 -2 1 -5 q-1 0 -1 -1 q-12 -24 -28 -44 q2 -1 6 -4 q2 -1 3 -2 q3 -1 3 -6 q0 -1 0 -2 q-2 -11 -2 -24 q0 -56 -1 -82 q49 15 81 54 q0 5 -2 9 q-32 -32 -63 -32 q-3 0 -1 2 q37 16 58 43 q-2 2 -4 5 q-18 -18 -40 -21 q-2 0 -2 1 q-1 1 1 2 q24 12 37 32 q-3 0 -9 -1 q-6 0 -8 0 q0 -3 -2 -6 ZM165 132 q3 -2 1 -5 q-1 -2 -4 -7 q-2 -4 -4 -7 q20 2 25 4 q2 0 3 -1 q2 -1 3 -3 q4 -1 4 2 q1 5 1 18 q0 5 0 7 q0 3 -4 3 q-19 0 -66 -5 q0 -13 0 -24 l0 -3 q3 0 10 1 q6 0 9 0 q8 12 9 26 q1 4 4 2 q6 -5 9 -8 ZM175 179 q-12 -3 -19 2 q-18 -18 -45 -30 q5 -3 9 -6 q9 1 33 3 q16 14 24 28 q1 3 -2 3 Z" /><glyph glyph-name="" unicode="&#x5165;" d="M75 175 q-2 0 -2 0 q-1 1 0 3 q2 7 6 6 q6 -1 20 -2 q10 -1 15 -1 q6 -1 7 -6 q19 -59 54 -102 q30 -38 75 -47 q5 -2 6 -4 q0 -2 -5 -2 q-4 -1 -11 -2 q-19 -3 -41 -5 q-5 -1 -8 2 q-41 47 -63 94 q-46 -69 -118 -90 q-3 -1 -3 0 q-1 2 2 3 q67 37 111 106 q-1 2 -2 5 q-4 11 -11 29 q-1 10 -32 13 Z" /><glyph glyph-name="" unicode="&#x5176;" d="M146 213 q2 -1 6 -3 q10 -4 14 -7 q4 -2 2 -6 q-1 -4 -2 -17 q-1 -7 -1 -10 q0 -3 0 -7 q14 2 22 5 q4 2 7 -1 q6 -4 11 -9 q1 -2 1 -4 q-1 -1 -3 -1 q-15 0 -38 -1 q-1 -33 -1 -100 q14 2 26 3 q10 0 35 5 q5 1 7 -1 q5 -4 12 -14 q1 -1 1 -1 q2 -3 1 -5 q-1 -1 -5 -1 q-14 3 -37 3 q-73 0 -173 -13 q-6 -1 -8 3 q-4 5 -9 12 q38 0 77 3 q2 52 0 92 q-1 3 -1 7 q-8 -2 -21 -4 q-2 0 -3 0 q-4 -1 -6 1 q-4 2 -8 9 q-2 2 -1 2 q0 1 2 1 q22 0 37 2 q-2 21 -7 36 q-1 2 0 3 q1 1 3 0 q11 -4 19 -10 q3 -1 2 -6 q-1 -3 -1 -11 q-1 -7 -1 -11 q24 1 44 4 q-1 38 -7 49 q-1 2 0 3 q2 1 4 0 ZM132 89 q3 1 5 -1 q3 -2 5 -7 q2 -3 -1 -3 q-5 0 -17 0 q-12 -1 -18 -1 l0 -30 q21 2 43 3 q2 48 0 101 q-21 -2 -44 -5 q0 -5 0 -10 q0 -2 0 -7 q1 -5 1 -8 q16 2 25 3 q2 1 4 0 q-1 1 1 -1 q1 -1 4 -5 q-1 2 1 -2 q2 -3 -1 -3 q-10 0 -31 -2 q15 2 -3 0 q0 -12 0 -25 q17 2 26 3 ZM92 15 q5 7 4 13 q0 4 1 5 q1 0 3 -2 q10 -8 15 -14 q2 -5 -1 -8 q-31 -32 -78 -40 q-5 -1 -5 1 q0 2 5 4 q40 14 56 41 ZM175 -30 q-6 30 -29 56 q-2 3 -1 4 q1 1 4 0 q15 -7 41 -32 q5 -5 2 -12 q-2 -6 -9 -18 q-5 -5 -8 2 Z" /><glyph glyph-name="" unicode="&#x517b;" d="M194 118 q4 2 6 -1 q4 -3 10 -10 q-4 6 1 -2 q2 -2 1 -3 q-1 -1 -4 0 q-22 0 -56 -3 q50 -42 92 -51 q3 -1 4 -3 q0 -2 -3 -2 q-1 0 -3 0 q-18 -3 -35 -4 q-5 -1 -9 2 q-25 22 -59 58 q-18 -1 -36 -3 q-30 -55 -89 -68 q-4 -1 -5 0 q0 1 3 3 q47 21 74 63 q-32 -4 -43 -6 q-3 0 -5 2 q-6 5 -10 12 q-1 1 -1 2 q0 1 2 1 q22 -2 41 -1 q3 0 9 0 q9 1 13 1 q1 3 4 9 q4 9 5 14 q-14 -1 -25 -3 q-4 -2 -5 1 q-3 5 -5 9 q-2 3 2 2 q8 0 36 2 q5 13 0 22 q-22 -2 -38 -5 q-2 0 -5 2 q-2 2 -5 8 q-1 3 0 3 q0 1 2 0 q21 0 37 1 q-5 15 -17 31 q-2 2 -1 3 q0 2 2 1 q11 -2 21 -8 q4 -1 4 -6 q2 -11 0 -20 q9 0 18 1 q19 25 16 40 q-1 3 0 3 q1 1 5 0 q6 -4 15 -9 q3 -3 0 -8 q-12 -15 -25 -25 q28 3 38 6 q3 0 6 -2 q1 -1 1 -2 q2 -2 4 -5 q2 -5 -2 -5 q-15 1 -68 -3 q1 -1 4 -2 q4 -2 5 -3 q3 -2 2 -5 q-1 -6 -3 -12 q23 2 37 5 q3 1 5 -2 q1 -1 3 -3 q1 -3 2 -4 q1 -3 0 -3 q0 -1 -2 -1 q-12 0 -48 -2 q-3 -12 -8 -23 q5 0 16 1 q35 3 46 5 q13 2 23 5 ZM154 69 q-3 -5 -3 -17 q-2 -40 -2 -56 q0 -23 -4 -30 q-2 -4 -4 -4 q-2 0 -4 3 q-1 1 -2 4 q-5 8 -6 10 q-1 3 1 5 q-1 0 0 1 q3 5 4 14 q0 3 0 8 q2 29 2 52 q0 11 -3 21 q1 0 5 -1 q11 -4 14 -5 q3 -1 2 -5 ZM93 71 q1 -1 4 -3 q7 -4 10 -6 q2 -2 2 -7 q-4 -68 -60 -85 q-4 -1 -5 1 q0 1 3 3 q39 25 43 67 q3 16 0 28 q-1 2 0 3 q1 0 3 -1 Z" /><glyph glyph-name="" unicode="&#x5199;" d="M94 168 q10 -7 14 -11 q3 -3 3 -11 q-3 -13 -11 -60 q50 4 65 7 q13 1 20 5 q4 3 8 1 q13 -9 17 -15 q4 -3 1 -9 q-6 -10 -16 -50 q-6 -23 -9 -30 q-6 -14 -23 -21 q-6 -1 -6 4 q-1 16 -12 27 q-1 2 0 3 q1 2 3 1 q1 -1 4 -2 q3 -1 9 -3 q5 -1 7 2 q8 13 15 52 q2 13 3 19 q1 5 -5 6 q-51 0 -105 -12 q0 0 -1 0 q-4 -2 -7 1 q-3 3 -7 10 q-1 2 0 3 q1 1 2 0 q8 -1 20 0 q5 26 7 43 q1 4 1 5 q0 4 1 10 q1 17 -1 21 q-1 3 0 4 q1 1 3 0 ZM64 180 q1 0 1 -2 q40 3 106 11 q14 1 30 6 q6 1 8 -2 q9 -9 17 -23 q3 -5 2 -6 q0 -1 -4 -2 q-6 -2 -33 -5 q-3 -1 -4 0 q0 1 2 4 q4 6 7 12 q2 4 1 6 q-2 2 -6 1 q-75 -6 -126 -13 q-9 -23 -17 -36 q-6 -6 -10 2 q-3 9 5 23 q12 21 8 37 q-1 3 1 4 q2 1 4 -2 q5 -6 8 -15 ZM128 49 q10 2 22 6 q3 2 5 0 q9 -9 11 -13 q1 -2 1 -3 q-1 -1 -4 -1 q-8 0 -27 -2 q14 2 -3 0 q-68 -4 -103 -12 q-4 0 -6 3 q-3 5 -5 9 q-1 3 1 2 q65 3 108 11 ZM184 139 q3 2 6 -1 q1 -1 3 -3 q1 -2 2 -3 q3 -5 -2 -6 q-31 -1 -70 -8 q-2 -2 -5 1 l-6 6 q-2 2 -1 2 q0 0 2 1 q48 3 71 11 Z" /><glyph glyph-name="" unicode="&#x519b;" d="M135 -17 q1 -10 -6 -17 q-4 -5 -7 0 q-1 2 -4 8 q-1 1 -1 2 q-1 5 0 11 q4 27 5 50 q-34 -2 -64 -5 q-19 -3 -28 -5 q-4 -1 -6 1 q-2 1 -6 8 q-2 3 -3 4 q-1 3 3 3 q14 0 33 0 q6 0 22 1 q31 2 49 3 q0 14 0 30 q-16 -2 -43 -6 q-5 -1 -7 -1 q-4 0 -5 2 q-1 1 -3 5 q-2 3 -3 4 q0 3 2 4 q8 3 17 15 q9 14 16 27 l-16 -3 q-3 0 -4 1 q-5 2 -6 5 q-2 2 -2 3 q0 1 3 2 q17 0 30 2 q4 9 7 16 q4 11 2 18 q0 3 1 4 q1 0 3 -1 q10 -6 15 -11 q3 -3 1 -6 q-3 -6 -11 -19 q13 3 28 4 q7 0 19 5 q2 2 6 0 q3 -3 8 -6 q2 -2 2 -4 q-1 -2 -4 -2 q-4 0 -14 -1 q-9 0 -14 -1 q-1 0 -3 0 q-15 -1 -34 -4 q-21 -33 -29 -45 q3 0 11 1 q18 2 27 3 l0 5 q0 19 -4 28 q-1 2 1 1 q12 -3 18 -6 q2 -1 1 -5 q-2 -7 -2 -21 l0 -1 l8 1 q19 2 29 7 q4 2 6 -1 q5 -5 8 -10 q1 -2 1 -3 q-1 -1 -3 -1 q-4 0 -14 -1 q-23 -2 -36 -3 l0 -30 q10 1 29 2 q21 2 31 3 q14 2 21 6 q6 2 9 -1 q3 -2 9 -9 q2 -2 3 -3 q2 -3 1 -5 q0 -1 -3 -1 q-3 0 -11 0 q-23 1 -31 0 q-27 0 -58 -2 q0 -33 0 -55 ZM65 193 q0 -1 2 -4 q3 -5 4 -7 q12 1 55 5 q27 2 40 3 q19 2 30 9 q3 2 5 0 q0 1 1 0 q1 -1 4 -4 q10 -10 17 -19 q4 -5 -1 -7 q-18 -2 -33 -7 q-3 0 -3 1 q0 0 1 3 q3 8 6 14 q0 4 -3 4 q-67 -7 -118 -11 q-5 -34 -19 -47 q-4 -4 -6 1 q-3 6 -4 14 q-2 7 2 10 q16 17 15 40 q0 3 2 3 q1 1 3 -1 Z" /><glyph glyph-name="" unicode="&#x51c9;" d="M134 67 q-1 -2 -3 -2 q0 0 -1 1 q-6 4 -8 8 q-1 2 -1 4 q0 1 0 4 q-2 27 -4 37 q0 5 -3 13 q0 1 0 1 q-1 3 1 2 q9 -1 12 -4 q6 1 17 2 q14 2 21 3 q14 0 23 8 q2 0 3 -1 q7 -7 12 -14 q0 -1 0 -2 q-6 -12 -11 -29 q4 -4 7 -8 q3 -4 -2 -6 q-15 0 -45 -2 q5 -1 13 -6 q2 -1 3 -2 q3 -1 2 -4 q-4 -36 -1 -85 q-2 -11 -11 -21 q-3 -3 -4 1 q-8 14 -19 26 q-2 3 1 4 q5 -3 13 -4 q2 0 3 3 q1 15 0 49 q0 15 0 23 q1 8 -2 14 q0 2 0 2 l-15 -1 q0 -8 -1 -14 ZM136 209 q13 -3 26 -8 q3 -1 3 -4 q2 -14 0 -30 q7 1 21 3 q8 1 11 1 q13 1 30 7 q2 2 5 -1 q6 -6 9 -10 q1 -2 1 -4 q-1 -1 -3 -1 q-67 -3 -143 -14 q-3 0 -3 1 q-3 3 -6 8 q-2 3 -3 4 q-1 2 2 2 q9 -1 24 0 q10 1 42 3 q-5 19 -18 40 q-1 2 -1 3 q1 1 3 0 ZM85 98 q2 1 3 0 q1 -1 0 -2 q-19 -36 -49 -76 q-2 -1 -4 -1 q-3 1 -10 5 q-1 1 -1 1 q-1 2 0 3 q4 17 1 33 q0 3 2 1 q3 -3 6 -8 q3 -1 5 0 q25 19 47 44 ZM179 125 q-8 0 -28 -2 q-13 -2 -19 -2 l3 -29 q6 1 20 2 q15 2 20 2 q1 0 2 0 q1 6 3 19 q1 6 1 8 q1 2 -2 2 ZM220 -4 q-7 24 -29 46 q-1 2 0 3 q0 2 2 1 q26 -10 39 -20 q4 -3 4 -9 q-3 -15 -9 -21 q-6 -4 -7 0 ZM120 46 q6 -16 0 -23 q-9 -17 -22 -26 q-8 -6 -12 5 q-4 8 5 13 q14 11 26 31 q1 1 2 2 q1 -1 1 -2 ZM33 159 q-1 1 -1 3 q0 1 2 0 q20 -6 38 -16 q5 -3 3 -8 q-1 -4 -7 -12 q-2 -4 -3 -5 q-4 -3 -6 1 q-8 17 -26 37 Z" /><glyph glyph-name="" unicode="&#x51e0;" d="M160 178 q1 -2 4 -5 q4 -4 6 -7 q3 -2 1 -4 q-6 -8 -9 -29 q-7 -58 -6 -100 q-1 -17 18 -17 q22 -2 36 1 q17 -2 32 40 q1 2 2 2 q1 -1 1 -4 q-1 -29 -4 -49 q0 -5 -5 -5 q-42 -3 -73 1 q-24 3 -23 30 q-1 39 7 122 q1 4 -2 5 q-8 0 -42 -5 q2 -137 -81 -165 q-5 -2 -6 0 q-1 1 3 4 q68 45 67 140 q0 25 -5 40 q0 2 2 1 q5 -2 14 -7 q2 -2 3 -2 q2 0 7 1 q23 3 33 6 q6 1 14 5 q1 1 2 1 q3 2 4 0 Z" /><glyph glyph-name="" unicode="&#x51fa;" d="M196 73 q-1 -3 -3 -2 q-6 2 -10 3 q0 0 -1 1 q-1 2 0 4 q0 3 1 8 q0 4 0 6 q-20 -3 -44 -6 q-1 -29 -1 -74 q26 3 48 8 q0 2 0 4 q-1 20 -6 30 q-1 3 2 2 q8 -2 17 -6 q3 0 2 -3 q0 -45 1 -67 q0 -2 -1 -4 q-5 -5 -11 -9 q-7 -3 -7 3 q2 8 2 14 q1 13 1 25 q-71 -10 -133 -24 q-2 0 -5 1 q-5 5 -9 11 q-1 1 -1 2 q0 1 2 1 q8 0 24 2 q3 0 5 0 q-3 38 -11 50 q-2 2 1 2 q13 -3 22 -8 q2 -1 1 -3 q-2 -12 0 -39 q7 1 20 2 q14 2 21 3 q1 17 1 74 q-30 -4 -69 -11 q-3 -1 -4 1 q-3 1 -11 9 q-2 2 1 2 q7 0 26 2 q-14 -2 3 0 q-2 50 -12 64 q-1 3 2 2 q16 -8 23 -12 q1 -1 1 -3 q-1 -19 -1 -49 q3 0 9 1 q13 2 32 4 l0 35 q0 53 -8 72 q-1 2 0 2 q0 1 2 1 q16 -5 23 -8 q3 0 2 -4 q-2 -17 -2 -39 q0 -9 -1 -28 q0 -19 -1 -28 q27 3 45 7 q0 32 -8 52 q-1 3 2 3 q15 -7 23 -13 q1 -2 1 -5 q-1 -12 -4 -40 q-1 -19 -2 -28 Z" /><glyph glyph-name="" unicode="&#x51fb;" d="M71 128 q0 1 -1 2 q-4 6 -5 8 q-1 1 -1 3 q1 1 3 0 q15 -1 54 3 q0 53 -7 67 q-1 2 0 3 q1 1 3 0 q14 -3 22 -7 q0 0 1 0 q2 -1 1 -4 q-3 -12 -3 -40 q-1 -8 -1 -17 q11 0 21 2 q12 2 20 5 q4 3 7 0 q2 -1 6 -5 q5 -4 6 -6 q2 -3 2 -4 q-1 -2 -4 -2 q-21 1 -58 -2 q0 -21 0 -41 q26 3 58 6 q14 2 24 6 q6 3 10 -1 q7 -6 13 -14 q4 -6 -2 -7 q-30 2 -104 -2 q0 -17 -1 -47 q0 -16 0 -21 q16 2 42 6 q5 1 8 1 l0 10 q0 20 -6 30 q-1 3 2 3 q2 -1 6 -2 q9 -3 12 -4 q2 0 2 -4 q0 -45 1 -68 q0 -2 -2 -4 q-4 -5 -10 -9 q-7 -4 -7 3 q0 2 0 6 q1 5 1 8 q1 9 1 18 q-61 -6 -126 -18 q-2 -1 -4 0 q2 -1 -1 1 q-6 6 -10 12 q-2 3 2 4 q6 -1 20 0 q0 35 -6 47 q-1 2 0 3 q0 0 2 0 q6 -1 18 -6 q3 0 2 -4 q0 -4 -1 -13 q-1 -19 -2 -26 q7 1 22 2 q13 2 19 2 q0 6 0 25 q1 29 1 44 q-54 -5 -87 -11 q-8 -2 -10 3 q-4 3 -7 10 q-2 2 -1 2 q0 1 2 1 q38 1 103 6 q0 24 0 41 q-29 -4 -42 -6 q-5 -1 -8 2 Z" /><glyph glyph-name="" unicode="&#x5206;" d="M158 104 q3 3 6 -1 q2 -2 6 -7 q2 -4 4 -6 q2 -3 -1 -7 q-2 -6 -6 -20 q-8 -80 -31 -80 q-6 -2 -5 3 q-3 18 -9 26 q-2 2 -1 3 q0 1 3 0 q5 -2 13 -2 q6 0 8 5 q7 35 10 63 q1 9 -7 7 q-2 0 -6 -1 q-22 -3 -34 -5 l12 -7 q3 -2 1 -5 q-4 -6 -8 -12 q-29 -58 -88 -71 q-5 -1 -5 1 q0 1 4 3 q57 28 75 78 q1 3 2 8 q1 2 1 3 q-2 0 -6 -1 q-4 0 -6 -1 q-4 -1 -5 1 q-2 3 -5 10 q-1 2 -1 2 q1 1 2 1 q42 3 64 7 q7 2 13 5 ZM135 184 q4 -1 6 -6 q24 -37 53 -62 q27 -20 58 -29 q4 -1 4 -2 q0 -2 -4 -3 q-6 -1 -24 -5 q-8 -1 -11 -2 q-7 -1 -11 3 q0 0 -1 1 q-41 50 -74 84 q-10 12 -27 17 q-2 1 -2 5 q1 5 6 3 q11 0 27 -4 ZM87 162 q5 -4 13 -12 q4 -3 2 -9 q-25 -55 -82 -77 q-6 -1 -7 0 q-1 2 5 5 q42 26 66 74 q4 9 -1 16 q-1 2 0 3 q1 1 4 0 Z" /><glyph glyph-name="" unicode="&#x521d;" d="M189 110 q-27 -92 -85 -116 q-4 -2 -5 -1 q-1 1 2 4 q55 47 69 114 q3 13 -3 18 q-2 -1 -7 -2 q-7 -2 -9 -3 q-6 -3 -8 1 q-1 1 -3 4 q-2 3 -3 5 q0 3 3 3 q36 2 64 7 q12 2 17 6 q3 3 5 1 q5 -3 15 -10 q3 -3 0 -7 q-6 -9 -8 -33 q-7 -42 -18 -79 q-9 -28 -22 -34 q-2 -1 -4 -1 q-1 1 -1 3 q-2 23 -10 29 q-1 1 -1 3 q0 1 2 0 q15 -7 18 4 q18 46 21 104 q1 6 -6 5 q-14 -1 -39 -5 q4 -2 12 -8 q1 -1 2 -2 q4 -3 2 -10 ZM88 77 q-2 -60 -2 -87 q-1 -17 -7 -20 q-6 0 -10 13 q-4 14 -1 28 q5 21 5 64 q-29 -26 -66 -41 q-3 -1 -4 1 q0 1 2 3 q57 34 90 89 q1 2 1 3 q-1 1 -3 1 q-40 -6 -58 -12 q-6 -3 -13 9 q-1 1 -1 2 q0 1 2 1 q40 4 60 8 q16 2 21 8 q3 3 6 0 q0 1 1 0 q1 -1 5 -4 q4 -3 5 -4 q3 -2 0 -5 q-5 -3 -10 -12 q-11 -16 -23 -30 q0 -6 0 -13 q0 0 1 0 q7 -1 13 -3 q19 24 19 44 q0 2 1 2 q1 0 3 -1 q11 -11 9 -20 q-9 -13 -28 -27 q8 -2 14 -8 q11 -9 0 -26 q-1 -3 -3 -3 q-1 0 -2 3 q-5 23 -27 37 ZM78 204 q-1 2 -1 3 q1 1 3 0 q16 -4 25 -9 q5 -2 3 -7 q-2 -18 -6 -28 q-1 -4 -3 -4 q-1 0 -3 4 q-7 21 -18 41 Z" /><glyph glyph-name="" unicode="&#x5224;" d="M15 68 q-1 2 -1 2 q1 1 2 1 q34 0 65 4 q2 14 2 29 q-3 0 -10 -1 q-23 -3 -32 -4 q-1 0 -3 1 q-1 1 -3 3 q-4 3 -6 6 q0 2 1 2 q24 0 53 3 q2 19 0 43 q-1 36 -5 47 q-1 2 0 3 q1 2 3 1 q2 -1 8 -3 q6 -3 8 -4 q5 -2 3 -7 q-1 -10 -1 -51 q0 -15 0 -27 q4 1 12 2 q13 2 20 3 q3 1 4 -1 q4 -4 7 -9 q1 -3 -3 -3 q-12 -1 -41 -3 q0 -14 -1 -28 q13 1 34 5 q4 1 6 1 q2 0 4 -1 q5 -4 9 -10 q2 -3 -2 -4 q-23 -1 -52 -3 q-6 -79 -69 -102 q-4 -1 -5 0 q-1 1 2 4 q48 30 56 96 q-4 0 -12 -1 q-30 -3 -40 -4 q-3 -1 -4 1 q-5 4 -9 9 ZM221 188 q-2 -21 -2 -40 q0 -87 2 -138 q2 -25 -11 -40 q-3 -3 -7 1 q-6 14 -19 23 q-2 2 -2 3 q0 1 3 1 q21 -6 19 8 q2 55 0 127 q1 58 -7 71 q-1 3 2 2 q10 -3 21 -13 q2 -2 1 -5 ZM162 136 q0 8 -3 12 q-1 2 1 4 q1 1 3 0 q3 -2 13 -12 q3 -2 3 -8 q-1 -23 -2 -82 q0 -9 -4 -13 q-1 -3 -3 -3 q-1 0 -3 2 q-3 3 -5 7 q-3 5 -2 8 q2 9 3 39 q0 32 -1 46 ZM103 129 q19 29 17 49 q0 2 1 2 q1 1 3 -1 q8 -6 15 -13 q3 -3 0 -6 q-13 -19 -33 -34 q-2 -1 -3 0 q-1 0 0 3 ZM69 156 q0 -21 -4 -36 q0 -3 -2 -3 q-3 -1 -3 2 q-5 22 -16 39 q-1 2 -1 4 q1 1 3 0 q10 0 20 -2 q3 -1 3 -4 Z" /><glyph glyph-name="" unicode="&#x5230;" d="M89 110 q0 1 0 2 q-30 -8 -41 -11 q-5 -2 -7 1 q-5 5 -6 7 q0 0 0 1 q-4 3 1 4 q6 0 12 0 q3 1 5 1 q26 27 35 50 q-10 -1 -27 -4 q-13 -2 -18 -2 q-3 -1 -6 2 q-1 1 -2 4 q-2 2 -3 3 q-1 2 0 2 q0 1 2 1 q70 3 103 13 q3 3 6 0 q1 -1 3 -4 q2 -2 3 -4 q2 -3 1 -4 q0 -1 -3 -1 q-17 0 -51 -5 q9 -10 4 -16 q-11 -15 -27 -32 q5 1 15 3 q29 6 39 8 q-3 6 -9 18 q-2 4 -3 6 q-2 3 -1 4 q1 0 4 -2 q14 -11 27 -25 q4 -3 2 -7 q-2 -8 -7 -16 q-2 -2 -3 -1 q-1 0 -2 3 q-2 6 -5 12 q-7 -1 -25 -5 q-4 -1 -6 -2 q1 -1 3 -2 q5 -3 6 -4 q3 -2 2 -8 q-2 -8 -2 -23 q8 2 20 4 q6 2 8 2 q4 2 9 -7 q1 -3 0 -4 q-1 -1 -4 -1 q-16 -1 -34 -4 q-1 -13 -1 -34 q8 2 23 5 q12 3 16 4 q2 2 4 0 q3 -3 3 -5 q0 -2 -3 -3 q-45 -10 -103 -29 q-7 -3 -10 -1 q1 0 0 0 q-8 6 -14 12 q-2 2 -1 4 q1 1 4 0 q15 -2 30 2 q6 1 21 5 q10 2 16 3 q0 12 0 35 q-5 -1 -13 -3 q-14 -3 -17 -4 q-5 -3 -12 9 q-1 1 -1 2 q1 1 3 1 q9 -1 40 4 q0 19 -1 24 q0 9 -2 12 ZM221 191 q-3 -7 -3 -24 q-1 -21 0 -70 q0 -55 1 -82 q2 -25 -11 -40 q-3 -3 -7 1 q-6 14 -19 23 q-2 2 -2 3 q0 1 3 1 q21 -6 18 8 q1 26 1 64 q1 34 0 57 q-1 63 -7 71 q-3 3 2 2 q9 -2 22 -7 q4 -2 2 -7 ZM166 131 q0 1 0 3 q-1 7 -3 10 q-1 2 0 4 q2 1 3 0 q4 -2 14 -12 q3 -2 2 -8 q-1 -24 0 -55 q0 -5 -4 -13 q-3 -4 -7 0 q-1 1 -4 4 q-1 1 -2 2 q-2 5 -2 8 q6 24 3 57 Z" /><glyph glyph-name="" unicode="&#x524d;" d="M105 36 q-18 0 -31 -3 q-2 -42 -3 -59 q0 -4 -1 -4 q-2 -1 -4 1 q-6 6 -8 10 q-4 4 -1 10 q3 6 4 46 q1 40 -1 60 q0 9 -6 13 q-3 3 -2 4 q0 1 4 0 q5 0 12 -2 q6 0 26 2 q4 1 6 1 q0 0 1 0 q8 2 11 5 q4 2 8 -1 q1 -1 2 -2 q2 -1 5 -5 q4 -4 1 -8 q-4 -8 -4 -17 q1 -18 1 -82 q0 -18 -11 -33 q-4 -3 -6 1 q-6 13 -18 21 q-2 2 -2 3 q1 2 4 2 q6 0 11 0 q8 1 7 8 q1 18 1 53 q-1 30 -2 40 q0 6 -6 5 q-16 0 -28 -2 q0 -12 0 -26 q11 0 19 4 q4 2 7 -1 q3 -4 5 -7 q1 -2 1 -2 q-1 -1 -2 -1 q-17 1 -31 -2 q0 -13 0 -26 q10 0 20 4 q4 2 7 -1 q4 -4 5 -7 q2 -2 -1 -2 ZM37 144 q21 3 65 6 q-3 21 -14 39 q-1 3 0 4 q1 2 4 1 q2 -2 10 -6 q7 -4 10 -6 q3 -3 2 -9 q-2 -11 -5 -22 l25 2 q10 18 17 38 q3 11 0 20 q-2 3 -1 4 q1 1 4 -1 q4 -3 19 -14 q1 -1 2 -2 q4 -3 1 -8 q-12 -15 -33 -36 q12 1 34 3 q12 1 17 1 q14 0 23 5 q4 2 9 0 q2 -2 7 -8 q3 -4 4 -5 q2 -4 1 -5 q0 -1 -4 -1 q-105 4 -201 -16 q-5 -2 -8 1 q-1 2 -4 6 q-4 5 -5 6 q-2 2 -1 4 q1 1 4 0 q9 -2 18 -1 ZM175 127 q-1 3 0 3 q0 1 3 0 q3 -1 9 -5 q6 -4 8 -6 q3 -3 1 -7 q0 0 0 -1 q-1 -3 -1 -19 q2 -56 1 -100 q1 -17 -11 -27 q-4 -3 -7 1 q-5 10 -14 19 q-2 2 -2 2 q0 1 3 1 q1 0 6 1 q4 0 4 0 q5 1 5 5 q2 62 -2 112 q0 15 -3 21 ZM145 96 q3 -1 11 -5 q4 -2 4 -7 q-1 -51 -5 -58 q-1 -2 -2 -3 q-2 0 -3 2 q-1 1 -2 3 q-3 5 -4 6 q-2 5 -1 9 q3 27 -1 51 q0 2 0 3 q1 0 3 -1 Z" /><glyph glyph-name="" unicode="&#x52a0;" d="M164 9 q0 -5 -6 -3 q-4 4 -7 7 q-1 2 -1 5 q2 13 1 38 q0 29 -2 45 q-2 20 -8 29 q-1 3 0 4 q1 1 4 0 q1 0 4 -1 q2 -1 3 -2 q16 1 40 5 q8 1 15 7 q1 4 7 1 q4 -2 10 -6 q4 -1 1 -6 q-5 -11 -6 -28 q-3 -21 -9 -59 l1 -1 q5 -4 8 -10 q2 -3 -3 -4 q-11 1 -51 -3 q0 -3 0 -9 q-1 -6 -1 -9 ZM121 140 q3 2 6 0 q2 -3 6 -6 q1 -1 2 -2 q2 -3 0 -6 q-3 -8 -8 -29 q-6 -22 -16 -66 q-4 -19 -11 -27 q-3 -3 -5 -3 q-1 1 -2 5 q-1 1 -2 5 q-7 14 -11 19 q-2 3 -2 4 q1 1 4 0 q13 -3 14 7 q7 19 19 78 q1 6 -4 5 l-18 -2 q-19 -93 -84 -116 q-6 -2 -7 -1 q0 2 5 5 q53 39 70 109 q-10 -1 -21 -4 q-4 -2 -8 2 q-2 2 -4 4 q-1 2 -2 3 q-1 2 -1 3 q1 1 4 1 q3 -1 21 1 q9 1 13 1 l2 10 q5 33 -2 50 q-1 3 0 5 q1 1 4 -1 q1 -1 3 -2 q12 -9 16 -13 q3 -1 0 -7 q-2 -6 -4 -22 q-1 -4 -1 -6 l-2 -12 l7 1 q13 3 19 7 ZM201 120 q1 6 -5 5 q-4 0 -20 -2 q-10 -1 -14 -1 l0 -4 q4 -40 3 -81 q18 2 29 5 q5 36 7 78 Z" /><glyph glyph-name="" unicode="&#x52a8;" d="M147 110 q-4 -1 -7 2 q-2 2 -5 7 q-2 3 -1 4 q1 2 4 1 q2 0 10 1 q8 0 9 0 q2 1 6 1 q4 1 6 1 q5 28 6 52 q0 21 -3 29 q-2 4 -1 5 q1 1 5 -1 q1 -1 4 -2 q10 -6 13 -8 q5 -2 3 -10 q-2 -13 -7 -47 q-2 -11 -3 -16 q29 6 34 10 q4 4 7 0 q5 -5 10 -11 q3 -3 1 -7 q-5 -11 -8 -23 q-15 -60 -19 -87 q-4 -21 -14 -36 q-4 -5 -7 -5 q-2 0 -4 6 q-5 17 -14 32 q-3 4 -2 5 q1 1 5 -1 q16 -7 17 2 q10 27 24 103 q0 6 -7 5 q-2 0 -8 -1 q-12 -2 -18 -3 q-8 -39 -21 -72 q-25 -62 -72 -76 q-5 -1 -6 0 q-1 1 3 4 q47 31 66 93 q5 14 13 44 q1 3 1 4 q-3 -1 -8 -2 q-10 -2 -12 -3 ZM97 74 q13 -3 19 -13 q0 -1 1 -2 q10 -15 8 -21 q0 -7 -9 -13 q-2 -2 -4 -1 q-1 0 -1 2 q-1 6 -3 14 q-40 -6 -73 -16 q-3 -2 -6 3 q-3 9 -4 13 q-1 3 3 3 q18 5 32 31 q10 17 8 28 q-21 -3 -40 -9 q-5 -2 -8 1 q-4 4 -9 10 q-1 2 -1 3 q1 1 4 1 q32 -1 84 8 q4 1 15 4 q4 1 5 1 q3 2 5 0 q0 1 1 0 q3 -2 7 -9 q1 -1 1 -1 q1 -2 1 -3 q-1 -1 -4 -1 q-17 0 -26 -1 q-18 -1 -30 -3 q2 -2 5 -5 q3 -2 6 -6 q2 -2 1 -5 q-9 -15 -30 -40 q-1 -2 -1 -3 q1 -1 3 -1 q5 1 17 2 q24 3 31 4 q-4 12 -10 23 q-3 3 2 2 ZM105 169 q4 2 6 -1 q1 -1 4 -6 q1 -2 2 -3 q1 -2 0 -2 q0 -1 -3 -1 q-31 -1 -68 -8 q-3 0 -5 2 q-1 1 -4 6 q-1 2 -2 3 q-1 2 2 2 q38 0 68 8 Z" /><glyph glyph-name="" unicode="&#x5341;" d="M188 120 q18 2 30 9 q4 5 7 0 q3 -3 8 -8 q5 -6 7 -9 q3 -4 2 -6 q-2 -2 -8 -2 q-13 1 -47 1 q-1 0 -3 0 q-21 -1 -48 -4 q0 -15 1 -44 q0 -18 0 -24 q1 -47 -7 -63 q-5 -6 -10 1 q0 -1 -3 5 q-3 4 -1 16 q4 43 4 108 q-45 -4 -89 -13 q-3 0 -5 2 q-2 2 -5 6 q-4 4 -6 6 q-2 3 -1 4 q0 1 5 1 q16 -2 101 6 q-2 54 -5 74 q0 10 -4 17 q-1 3 0 5 q1 2 4 1 q15 -5 19 -6 q5 -4 4 -7 q0 -6 0 -25 q-1 -37 -1 -57 q24 3 51 6 Z" /><glyph glyph-name="" unicode="&#x534a;" d="M57 115 q-1 3 2 3 q9 -1 62 5 q0 10 -1 28 q0 19 -1 28 q-2 18 -6 28 q-2 3 -1 4 q1 1 5 0 q9 -3 18 -7 q4 -2 3 -6 q-2 -25 -2 -73 q44 6 51 9 q3 1 4 -2 q2 -2 5 -7 q1 -2 2 -3 q1 -2 0 -2 q0 -1 -2 -1 q-8 0 -53 -5 q4 0 -7 -1 l0 -35 q60 7 92 14 q3 1 5 -2 q1 -2 4 -5 q6 -6 7 -9 q1 -2 1 -3 q-1 -2 -3 -1 q-35 3 -86 -3 q-6 0 -18 -2 q8 2 -2 0 q0 -39 1 -47 q2 -37 -5 -49 q-2 -6 -7 -1 q-1 1 -3 3 q-3 5 -4 7 q-3 6 -2 15 q4 33 4 71 q-5 -1 -16 -2 q-22 -3 -32 -4 q-3 0 -8 -1 q-22 -3 -33 -7 q-4 -1 -7 2 q-1 1 -5 5 q-4 5 -6 7 q-2 3 1 3 q30 0 67 4 q7 1 21 2 q13 2 19 2 q0 17 0 34 q-7 -1 -20 -3 q-24 -3 -30 -4 q-2 0 -5 1 q-4 4 -9 10 ZM172 191 q12 -8 16 -11 q4 -3 1 -7 q-9 -14 -36 -37 q-3 -3 -5 -2 q-2 2 1 5 q20 29 18 49 q0 4 1 4 q1 1 4 -1 ZM68 174 q10 0 22 -2 q4 -2 5 -7 q1 -4 1 -15 q1 -9 1 -14 q0 -4 -2 -5 q-3 -1 -5 3 q-12 22 -24 36 q-1 2 -1 3 q1 1 3 1 Z" /><glyph glyph-name="" unicode="&#x539f;" d="M185 153 q3 2 5 0 q2 -1 5 -4 q3 -1 9 -7 q3 -1 1 -5 q-6 -12 -12 -53 q-2 -13 -11 -18 q-4 -2 -5 1 q-1 5 -6 9 q-2 0 -8 0 q-9 -1 -13 -1 q5 -3 8 -6 q0 -1 1 -1 q1 -1 1 -4 q-1 -31 0 -64 q2 -19 -9 -31 q-3 -5 -6 0 q-10 13 -19 25 q-1 3 2 3 q2 -1 7 -1 q4 -1 6 -1 q4 0 4 4 q0 53 -2 75 q-11 0 -23 -2 q0 -5 -2 -8 q-2 -1 -4 0 q-7 3 -9 10 q0 7 -2 23 q-1 11 -1 17 q-1 18 -6 31 q-2 2 1 2 q8 0 16 -3 q6 0 11 1 q11 18 11 32 q-27 -1 -52 -5 l0 -1 q-4 -144 -74 -185 q-2 -2 -3 -1 q-1 2 1 4 q54 63 57 165 q2 17 -9 31 q-1 2 0 3 q0 0 3 0 q2 -1 6 -2 q4 -2 6 -3 q98 6 129 16 q4 0 7 -1 q9 -6 15 -12 q2 -4 -4 -5 q-11 1 -76 -3 q3 -2 10 -7 q3 -2 4 -3 q2 -1 0 -4 q-7 -9 -16 -18 q37 4 46 7 ZM180 139 q-15 0 -59 -4 q-4 -1 -6 -1 l1 -20 q1 0 2 0 q30 2 42 5 q3 0 4 -1 q5 -4 6 -7 q1 -1 1 -2 q0 -1 -2 -1 q-4 0 -13 -1 q-28 -1 -39 -3 q1 -3 1 -10 q1 -7 1 -11 q26 0 47 4 q2 0 4 -1 l2 -3 q6 0 6 3 q6 27 5 50 q0 3 -3 3 ZM104 48 q10 -12 7 -20 q-7 -18 -21 -31 q-5 -6 -12 1 q-5 6 2 13 q19 18 21 36 q1 2 1 2 q1 1 2 -1 ZM181 46 q31 -11 37 -22 q2 -12 -6 -26 q-3 -4 -5 0 q-9 23 -28 46 q-3 3 2 2 Z" /><glyph glyph-name="" unicode="&#x53bb;" d="M56 122 q-1 1 -2 3 q-3 5 -4 6 q0 4 2 4 q17 -1 65 3 q0 5 0 10 q0 42 -6 54 q-2 4 -1 4 q0 1 4 0 q11 -2 21 -7 q3 -1 2 -6 q-3 -10 -3 -40 l0 -14 q14 2 27 3 q6 0 21 5 q4 3 6 0 q5 -5 10 -11 q2 -2 1 -4 q-1 -2 -4 -1 q-29 0 -61 -2 q0 -26 -1 -45 q22 1 63 5 q19 2 29 8 q4 3 7 -1 q8 -6 14 -14 q3 -4 2 -5 q-2 -2 -7 -1 q-23 0 -47 0 q-5 0 -16 -1 q-39 -1 -61 -3 q2 -2 7 -6 q4 -4 5 -5 q3 -3 0 -7 q-24 -34 -43 -51 q-2 -2 -2 -3 q0 -1 4 0 q12 1 48 4 q21 2 29 3 q-4 9 -15 24 q-1 2 -2 3 q-3 4 -2 5 q2 0 6 -3 q22 -14 36 -27 q5 -2 3 -7 q-2 -18 -6 -26 q-2 -3 -4 -3 q-2 0 -3 3 q-1 5 -6 16 q-2 5 -3 8 q-49 -8 -108 -18 q-5 -1 -6 0 q-2 2 -1 6 q1 9 2 13 q0 4 4 4 q10 1 32 26 q21 22 19 39 l0 1 q-64 -6 -85 -10 q-3 0 -5 2 q-6 5 -11 11 q-2 2 -1 3 q0 0 5 0 q18 -1 103 6 q2 26 0 44 q-40 -4 -56 -7 q-3 -1 -5 1 q0 1 0 1 Z" /><glyph glyph-name="" unicode="&#x53c8;" d="M51 117 q-4 0 -4 3 q1 6 5 7 q20 2 35 2 q5 0 8 -4 q12 -20 26 -37 q18 27 26 61 q2 7 -5 6 q-21 0 -47 -7 q-7 -2 -11 1 q-6 3 -11 8 q-2 2 -2 3 q0 1 3 1 q24 -1 64 5 q10 2 16 6 q4 3 8 -1 q8 -7 13 -14 q3 -4 -1 -7 q-6 -7 -11 -18 q-13 -33 -30 -57 q15 -17 32 -29 q41 -34 84 -38 q5 -1 5 -3 q0 -2 -5 -4 q-3 -1 -10 -2 q-18 -5 -29 -6 q-9 -3 -13 2 q-41 34 -71 71 q-36 -45 -103 -67 q-5 -1 -7 0 q-1 2 3 4 q64 33 96 75 q-5 7 -15 21 q-7 9 -10 14 q-3 6 -10 5 q-21 0 -29 -1 Z" /><glyph glyph-name="" unicode="&#x53cb;" d="M97 72 q-2 1 -2 3 q0 1 2 1 q19 2 32 -15 q5 -6 9 -10 q11 18 17 42 q2 3 -3 3 q-23 -4 -39 -10 q-3 0 -4 1 q-3 2 -7 7 q-30 -54 -92 -78 q-6 -2 -6 -1 q0 2 6 5 q67 41 93 111 q-23 -3 -40 -6 q-4 -1 -8 2 q-2 2 -7 9 q-2 2 -1 2 q0 1 2 1 q11 -1 25 0 q17 1 33 4 l2 6 q9 28 6 55 q-1 3 0 3 q1 1 4 -1 q7 -4 16 -11 q5 -4 3 -9 q-3 -12 -11 -34 q-1 -5 -2 -7 q18 2 34 5 q18 1 27 7 q4 2 7 -2 q5 -3 8 -8 q2 -3 2 -4 q-1 -1 -4 -1 q-29 -2 -78 -8 q-8 -19 -17 -36 q35 2 53 12 q2 1 4 0 q-1 1 1 -1 q1 0 3 -2 q8 -5 10 -7 q3 -3 2 -4 q-4 -5 -9 -18 q-1 -3 -2 -5 q-8 -18 -17 -34 q42 -42 93 -52 q3 0 3 -1 q-1 -2 -3 -3 q-2 0 -6 -1 q-26 -4 -39 -5 q-6 0 -10 4 q-20 17 -43 46 q-2 2 -2 3 q-27 -33 -83 -46 q-3 -1 -3 1 q0 1 2 3 q52 23 74 54 q-8 8 -14 15 q-10 12 -21 15 Z" /><glyph glyph-name="" unicode="&#x53cc;" d="M123 135 q-2 1 -1 3 q0 1 3 1 q19 0 29 -21 q6 -14 14 -26 q12 27 17 63 q1 3 -3 3 q-15 -2 -37 -8 q-1 -1 -3 1 q-3 2 -7 6 q-2 2 -2 2 q-2 2 1 2 q30 2 53 13 q2 2 4 0 q4 -2 11 -8 q3 -2 4 -3 q1 -2 1 -5 q-1 -3 -3 -10 q-5 -13 -6 -20 q-7 -30 -20 -54 q30 -48 73 -63 q3 -1 3 -2 q0 -2 -3 -3 q-11 -2 -37 -4 q-1 0 -2 0 q-6 0 -10 5 q-20 31 -31 54 q-28 -44 -77 -59 q-3 -1 -3 1 q0 1 2 3 q45 28 69 73 q-19 42 -39 56 ZM43 121 q-2 2 -1 3 q2 2 4 0 q8 -6 31 -27 q1 -1 2 -2 q11 24 15 52 q0 3 0 3 q-1 1 -3 0 q-13 -1 -41 -10 q-3 0 -5 1 q-3 2 -9 8 q-1 1 -1 2 q1 1 3 1 q32 1 57 13 q1 1 3 0 q1 0 1 0 q2 -1 7 -5 q5 -3 7 -5 q0 0 1 -1 q1 -1 0 -4 q-1 -3 -3 -8 q-5 -13 -6 -20 q-5 -20 -13 -38 q13 -13 23 -21 q4 -5 1 -11 q-1 -3 -6 -11 q-1 -4 -2 -5 q-2 -2 -3 -2 q-2 0 -3 3 q-4 15 -18 34 q-26 -45 -75 -59 q-2 -1 -3 1 q0 1 2 2 q46 29 66 69 q-12 18 -31 37 Z" /><glyph glyph-name="" unicode="&#x53d1;" d="M100 67 q-2 1 -2 2 q0 1 2 2 q19 2 29 -14 q2 -1 5 -5 q3 -3 4 -5 q11 18 18 43 q0 3 -3 2 q-23 -4 -40 -10 q-3 0 -4 1 q-2 2 -4 4 q-32 -66 -87 -90 q-6 -3 -7 -2 q0 2 5 6 q62 49 87 119 q-25 -3 -48 -9 q-3 -1 -7 1 q-2 2 -5 7 q-1 2 -2 3 q-1 1 -1 2 q1 1 3 1 q8 0 18 1 q9 32 7 47 q0 3 1 3 q1 1 3 0 q6 -3 10 -6 q4 -2 3 -6 q-3 -10 -10 -37 q1 0 3 0 q10 1 28 4 q16 43 11 69 q-1 3 1 4 q1 0 3 -2 q4 -3 15 -14 q3 -3 1 -7 q-1 -4 -4 -13 q-4 -17 -7 -25 l-3 -10 q6 1 18 3 q9 1 14 2 q18 3 26 7 q5 3 9 -1 q8 -8 9 -10 q2 -3 2 -4 q-1 -1 -4 -1 q-3 0 -11 0 q-10 -1 -15 -1 q-26 -2 -52 -6 q-5 -15 -11 -27 q30 1 50 11 q1 2 4 0 q2 -2 9 -6 q4 -3 5 -4 q1 -1 1 -4 q-6 -11 -11 -22 q-7 -19 -17 -34 q41 -42 93 -52 q3 -1 3 -2 q0 -2 -3 -2 q-18 -4 -44 -6 q-7 -2 -11 3 q-21 19 -42 46 q-1 2 -3 3 q-26 -32 -83 -45 q-3 -1 -3 0 q0 1 2 3 q52 23 74 54 q-7 7 -13 15 q-12 12 -19 14 ZM174 186 q-1 2 -1 3 q1 1 3 0 q26 -10 39 -20 q1 -2 1 -5 q-1 -1 -4 -7 q-3 -5 -4 -7 q-3 -4 -7 1 q-10 21 -27 35 Z" /><glyph glyph-name="" unicode="&#x53d6;" d="M132 127 q-1 2 -1 3 q1 1 3 1 q15 -1 25 -23 q3 -5 7 -15 q4 -8 6 -12 q12 27 17 62 q2 3 -3 3 q-15 -2 -34 -8 q-3 0 -4 1 q-2 2 -5 5 q-3 2 -4 3 q-1 2 1 2 q32 1 51 12 q3 2 4 0 q10 -6 14 -10 q3 -2 2 -5 q-2 -6 -6 -18 q-2 -8 -3 -11 q-7 -30 -20 -54 q28 -44 66 -58 q3 -1 3 -2 q0 -2 -3 -3 q-10 -2 -33 -4 q-3 0 -4 0 q-8 -1 -11 5 q-12 20 -26 50 q-23 -36 -62 -52 l0 -6 q0 -10 -7 -16 q-2 -2 -4 0 q-5 7 -5 17 q0 8 0 25 q1 19 1 29 q-44 -16 -73 -25 q-2 0 -5 2 q-6 7 -8 11 q-1 1 -1 2 q0 1 2 1 q10 0 35 6 q2 99 -1 114 q-7 -1 -15 -3 q0 0 -1 1 q-1 0 -2 0 q-4 5 -8 11 q-1 2 -1 2 q1 1 2 1 q26 0 70 6 q18 3 37 7 q3 0 5 -1 q7 -3 10 -9 q2 -2 -1 -2 q-20 -3 -41 -6 q6 -1 11 -6 q1 0 1 -2 q-1 -26 -1 -98 q2 1 6 2 q5 1 12 3 q5 1 6 0 q0 -2 -4 -4 q-2 -1 -5 -2 q-3 -1 -15 -6 l0 -46 q35 24 54 62 l0 1 q-17 36 -34 57 ZM96 166 q-23 -3 -44 -7 q5 -2 10 -5 q1 -1 1 -2 q0 -2 0 -8 q-1 -9 -1 -15 q2 0 6 1 q9 1 12 2 q3 0 4 0 q1 -1 3 -3 q1 -3 2 -4 q1 -2 -1 -2 q-11 -1 -26 -3 l0 -28 q11 0 20 3 q2 0 3 -1 q3 -3 5 -6 q2 -2 -1 -2 q-1 0 -3 0 q-9 -1 -24 -4 q0 -20 0 -34 q6 2 18 5 q12 3 17 4 q0 74 -1 109 Z" /><glyph glyph-name="" unicode="&#x53d8;" d="M81 53 q-2 1 -2 1 q0 1 2 2 q11 5 22 -4 q9 -8 18 -14 q14 19 19 36 q1 2 -2 2 q-26 -3 -48 -10 q-2 0 -5 1 q-5 5 -6 7 q-2 3 1 2 q46 4 66 13 q3 2 5 0 q6 -4 11 -9 q2 -2 0 -3 q-5 -7 -13 -22 q-7 -14 -16 -25 q55 -42 106 -46 q2 -1 2 -2 q0 -1 -2 -2 q-21 -6 -46 -10 q-3 -1 -6 1 q-28 19 -63 50 q-30 -30 -91 -43 q-2 -1 -3 1 q0 1 2 2 q57 22 82 49 q-3 3 -11 9 q5 -3 -2 2 q-6 6 -20 12 ZM169 170 q1 0 4 1 q18 3 22 5 q4 3 9 -1 q2 -2 5 -5 q3 -4 4 -6 q1 -2 1 -3 q-1 -1 -4 -1 q-10 0 -26 0 q-4 0 -14 -1 q-23 -2 -36 -3 q1 -1 4 -3 q3 -2 4 -3 q4 -2 2 -5 q-3 -13 -2 -42 q-1 -11 -7 -14 q-6 4 -6 16 q4 29 0 50 q-5 0 -15 -1 q-11 -1 -16 -2 q2 -1 6 -4 q2 -2 3 -2 q3 -2 1 -5 q-2 -11 -2 -43 q-1 -11 -7 -12 q-6 2 -7 14 q4 32 1 51 q-26 -3 -46 -8 q-6 0 -7 2 q-3 3 -7 9 q-1 3 2 3 q50 1 134 13 ZM162 136 q0 3 3 2 q14 -6 32 -18 q4 -3 4 -8 q-1 -9 -6 -15 q-3 -4 -7 0 q-8 19 -26 39 ZM63 129 q12 -6 8 -13 q-4 -11 -18 -32 q-2 -3 -5 -2 q-1 1 -4 3 q-3 2 -4 2 q-3 2 0 6 q19 18 21 35 q0 3 2 1 ZM104 201 q-1 1 -1 2 q0 1 2 1 q3 -1 9 -2 q13 -3 18 -4 q6 -3 5 -12 q-1 -10 -4 -19 q-4 -4 -6 0 q-5 15 -23 34 Z" /><glyph glyph-name="" unicode="&#x53e6;" d="M98 116 q-3 -4 -6 -1 q-8 7 -7 13 q-1 17 -7 40 q-2 11 -5 18 q-1 3 2 2 q2 -1 6 -2 q7 -3 10 -5 q33 2 60 7 q9 2 18 6 q3 2 5 0 q6 -4 12 -10 q2 -1 0 -5 q-7 -15 -13 -38 q3 -2 5 -5 q4 -4 -2 -6 q-31 -3 -55 -5 q6 -3 13 -9 q1 -2 1 -5 q-1 -9 -6 -23 q5 1 15 2 q12 2 18 3 q13 2 18 8 q3 4 7 1 q10 -5 16 -11 q3 -2 0 -7 q-5 -7 -10 -20 q-11 -41 -19 -63 q-4 -15 -14 -25 q-7 -4 -9 1 q-10 22 -17 31 q-3 4 -2 5 q1 1 6 0 q5 -3 11 -4 q7 -2 11 7 q11 22 17 59 q2 9 -7 7 q-14 0 -44 -5 q-1 -5 -4 -11 q-26 -73 -91 -90 q-3 -1 -3 1 q0 1 2 2 q54 32 76 89 q1 1 1 4 q1 2 1 3 q-34 -6 -46 -8 q-6 -2 -10 1 q-2 1 -10 9 q-1 2 -1 2 q1 1 2 1 q11 0 54 5 q9 1 14 1 q5 21 3 38 q-3 0 -7 -1 q-4 0 -6 0 q0 -1 -1 -2 q-1 -4 -2 -5 ZM160 177 q-8 0 -43 -4 q-16 -1 -22 -2 q1 -5 2 -15 q3 -15 4 -22 q17 1 56 6 q4 14 6 35 q0 2 -3 2 Z" /><glyph glyph-name="" unicode="&#x53ea;" d="M99 91 q1 -7 -16 3 q-3 2 -3 7 q3 15 -1 39 q-4 20 -13 31 q-3 3 -2 4 q1 1 5 -1 q6 -2 15 -6 q50 3 75 7 q10 2 16 6 q6 3 8 0 q5 -5 10 -11 q3 -3 0 -10 q-1 -2 -4 -8 q-11 -22 -16 -33 q1 0 2 0 q1 -1 1 -1 q1 -1 4 -6 q2 -3 3 -4 q2 -3 2 -5 q0 -1 -3 -1 q-41 0 -84 -4 q1 -4 1 -7 ZM163 164 q-26 -1 -70 -6 q2 -3 2 -8 q0 -2 1 -7 q2 -23 2 -35 q7 1 21 2 q24 2 30 3 q5 0 8 1 q6 19 12 43 q1 8 -6 7 ZM23 -4 q-6 -1 -7 0 q0 1 5 4 q51 24 70 58 q4 8 3 16 q-1 4 0 5 q0 0 4 -1 q8 -5 15 -11 q4 -5 0 -10 q-26 -49 -90 -61 ZM215 18 q-1 -1 -2 -3 q-6 -9 -9 -11 q-3 -2 -4 -2 q-2 0 -3 4 q-13 33 -49 65 q-3 3 -2 5 q0 1 4 0 q32 -16 64 -45 q7 -4 1 -13 Z" /><glyph glyph-name="" unicode="&#x53eb;" d="M112 56 q-4 3 1 6 q5 1 15 5 q6 2 9 3 q0 23 -2 46 q0 4 0 6 q-2 21 -8 32 q-2 3 -1 4 q1 1 4 0 q5 -2 12 -6 q3 -1 4 -2 q4 -2 4 -10 q2 -34 0 -65 q19 7 43 18 q0 57 -1 74 q0 23 -6 36 q-2 4 -2 5 q1 1 5 -1 q1 0 3 -1 q11 -6 18 -11 q4 -3 1 -7 q-3 -12 -3 -31 q0 -172 -3 -186 q-1 -4 -2 -4 q-1 -1 -5 2 q-5 3 -9 10 q-1 2 0 8 q2 13 4 93 q-37 -14 -63 -31 q-2 -2 -7 0 q-5 2 -11 7 ZM99 80 q-21 -1 -45 -4 q0 -16 -1 -21 q0 -2 -2 -3 q-2 -1 -3 1 q-4 5 -6 9 q-3 4 -2 7 q-1 47 -12 69 q-3 3 2 2 q3 0 8 -2 q5 -1 7 -2 q0 -1 2 -1 q8 0 25 2 q3 1 5 1 q3 1 8 2 q4 1 8 2 q4 2 7 -1 q3 -3 9 -9 q2 -2 -1 -6 q-6 -8 -12 -36 q1 0 1 -1 q1 -1 1 -1 q5 -7 1 -8 ZM50 126 q0 -3 1 -11 q2 -19 2 -29 q5 1 14 2 q10 1 14 1 q0 1 1 4 q4 24 5 32 q1 4 -4 4 q-11 0 -28 -2 q-4 -1 -5 -1 Z" /><glyph glyph-name="" unicode="&#x53ef;" d="M15 171 q29 -2 49 -1 q39 0 119 9 q19 2 38 7 q3 2 8 -1 q7 -3 16 -11 q2 -2 1 -3 q0 -1 -2 -1 q-21 -1 -71 -4 q-9 -1 -14 -1 q2 -1 6 -3 q9 -4 12 -6 q4 -3 4 -9 q-2 -20 -2 -41 q0 -50 0 -92 q0 -20 -10 -36 q-3 -5 -7 0 q-3 3 -9 10 q-12 14 -18 20 q-1 4 2 4 q4 0 18 -2 q3 0 5 3 q3 15 3 38 q2 37 0 68 q0 27 -7 45 q0 1 0 1 q-7 0 -20 -1 q-41 -3 -60 -5 q-24 -3 -7 -1 q-17 -2 -37 -4 q-4 -2 -8 2 q-1 1 -4 5 q-4 4 -7 7 q-1 1 -1 2 q1 1 3 1 ZM79 51 q-3 -4 -7 0 q-3 4 -4 9 q-1 2 -1 4 q0 26 -2 44 q0 10 -4 21 q0 3 2 2 q8 -3 15 -6 q4 0 12 1 q13 1 17 2 q13 1 19 6 q1 0 2 0 q2 1 3 -1 q5 -4 11 -10 q2 -2 0 -4 q-5 -10 -12 -40 q3 -3 6 -6 q3 -5 -2 -6 q-28 0 -51 -3 q0 -6 -4 -13 ZM120 119 q-13 0 -39 -2 q0 -15 2 -43 q3 0 9 1 q17 2 24 2 q3 20 5 40 q1 3 -1 2 Z" /><glyph glyph-name="" unicode="&#x5408;" d="M94 -22 q0 -3 -4 -2 q-1 0 -2 0 q-4 1 -7 4 q-2 1 -2 3 q0 20 -2 52 q-2 19 -4 24 q0 3 2 2 q9 -4 15 -8 q40 2 55 4 q15 2 22 5 q3 2 4 0 q1 -1 3 -3 q6 -5 8 -9 q2 -1 1 -4 q-8 -11 -14 -41 q1 0 2 -1 q4 -3 7 -7 q4 -5 -1 -6 q-29 0 -45 0 q-18 -1 -35 -2 q0 -1 -1 -4 q-1 -5 -2 -7 ZM116 203 q10 -3 21 -12 q5 -3 -1 -9 q-1 -1 -2 -3 q-1 -2 -2 -3 q13 -11 32 -30 q50 -48 86 -61 q3 -1 3 -3 q0 -1 -3 -1 q-17 -4 -32 -3 q-5 -1 -8 3 q-23 22 -47 49 q-16 20 -36 40 q-4 -6 -9 -14 q-44 -69 -109 -95 q-5 -2 -1 2 q66 48 101 111 q10 18 5 27 q-2 3 2 2 ZM158 48 q-5 0 -17 -1 q-31 -2 -47 -3 q2 -23 2 -44 q35 0 58 3 q5 32 5 43 q1 2 -1 2 ZM161 105 q3 0 5 -1 q1 -1 4 -6 q2 -3 2 -3 q2 -3 -3 -3 q-44 0 -78 -9 q-4 0 -5 2 q-4 4 -6 10 q-2 2 1 2 q50 0 80 8 Z" /><glyph glyph-name="" unicode="&#x540c;" d="M46 185 q4 -1 14 -6 q5 0 10 0 q3 0 8 1 q66 5 91 9 q17 2 26 7 q5 3 8 0 q10 -10 12 -14 q2 -2 0 -8 q-1 -2 -1 -8 q-1 -7 -1 -9 q-2 -41 -2 -86 q0 -43 1 -71 q0 -5 -1 -13 q-4 -11 -10 -18 q-6 -7 -10 -1 q-3 6 -12 20 q-3 6 -4 8 q-2 3 -1 4 q0 2 2 1 q4 -2 10 -2 q7 -1 7 8 q2 18 2 79 q0 56 -1 83 q0 11 -9 10 q-64 -4 -100 -11 q-7 -1 -14 0 q0 0 -1 1 q-1 0 -2 0 q0 0 0 -1 q0 -79 -5 -174 q0 -10 -4 -19 q-2 -6 -8 -1 q-4 3 -8 9 q0 -1 -1 1 q-3 4 0 10 q5 8 6 21 q7 68 5 123 q-1 35 -9 44 q-1 2 -1 3 q1 1 3 0 ZM161 46 q-26 0 -48 -3 q-1 -15 -4 -22 q-2 -3 -5 -1 q-7 5 -6 12 q2 49 -6 69 q-1 2 -1 3 q0 0 3 0 q2 -1 6 -2 q3 -1 6 -2 q1 -1 2 -2 q4 1 12 2 q12 2 24 5 q7 1 9 4 q4 3 6 0 q5 -3 12 -10 q0 0 0 -1 q2 -2 0 -5 q-6 -8 -12 -37 q2 0 2 -2 q5 -8 0 -8 ZM145 94 q-10 0 -34 -5 q0 -6 1 -18 q0 -12 1 -18 q5 0 16 1 q11 1 15 1 q5 25 5 35 q2 4 -4 4 ZM163 136 q-16 0 -64 -7 q-6 -3 -10 7 q-1 2 0 2 q0 0 2 1 q39 1 64 9 q3 2 5 0 q3 -3 6 -8 q1 -3 0 -3 q0 -1 -3 -1 Z" /><glyph glyph-name="" unicode="&#x540d;" d="M129 202 q2 -2 8 -6 q9 -7 12 -10 q4 -3 0 -5 l-5 -7 q1 0 1 0 q2 -1 7 -1 q1 0 2 0 q2 0 8 2 q19 4 26 6 q4 0 5 -1 q4 -2 11 -9 q4 -3 1 -8 q-38 -52 -93 -90 l7 -3 q17 0 45 4 q18 1 29 8 q3 0 5 -1 q6 -3 19 -11 q4 -4 1 -8 q-7 -10 -18 -48 q-1 -3 -1 -4 q3 -3 5 -7 q2 -3 1 -5 q0 -2 -4 -2 q-33 1 -76 -2 l0 -2 q0 -8 -7 -18 q-3 -3 -6 1 q-3 4 -5 11 q-1 3 -1 5 q2 27 -1 53 q0 10 -3 22 q-42 -29 -89 -44 q-3 -1 -4 2 q-1 2 2 3 q69 33 125 85 q-2 1 -5 4 q-4 2 -6 3 q-3 3 -4 5 q0 6 -2 12 q-1 3 2 2 q14 -6 26 -16 q19 21 34 42 q2 3 -1 4 q-5 -1 -18 -2 q-6 -1 -9 -1 q-1 0 -3 0 q-5 5 -6 7 q-1 1 -1 1 q-51 -59 -103 -73 q-2 -1 -3 1 q0 2 2 3 q58 32 79 72 q7 11 7 24 q1 4 4 2 ZM189 64 q-9 0 -30 -2 q-25 -1 -36 -2 q1 -14 1 -55 q12 1 40 3 q13 1 18 1 q8 36 10 51 q2 4 -3 4 Z" /><glyph glyph-name="" unicode="&#x540e;" d="M109 -25 q-1 -2 -2 -2 q-2 0 -3 2 q-3 3 -5 11 q0 2 0 4 q1 15 -1 50 q0 1 0 4 q-2 17 -5 24 q-1 2 0 3 q2 0 3 -1 q5 -1 15 -6 q2 0 8 1 q23 1 32 3 q20 1 27 8 q3 1 5 -1 q8 -4 18 -11 q4 -4 1 -8 q-5 -10 -16 -47 q-1 -3 -2 -5 q3 -3 5 -5 q3 -3 2 -5 q-1 -2 -5 -1 q-30 1 -71 -2 q0 -8 -6 -16 ZM163 205 q10 -4 17 -11 q5 -4 0 -8 q-48 -21 -91 -32 q-1 -20 -3 -38 q66 2 110 12 q8 1 11 4 q6 3 10 -1 q1 -1 3 -4 q5 -6 7 -8 q2 -4 -4 -4 q-53 -2 -132 -12 q-2 -2 -7 5 q-11 -90 -69 -126 q-2 -1 -3 0 q-1 2 1 4 q51 53 58 151 q2 16 -8 31 q-1 2 -1 3 q1 1 3 0 q9 -3 21 -9 q1 -1 1 -1 q39 14 58 27 q7 7 11 15 q1 6 7 2 ZM175 58 q-8 0 -28 -2 q-23 -1 -33 -2 l1 -52 q3 0 9 0 q32 2 44 4 q5 20 9 48 q1 4 -2 4 Z" /><glyph glyph-name="" unicode="&#x5426;" d="M77 -11 q-2 2 -1 7 q5 20 0 47 q-1 5 -5 12 q-2 3 -3 5 q-2 2 -1 3 q1 1 5 0 q1 0 9 -2 q5 -2 6 -2 q2 0 4 -2 q33 2 61 7 q16 3 19 5 q6 2 9 -2 q9 -9 12 -13 q3 -3 1 -6 q-10 -16 -16 -34 q7 -7 8 -9 q1 -3 1 -4 q0 -1 -3 -1 q-39 -1 -89 -6 q0 -6 0 -11 q0 -5 -6 -2 q-1 1 -4 3 q-4 3 -7 5 ZM137 138 q0 -11 0 -40 q0 -14 -2 -31 q-1 -5 -6 -2 q-3 2 -10 9 q-3 4 0 10 q2 1 2 32 l0 8 q-41 -39 -115 -48 q-4 -1 -5 0 q0 2 4 3 q70 21 109 62 l3 3 q-2 7 -5 10 q-2 4 -2 5 q1 1 4 -1 q0 0 1 0 q4 -1 9 -5 q9 12 10 21 q-45 -4 -77 -10 q-7 -1 -11 4 q-1 1 -3 4 q-4 4 -5 7 q-2 2 -1 3 q0 1 3 0 q10 -3 28 -3 q11 1 40 3 q52 3 66 4 q24 3 33 7 q5 2 7 -2 q3 -2 9 -11 q2 -2 1 -4 q-2 -1 -5 0 q-16 0 -45 0 q-5 -1 -16 -1 q-11 -1 -17 -1 q5 -5 8 -8 q4 -5 1 -9 q-3 -4 -9 -11 q-3 -3 -4 -5 q0 -1 0 -3 ZM162 54 q-27 -3 -69 -8 q1 -13 1 -42 q4 0 14 1 q43 4 50 6 q1 0 2 0 q8 21 9 38 q0 6 -7 5 ZM170 133 q-3 2 -2 3 q0 1 4 0 q22 -11 48 -27 q10 -5 7 -14 q-4 -13 -7 -18 q-2 -3 -3 -3 q-2 0 -3 4 q-15 29 -44 55 Z" /><glyph glyph-name="" unicode="&#x5427;" d="M124 42 q2 -24 27 -29 q32 -5 60 1 q14 4 20 13 q5 6 14 26 q1 4 3 4 q1 0 1 -4 q-2 -36 -4 -48 q-2 -10 -11 -10 q-4 0 -12 0 q-47 -1 -69 2 q-38 4 -43 44 q-1 14 -2 49 q0 39 1 73 q0 6 5 4 q2 -2 7 -4 q3 -1 4 -2 q1 -1 2 -2 q24 3 50 9 q14 3 19 6 q4 3 7 0 q1 -1 3 -2 q8 -9 9 -11 q3 -3 0 -7 q-9 -17 -18 -48 l1 -1 q6 -4 8 -9 q2 -2 1 -3 q0 -1 -3 -1 q-16 1 -81 -6 q0 -33 1 -44 ZM89 82 q-9 0 -41 -6 q0 -3 -1 -7 q0 -4 0 -5 q0 -5 -7 -2 q-2 3 -5 5 q-1 3 -1 9 q2 38 -6 65 q-1 2 0 3 q1 0 3 -1 q7 -4 11 -7 q3 0 10 1 q11 2 21 4 q2 1 5 2 q2 1 5 2 q4 4 6 0 q8 -8 9 -11 q2 -2 0 -5 q-7 -14 -13 -37 q3 1 4 -2 q6 -8 0 -8 ZM183 157 q-2 0 -6 -1 q-8 -1 -13 -2 q-2 -20 -4 -54 q2 0 5 1 q11 2 17 4 q0 2 1 7 q5 28 6 41 q2 5 -6 4 ZM148 152 q-7 -1 -18 -3 q-3 -1 -4 -1 q-3 -30 -3 -52 q13 2 23 3 q2 20 2 53 ZM73 131 q-4 -1 -25 -3 q0 -2 0 -2 q2 -17 0 -40 q4 1 11 2 q8 1 11 1 q7 29 8 39 q1 3 -5 3 Z" /><glyph glyph-name="" unicode="&#x548c;" d="M142 121 q-4 -1 -14 -2 q-10 -2 -15 -3 q0 -4 0 -8 q15 -10 28 -20 q5 -2 2 -10 q-1 -5 -4 -13 q-2 -5 -3 -7 q-2 -3 -4 -2 q-2 0 -3 4 q-3 21 -16 43 q0 -8 0 -5 q-2 -54 -4 -81 q-1 -22 -6 -31 q-3 -4 -6 0 q-6 11 -19 20 q-3 2 -3 3 q0 2 3 2 q6 0 11 0 q5 1 5 3 q6 30 6 81 q-38 -58 -92 -70 q-5 -1 -6 0 q0 2 5 4 q48 23 87 83 q-20 -3 -51 -10 q-2 -2 -5 1 q-1 1 -6 8 q-1 3 2 3 q19 0 65 10 l0 14 q0 12 -4 19 q-4 -1 -11 -4 q-12 -4 -18 -5 q-4 -1 -5 0 q-1 1 3 3 q27 13 45 26 q7 6 5 18 q-1 3 0 4 q1 1 3 -1 q8 -4 17 -15 q5 -6 0 -10 q-14 -7 -32 -13 q2 -1 5 -3 q4 -2 5 -3 q3 -1 2 -7 l0 -20 q4 1 9 3 q7 1 10 2 q2 2 5 0 q3 -3 5 -7 q1 -2 1 -3 q0 -1 -2 -1 ZM166 32 q0 -2 -1 -2 q0 -1 -3 0 q-6 4 -9 8 q-2 2 -1 5 q2 5 2 28 q0 22 -1 37 q0 9 -2 15 q0 3 2 2 q1 0 2 -1 q4 -1 5 -2 q11 1 49 7 q6 1 13 3 q-1 0 1 1 q3 2 7 0 q5 -5 10 -10 q3 -3 -1 -9 q-3 -4 -6 -15 q-4 -16 -13 -43 q2 -3 6 -7 q2 -3 1 -4 q0 -1 -3 -1 q-26 1 -57 -2 l-1 -10 ZM212 118 q-16 0 -44 -4 q0 -12 -1 -35 q0 -19 0 -27 q11 0 27 2 q7 2 13 3 q1 3 2 10 q7 33 9 44 q2 7 -6 7 Z" /><glyph glyph-name="" unicode="&#x56de;" d="M193 -3 q-2 14 -9 24 q-33 1 -118 -7 q0 -10 0 -19 q0 -7 -3 -5 q-6 1 -11 5 q-4 4 -4 15 q3 60 -5 140 q0 1 -1 5 q-2 12 -4 16 q-1 2 1 3 q1 1 3 0 q2 -1 5 -4 q7 -4 10 -8 q70 3 125 9 q16 1 25 8 q4 3 7 0 q8 -5 12 -10 q3 -1 1 -6 q-4 -11 -5 -21 q-4 -78 -11 -124 q-3 -13 -11 -23 q-3 -3 -4 -2 q-2 0 -3 4 ZM61 151 q0 -7 1 -27 q3 -66 4 -99 q26 2 76 6 q32 3 36 3 q1 0 3 -1 q5 0 7 -2 q6 1 7 10 q0 2 1 7 q8 68 6 104 q1 8 -6 7 q-44 0 -135 -8 ZM154 127 q5 1 9 -2 q5 -4 8 -9 q3 -2 1 -4 q-8 -15 -13 -34 q1 -1 2 -3 q1 -2 2 -3 q1 -1 -2 -2 q-21 0 -49 -3 q0 -4 1 -9 q0 -6 -6 -3 q-6 3 -8 6 q-1 1 -1 4 q1 33 -6 58 q-2 4 2 2 q1 -1 4 -2 q6 -3 8 -4 q34 2 48 8 ZM149 115 q-21 -2 -40 -4 q1 -7 3 -29 q-1 3 0 -7 q9 1 28 3 q4 1 6 1 q4 16 7 31 q1 6 -4 5 Z" /><glyph glyph-name="" unicode="&#x56f0;" d="M188 192 q4 3 7 0 q0 0 1 -1 q13 -10 19 -17 q4 -5 0 -8 q-5 -8 -5 -28 q-1 -43 1 -130 q1 -19 -9 -33 q-2 -3 -4 -2 q-2 0 -3 3 q-2 17 -9 28 q-24 2 -124 -7 q-2 -11 -5 -19 q-2 -4 -6 -1 q-4 4 -8 12 q-1 5 0 12 q14 76 7 159 q-2 15 -5 23 q-2 4 -1 4 q1 1 5 -1 q9 -3 14 -9 q28 2 106 10 q1 0 4 1 q9 1 15 4 ZM137 158 q3 -1 2 -6 q-2 -9 -2 -25 q2 1 5 1 q4 1 5 1 q11 1 16 4 q5 2 6 -1 q2 -2 5 -8 q1 -2 1 -2 q-1 -1 -2 -1 q-10 0 -36 -2 q0 -9 -1 -18 q22 -9 43 -24 q2 -1 2 -4 q0 -1 0 -2 q-2 -9 -4 -13 q-3 -3 -4 0 q-15 18 -37 38 q0 -22 0 -42 q0 -16 -8 -32 q-4 -4 -7 0 q-2 10 -8 22 q-1 2 -1 2 q1 1 2 1 q7 -1 7 3 q2 22 2 46 q-20 -33 -58 -45 q-2 -25 0 -6 q-2 -19 -2 -39 q103 10 114 9 q9 1 12 -7 q4 2 4 29 q0 101 -3 129 q0 13 -15 11 q-48 -3 -88 -8 q-1 0 -3 0 q-9 -2 -16 -1 q1 -19 -3 -113 q39 25 57 62 q-22 -2 -30 -4 q-3 0 -4 1 q-1 1 -3 6 q-1 1 -1 2 q-1 3 3 2 q22 0 36 2 q0 6 -1 12 q0 13 -3 24 q-1 2 0 3 q1 0 3 -1 q3 -1 10 -4 q3 -1 5 -2 Z" /><glyph glyph-name="" unicode="&#x5728;" d="M175 163 q18 2 30 6 q7 2 10 -2 q1 -1 3 -4 q5 -6 6 -8 q2 -3 2 -4 q-1 -1 -5 -1 q-3 0 -10 0 q-13 1 -19 1 q-30 0 -70 -3 q-13 -35 -30 -59 q2 -48 0 -97 q-1 -9 -5 -14 q-5 -6 -8 -5 q-3 0 -5 7 q-2 6 -2 12 q5 29 7 81 q-28 -31 -71 -43 q-6 -1 -6 0 q0 1 6 4 q61 33 89 94 q1 3 4 9 q2 6 3 9 q-38 -4 -53 -7 q-5 0 -8 2 q-4 5 -7 11 q-1 2 0 2 q0 1 2 1 q23 -1 69 2 q6 26 5 49 q0 3 1 3 q1 1 4 -1 q2 -1 8 -6 q5 -4 7 -6 q5 -4 3 -9 q-4 -15 -9 -29 q9 1 27 3 q14 1 22 2 ZM115 78 q-1 2 -1 3 q1 1 4 1 q5 -1 19 0 q8 0 12 0 q0 5 -1 15 q0 10 0 14 q0 10 -3 23 q-3 5 -2 6 q0 1 5 -1 q3 -1 12 -7 q3 -3 5 -4 q4 -2 2 -10 q-3 -14 -3 -35 q2 0 7 1 q9 0 12 2 q10 2 13 3 q2 2 4 0 q0 1 1 0 q1 -1 4 -5 q2 -4 3 -6 q1 -2 0 -3 q-1 -1 -3 0 q-25 0 -41 -2 q0 -20 0 -55 q31 2 39 3 q9 2 14 4 q3 2 5 -1 q1 -1 6 -8 q1 -3 2 -4 q1 -3 1 -4 q-1 -1 -4 -1 q-17 2 -59 1 q-40 -2 -57 -5 q-2 -1 -4 1 q-1 1 -2 1 q0 0 -2 3 q-3 4 -4 5 q-1 4 3 4 q14 -1 45 0 q1 7 1 27 q1 18 1 28 q-12 -1 -21 -3 q-4 0 -6 2 q-4 3 -7 7 Z" /><glyph glyph-name="" unicode="&#x590f;" d="M43 193 q9 -3 27 -2 q62 3 105 8 q18 2 32 6 q4 3 7 -1 q2 -2 5 -7 q3 -3 4 -4 q1 -3 0 -4 q-2 -1 -5 0 q-25 0 -44 -1 q-15 0 -50 -4 q26 4 -3 0 q5 -2 7 -4 q3 -1 1 -3 q-2 -4 -9 -15 q-1 -2 -2 -3 q11 2 20 3 q2 0 5 1 q12 2 16 4 q3 2 5 0 q7 -7 9 -8 q2 -1 0 -6 q-3 -8 -3 -19 q1 -7 0 -33 q0 -6 0 -7 q-3 -15 -7 -16 q-5 0 -15 14 q-6 -1 -29 -2 q-17 -1 -23 -1 q0 -2 0 -2 q-1 -5 -5 -4 q-6 3 -8 5 q-3 3 -2 7 q5 39 0 63 q-1 2 0 3 q1 1 3 0 q3 0 9 -2 q1 -1 2 -1 q1 0 1 -1 l11 1 q8 18 6 26 q-27 -3 -54 -8 q-7 -2 -10 3 q-2 2 -5 6 q-3 3 -4 4 q-1 3 0 4 q0 1 3 0 ZM156 74 q1 0 5 -3 q4 -3 5 -4 q0 0 0 -1 q3 -3 1 -6 q-12 -22 -27 -39 q26 -18 55 -31 q16 -8 44 -11 q4 0 5 -2 q0 -2 -4 -4 q-5 -1 -18 -4 q-13 -3 -19 -4 q-6 -1 -11 3 q-38 25 -61 44 q-31 -30 -83 -44 q-8 -2 -9 -1 q-1 2 6 6 q47 21 74 49 q-14 11 -25 22 q-17 -20 -42 -34 q-4 -3 -5 -2 q0 2 4 5 q26 24 40 51 q4 5 3 14 q-1 3 0 4 q1 1 4 0 q3 -2 13 -7 q4 -3 1 -7 l-2 -2 q5 1 14 2 q10 1 14 1 q0 0 1 0 q8 2 11 5 q3 2 5 0 q0 1 1 0 ZM137 122 q4 1 5 -2 q2 -3 2 -5 q0 -1 -3 -1 q-3 0 -23 -2 q-16 -2 -21 -2 l-1 -13 q35 3 44 5 q7 2 10 -6 q4 -1 4 3 q1 9 1 52 q-1 3 -4 3 q-11 0 -54 -4 q0 -6 0 -13 q15 1 39 5 q4 1 5 -3 q2 -3 2 -5 q0 -1 -3 -1 q-21 -1 -43 -4 q0 -6 0 -12 q4 1 13 2 q23 3 27 3 ZM105 57 q-1 -1 -2 -3 q-2 -2 -3 -3 q12 -10 27 -21 q11 12 17 26 q2 3 1 4 q0 1 -4 0 q-9 0 -29 -2 q-5 -1 -7 -1 Z" /><glyph glyph-name="" unicode="&#x591f;" d="M111 153 q4 3 8 0 q4 -4 8 -8 q3 -2 1 -6 q0 0 0 -1 q-4 -3 -5 -25 q-6 -70 -10 -93 q-4 -19 -16 -29 q-6 -1 -6 3 q-1 15 -15 21 q-1 1 -1 2 q0 1 2 1 q20 -4 20 7 q7 31 11 109 q0 4 -1 5 q-2 1 -6 0 q-22 -3 -37 -9 q-3 -1 -5 1 q0 -1 -1 0 q0 1 -2 2 q-1 2 -2 4 q-18 -23 -38 -34 q-1 -1 -3 0 q-1 1 0 2 q31 32 47 72 q6 16 5 29 q-1 2 0 3 q1 0 3 -1 q12 -7 16 -11 q4 -3 1 -7 q-12 -27 -28 -49 q35 4 54 12 ZM163 41 q-1 2 0 3 q1 1 2 0 q11 -4 19 -10 q15 15 23 30 q2 3 0 5 q-4 3 -7 5 q-2 3 1 3 q9 2 18 7 q2 2 4 0 q1 -1 2 -4 q5 -7 6 -8 q2 -4 0 -5 q-10 -14 -36 -41 q3 -3 5 -6 q3 -3 2 -8 q-3 -8 -7 -13 q-3 -4 -5 0 q-1 1 -2 4 q-1 2 -5 10 q-42 -37 -100 -43 q-2 0 -3 2 q0 1 2 2 q55 16 90 49 l3 2 q-4 7 -12 16 ZM44 45 q-1 -3 -3 -1 q-4 4 -5 14 l-1 28 q0 9 -4 15 q0 4 2 3 q6 -2 12 -5 q18 3 29 9 q3 0 4 0 q6 -4 10 -10 q2 -1 1 -3 q-4 -6 -9 -29 q3 -1 4 -4 q2 -2 1 -3 q0 -1 -3 -2 q-13 0 -32 -2 q2 0 -3 0 q0 -6 -3 -10 ZM174 137 q3 0 4 -2 l3 -4 q9 10 19 25 q2 5 -1 6 q-6 0 -12 0 q-3 0 -7 5 q0 3 2 2 q2 -1 9 -1 q11 2 20 7 q3 2 4 0 q1 -1 3 -3 q5 -4 6 -6 q3 -3 0 -5 q-2 -2 -7 -8 q-11 -13 -16 -19 q-27 -39 -76 -51 q-2 -1 -3 1 q0 2 2 3 q28 16 45 32 q-3 11 -11 18 q-1 2 -1 2 q0 1 1 1 q9 0 16 -3 ZM196 113 q1 -1 4 -5 q5 -8 7 -10 q2 -3 -1 -4 q-37 -48 -81 -52 q-2 0 -3 2 q0 1 2 2 q40 18 59 44 q9 11 10 22 q0 2 1 2 q1 0 2 -1 ZM181 212 q5 -4 13 -17 q3 -2 0 -5 q-23 -41 -62 -54 q-2 -1 -3 1 q0 2 2 3 q27 18 40 44 q9 13 7 28 q-1 1 1 2 q1 -1 2 -2 ZM69 95 q-9 -3 -22 -4 q0 -15 0 -28 q2 0 7 1 q10 1 14 2 q1 5 3 18 q1 7 1 9 q0 2 -3 2 Z" /><glyph glyph-name="" unicode="&#x5927;" d="M37 107 q-2 2 -1 3 q0 1 3 1 q41 0 77 4 q1 11 1 49 q-2 27 -8 38 q-2 3 -1 3 q2 1 5 0 q2 -1 7 -3 q11 -5 15 -8 q5 -2 3 -7 q-3 -12 -3 -31 q0 -9 -1 -30 q-1 -7 -1 -10 q27 4 39 6 q13 1 21 6 q4 3 7 1 q7 -7 13 -15 q3 -5 -4 -5 q-19 1 -77 -3 q0 -1 0 -3 q-1 -2 -1 -3 q0 -3 0 -4 q31 -44 56 -69 q22 -21 58 -33 q5 -1 5 -3 q-1 -2 -6 -3 q-5 -1 -23 -2 q-12 -1 -17 -1 q-8 0 -11 4 q-27 32 -65 89 q-16 -74 -93 -98 q-9 -2 -10 -1 q0 1 8 5 q74 39 81 113 q1 4 1 7 q-42 -3 -60 -8 q-6 -2 -9 2 q0 0 -1 1 q-6 6 -8 8 Z" /><glyph glyph-name="" unicode="&#x5929;" d="M193 121 q4 2 7 -1 q6 -9 7 -11 q1 -2 0 -3 q-1 -2 -3 -1 q-12 2 -31 0 q-8 -1 -26 -2 q-9 -1 -13 -1 q0 -2 -1 -6 q-1 -5 -2 -7 q25 -34 60 -63 q21 -18 60 -25 q2 -1 2 -3 q0 -1 -2 -1 q-21 -4 -42 -6 q-9 -1 -13 4 q-28 30 -68 80 q-20 -66 -100 -82 q-7 -1 -8 0 q0 1 7 4 q79 29 90 104 q-33 -3 -57 -7 q-3 -2 -5 1 q-3 3 -7 10 q-1 2 0 2 q0 1 2 1 q32 0 69 3 l1 8 q2 22 -1 39 q-1 2 0 3 q1 1 3 0 q10 -5 14 -8 q2 -2 2 -8 q0 -15 -3 -32 q49 4 58 8 ZM181 182 q3 1 5 -2 q5 -6 6 -10 q0 -3 -3 -3 q-56 0 -109 -9 q-2 0 -5 2 q-1 1 -3 5 q-3 2 -4 4 q1 3 3 3 q77 1 110 10 Z" /><glyph glyph-name="" unicode="&#x5931;" d="M113 203 q11 -4 21 -10 q4 -3 4 -7 q0 -5 0 -18 q-1 -19 -1 -29 l8 1 q4 1 13 3 q11 2 16 3 q3 2 5 -1 q4 -3 8 -9 q0 1 1 -1 q2 -3 -2 -4 q-10 -1 -44 -3 q3 0 -6 0 q0 -5 -1 -15 q0 -10 -1 -15 l-2 -10 q41 5 66 10 q5 0 8 -1 q5 -6 8 -13 q1 -4 -4 -4 q-37 0 -75 -4 q18 -26 36 -47 q15 -16 31 -27 q15 -10 39 -21 q2 -1 2 -2 q0 -2 -2 -2 q-24 -3 -47 -5 q-3 0 -6 3 q-33 45 -61 89 q-20 -72 -105 -97 q-3 -1 -4 1 q0 1 2 3 q68 34 88 87 q2 9 5 16 q-45 -4 -60 -7 q-3 0 -4 1 q-5 5 -9 11 q-2 3 1 3 q26 0 74 5 q4 18 4 39 q-24 -2 -32 -3 q-3 0 -4 2 l-2 2 q-15 -20 -39 -29 q-3 0 -1 2 q22 17 36 54 q3 13 2 21 q0 3 3 2 q3 -1 8 -5 q6 -3 8 -5 q1 -1 1 -4 q-6 -15 -12 -27 q15 0 32 2 q1 3 1 6 q0 37 -9 57 q-3 4 2 2 Z" /><glyph glyph-name="" unicode="&#x5982;" d="M132 185 q0 2 1 2 q1 1 2 0 q6 -6 11 -12 q3 -2 1 -8 q-8 -45 -20 -79 q-10 -29 -25 -50 q20 -15 28 -28 q5 -7 3 -13 q-1 -5 -6 -11 q-2 -2 -3 -2 q-2 0 -3 3 q-8 17 -28 40 q-27 -31 -87 -50 q-4 -1 -5 1 q0 1 3 3 q57 28 80 56 q-8 8 -16 16 l-4 -7 q-1 -3 -4 -1 q-3 1 -8 6 q-1 2 0 4 q12 20 21 50 q-5 -1 -14 -3 q-20 -5 -30 -9 q-5 -2 -6 1 q-3 2 -11 12 q-1 4 2 4 q33 2 62 6 q12 40 17 88 q0 2 1 3 q1 0 3 -1 q1 -1 5 -4 q4 -4 6 -6 q1 -1 1 -6 q-8 -40 -17 -72 q17 1 30 4 q8 38 10 63 ZM175 30 q-1 -13 -3 -20 q-2 -4 -4 -4 q-2 0 -4 4 q-4 6 -4 14 q0 34 -3 80 q0 8 -4 13 q-1 2 -1 3 q1 1 4 0 q6 -2 12 -7 q14 1 40 5 q11 2 18 5 q2 2 6 0 q0 0 1 0 q6 -4 12 -12 q4 -3 1 -6 q-11 -18 -21 -52 q2 -1 6 -6 q5 -5 6 -7 q2 -2 1 -3 q0 -1 -3 -1 q-17 2 -60 0 q0 -3 0 -6 ZM217 105 q-16 1 -44 -1 q2 -19 2 -57 q3 0 9 1 q12 1 17 2 q5 0 9 1 q8 32 10 50 q1 5 -3 4 ZM89 108 q-9 -28 -19 -51 q11 -5 20 -11 q14 18 23 45 q0 1 2 5 q2 5 5 17 q-5 -1 -15 -2 q-11 -2 -16 -3 Z" /><glyph glyph-name="" unicode="&#x59cb;" d="M120 148 q1 -1 1 -4 q0 -2 -1 -7 q-4 -24 -6 -37 q-5 -33 -16 -55 q14 -10 18 -15 q5 -5 1 -24 q0 -2 -1 -3 q-2 0 -3 2 q-9 16 -22 28 q-23 -35 -81 -47 q-2 0 -3 2 q-1 2 1 3 q53 18 73 51 q-5 5 -15 14 q-3 3 -5 4 q-3 -5 -7 -8 q-4 -2 -5 3 q0 4 2 16 q1 3 2 8 q2 6 5 24 q-21 -4 -40 -9 q-5 0 -6 1 q-2 2 -6 8 q2 -4 -2 2 q-1 2 2 3 q15 0 33 3 l21 3 q2 10 5 30 q1 7 2 10 q3 26 -1 41 q0 3 1 3 q1 1 3 -1 q10 -5 16 -13 q4 -3 2 -7 l-13 -61 l27 4 q1 21 1 39 q0 2 1 2 q1 0 2 -1 q8 -6 14 -12 ZM152 -25 q-3 -3 -6 1 q0 1 -1 2 q-3 4 -4 7 q0 2 0 5 q1 20 -2 50 q-3 23 -7 31 q-1 2 2 3 q2 -1 4 -1 q8 -3 12 -5 q3 0 9 1 q21 1 27 2 q15 1 22 6 q3 0 5 -1 q7 -3 13 -10 q2 -1 1 -4 q-8 -14 -17 -52 q1 -1 2 -2 q1 0 3 -3 q3 -4 -2 -5 q-19 0 -57 -2 l1 -7 q1 -7 -5 -16 ZM202 134 q-2 2 -1 3 q1 1 3 0 q2 -1 4 -3 q19 -14 30 -25 q2 -1 1 -6 q-1 -3 -6 -12 q4 8 -2 -3 q-2 -3 -4 -3 q-2 0 -3 3 q-4 12 -9 21 q-30 -3 -86 -15 q-3 0 -4 1 q-3 6 -6 14 q-1 1 2 2 q2 0 7 0 q6 -1 7 -1 q2 0 2 0 q17 27 26 48 q10 28 9 40 q-1 2 0 2 q1 0 3 -1 q11 -6 17 -12 q2 -1 0 -4 q-21 -43 -40 -71 q32 2 59 6 q-1 3 -4 8 q-3 6 -5 8 ZM203 61 q-3 0 -9 -1 q-26 -1 -41 -3 q0 -13 2 -43 q-2 21 0 -6 q16 1 37 3 q-3 -1 4 0 q1 4 2 12 q4 23 6 36 q0 2 -1 2 ZM64 67 q13 -8 22 -14 q9 18 13 45 l1 11 q-13 -1 -27 -4 l-9 -38 Z" /><glyph glyph-name="" unicode="&#x5b57;" d="M30 52 q-1 1 -2 3 q-4 6 -5 8 q-1 2 -1 3 q1 1 3 1 q6 -2 16 -2 q49 2 88 6 q0 5 0 8 q0 10 -7 18 q-2 1 -1 2 q0 1 3 1 q4 -2 10 -2 q10 12 14 23 q1 3 -2 2 q-30 -2 -56 -9 q-5 -2 -7 3 q-1 1 -3 4 q-2 3 -3 5 q-1 2 0 3 q1 1 4 0 q37 -1 77 9 q3 2 5 -1 q2 -1 6 -6 q1 -1 1 -1 q3 -3 1 -5 q-9 -13 -28 -32 q3 -2 2 -5 q0 -8 0 -16 q15 1 40 4 q12 2 16 2 q19 4 24 7 q5 2 9 -1 q6 -8 9 -14 q2 -4 1 -5 q0 -1 -5 -1 q-8 1 -36 1 q-22 0 -57 -3 q0 -29 0 -53 q-1 -9 -1 -15 q-6 -18 -15 -27 q-4 -5 -6 0 q-6 14 -16 26 q-3 3 -3 4 q1 1 5 0 q4 0 9 0 q9 1 8 9 q2 13 2 54 q-72 -6 -91 -10 q-5 -1 -8 2 ZM64 165 l1 -1 q13 1 42 4 q14 1 21 2 q-8 27 -23 39 q-4 2 -3 3 q0 1 4 0 q13 -2 30 -7 q6 -2 5 -12 q0 -12 0 -22 q10 1 27 3 q6 1 9 1 q17 3 21 5 q6 3 10 -2 q6 -9 14 -23 q3 -8 -3 -8 q-9 0 -31 -2 q-3 0 -3 1 q0 1 1 4 q5 4 6 10 q2 6 -6 5 q-2 0 -7 0 q-76 -6 -113 -12 q-6 -40 -14 -57 q-3 -6 -8 -1 q-4 5 -6 9 q-2 4 1 7 q18 36 9 65 q-3 7 2 2 q2 -2 7 -6 q6 -5 7 -7 Z" /><glyph glyph-name="" unicode="&#x5b66;" d="M146 73 l0 -8 q8 1 22 3 q24 3 31 4 q13 3 24 7 q5 3 9 0 q6 -7 10 -13 q2 -4 0 -5 q-1 -2 -5 -2 q-8 1 -36 1 q-3 0 -12 -1 q-27 -2 -43 -4 q1 -19 1 -51 q0 -9 -2 -14 q-5 -14 -15 -26 q-4 -3 -6 1 q-5 12 -16 24 q-3 2 -3 3 q1 1 5 1 q3 0 9 0 q8 -1 10 8 q2 28 2 52 q-51 -5 -92 -14 q-5 0 -7 3 q-5 5 -8 11 q-1 2 0 3 q1 1 3 0 q4 -1 16 -1 q14 1 56 5 q21 2 31 3 l0 2 q0 10 -7 17 q-1 2 -1 3 q0 1 2 1 q2 0 7 -2 q5 -1 7 -2 q3 5 10 20 q1 2 1 3 q2 2 -3 2 q-30 -4 -54 -10 q-3 -2 -6 1 q0 0 -1 1 q0 1 -1 2 q-3 4 -4 7 q-1 2 -1 3 q0 0 4 0 q30 -2 74 10 q3 2 5 -1 q2 -1 8 -7 q2 -2 0 -5 q-2 -3 -7 -9 q-12 -17 -18 -23 q0 0 1 -1 q0 -1 0 -2 ZM194 143 q-63 -1 -127 -12 q-7 -24 -19 -39 q-4 -4 -7 0 q-3 2 -6 8 q-3 4 2 8 q14 14 15 37 q0 5 4 3 q2 -1 5 -3 q4 -3 5 -4 q46 7 84 9 q16 27 22 41 q0 1 0 3 q2 7 1 13 q0 2 1 3 q1 0 2 -1 q2 -1 6 -4 q9 -7 13 -11 q3 -2 1 -5 q-14 -16 -37 -38 l31 3 q9 0 18 5 q4 2 6 -1 q6 -7 16 -19 q4 -7 -2 -9 q-10 0 -36 -4 q-3 0 -3 1 q0 1 2 3 q1 1 3 4 q2 3 3 4 q2 5 -3 5 ZM109 203 q-1 2 0 3 q1 1 3 0 q11 -5 21 -14 q5 -3 4 -10 q0 -10 -5 -19 q-5 -5 -7 1 q-3 17 -16 39 ZM69 186 q-1 2 -1 3 q1 1 3 0 q12 -3 23 -9 q6 -2 5 -8 q0 -12 -3 -18 q-3 -5 -6 -1 q-7 18 -21 33 Z" /><glyph glyph-name="" unicode="&#x5bb6;" d="M174 130 q-5 -1 -18 -2 q-18 -2 -28 -4 q2 -1 5 -5 q1 -1 2 -2 q5 -3 0 -6 q-3 -3 -8 -6 q15 -7 18 -24 q0 -4 1 -8 q24 16 34 40 q1 4 5 2 q7 -3 13 -8 q3 -3 0 -6 q-17 -14 -45 -33 q23 -19 53 -34 q19 -8 43 -12 q5 0 6 -1 q0 -2 -5 -4 q-4 -1 -17 -4 q-13 -3 -17 -4 q-5 -1 -9 2 q-26 21 -60 51 q1 -30 -4 -64 q-5 -16 -18 -27 q-5 -4 -6 0 q-2 7 -13 23 q-1 2 0 3 q1 0 3 -1 q2 0 5 -2 q4 -2 6 -2 q3 -1 5 2 q13 32 7 82 q-3 17 -14 24 q-1 -1 -4 -2 q-3 -2 -5 -3 q0 0 2 -2 q3 -3 7 -11 q2 -2 -1 -5 q-23 -25 -61 -27 q-4 0 -4 1 q0 2 4 3 q30 10 50 30 q2 2 2 8 q0 2 0 3 q-23 -12 -50 -16 q-4 0 -4 1 q0 1 3 3 q35 13 62 32 q5 4 3 9 q-5 -1 -15 -2 q-11 -2 -16 -3 q-5 -1 -8 2 q0 1 -1 2 q-2 3 -3 5 q-1 2 0 3 q0 0 2 0 q43 1 86 11 q3 2 6 -2 q0 0 1 -2 q1 -2 2 -4 q0 0 0 -1 q4 -3 -2 -3 ZM140 195 q-2 -14 -8 -27 q1 0 3 0 q16 1 34 4 q16 2 28 5 q5 2 6 -1 q11 -14 15 -21 q2 -4 2 -5 q-1 -1 -4 -2 q-5 -2 -26 -5 q-1 0 -2 0 q-3 0 -3 1 q0 0 1 3 q2 2 5 8 q1 2 1 3 q2 3 1 5 q-1 1 -5 1 q-71 -5 -118 -11 q-8 -32 -29 -51 q-2 -3 -5 0 q-4 6 -5 11 q-2 6 2 9 q25 23 22 49 q0 2 1 3 q2 0 4 -1 q4 -4 9 -7 q1 0 1 -1 q1 -1 1 -2 q4 0 12 1 q25 1 41 3 q-3 24 -10 37 q-2 3 -1 4 q0 2 4 1 q2 -1 6 -2 q9 -3 12 -4 q7 -2 5 -8 ZM131 53 q-38 -42 -109 -56 q-4 -1 -4 1 q0 2 3 3 q56 19 85 47 q11 11 13 19 q0 2 1 2 q1 0 3 -1 q6 -7 8 -11 q2 -2 0 -4 Z" /><glyph glyph-name="" unicode="&#x5c06;" d="M72 198 q8 -2 19 -9 q3 -2 3 -7 q-6 -138 -9 -182 q-3 -16 -9 -18 q-4 0 -12 12 q-4 7 -1 14 q7 16 11 77 q-22 -23 -45 -45 q-2 -1 -5 0 q-11 11 -16 18 q-2 2 1 2 q16 0 66 33 q1 24 1 70 q-2 24 -7 32 q-1 2 -1 3 q1 1 4 0 ZM100 77 q-2 2 -2 3 q0 1 3 1 q32 0 75 5 q-3 18 -6 25 q-2 2 -1 3 q0 1 3 1 q8 -2 19 -5 q5 -1 3 -7 q-1 -2 -1 -7 q-1 -5 -1 -8 q12 2 19 3 q15 2 22 7 q4 2 6 0 q7 -7 9 -11 q1 -3 1 -4 q-1 -1 -4 -1 q-10 0 -44 -3 q-6 -1 -9 -1 q0 -5 0 -11 q3 -89 -9 -101 q-1 -4 -5 0 q-11 15 -28 31 q-1 1 -1 3 q0 1 2 0 q3 0 8 -1 q6 0 8 -1 q7 0 7 6 q4 28 3 62 l0 10 q-56 -6 -63 -9 q-3 0 -7 2 q-6 6 -7 8 ZM149 207 q0 2 1 2 q0 1 3 0 q2 -1 7 -4 q4 -3 6 -5 q6 -4 1 -10 q-1 -1 -2 -3 q-3 -6 -9 -12 q16 0 28 3 q8 2 11 5 q2 2 6 0 q1 -1 6 -4 q5 -4 6 -5 q2 -3 -1 -5 q-7 -6 -13 -16 q-32 -47 -84 -61 q-4 -1 -5 0 q0 1 4 3 q24 15 43 32 q0 0 -1 0 q-10 15 -17 22 q-2 2 -1 2 q0 1 3 1 q2 -1 10 -2 q-2 0 4 -1 q4 -1 5 -6 q0 -4 1 -9 q0 -2 0 -3 q13 13 26 34 q1 2 1 4 q-1 1 -3 0 q-5 0 -19 -3 q-3 -1 -4 -1 q-7 -2 -10 4 q-16 -20 -38 -32 q-6 -4 -7 -3 q-1 1 4 6 q14 14 30 38 q9 15 8 29 ZM143 26 q-11 26 -19 34 q-4 3 1 2 q8 0 21 -5 q6 -1 6 -8 q0 -17 -1 -22 q-2 -5 -4 -5 q-2 0 -4 4 ZM23 142 q-1 2 1 2 q17 -3 32 -9 q3 -1 4 -6 q2 -8 -3 -17 q-2 -3 -5 0 q-14 18 -29 30 Z" /><glyph glyph-name="" unicode="&#x5c31;" d="M207 118 q-4 -1 -18 -4 q-12 -2 -19 -3 q-6 -97 -65 -126 q-4 -2 -5 0 q-1 1 2 4 q48 40 52 119 q-3 -1 -10 -2 q-7 -2 -11 -3 q-7 -4 -13 9 q-1 1 -1 2 q1 1 3 1 q5 0 28 3 q-3 0 5 1 q1 18 1 37 q2 27 -6 44 q0 5 2 4 q1 0 2 -1 q16 -6 20 -10 q0 0 1 0 q2 -1 1 -3 q-2 -20 -4 -48 l-1 -20 q5 1 14 3 q11 3 15 4 q4 2 10 -6 q2 -3 1 -4 q0 -1 -4 -1 ZM57 74 q-1 -3 -3 -1 q-5 3 -8 8 q-1 1 -1 3 q0 9 -2 27 q-1 7 -1 10 q-1 8 -3 12 q-1 3 2 2 q7 -1 10 -3 q16 2 31 3 q12 1 21 7 q1 1 2 0 q9 -9 11 -13 q0 0 0 -2 q-6 -11 -10 -26 q4 -3 7 -7 q2 -3 -2 -5 q-29 0 -53 -3 q0 -6 -1 -12 ZM174 102 q1 3 4 2 q1 -1 3 -2 q10 -6 13 -8 q3 -2 1 -6 q-8 -14 -9 -63 q-3 -23 16 -22 q28 -4 45 36 q3 3 2 -1 q0 -1 0 -4 q-2 -26 -5 -37 q0 0 0 -1 q-1 -2 -3 -2 q-22 -7 -47 -3 q-26 1 -23 28 q4 40 4 53 q1 17 -1 30 ZM56 201 q12 -3 23 -7 q3 -1 3 -4 q2 -13 0 -27 q2 0 7 1 q5 0 7 1 q17 3 27 6 q2 2 4 0 q5 -5 9 -9 q1 -2 1 -4 q-1 -1 -3 -1 q-41 -1 -112 -12 q-3 0 -3 1 q-2 2 -5 7 q-2 2 -3 4 q0 1 2 1 q7 0 22 1 q15 0 36 3 q-6 20 -17 36 q-1 2 0 3 q0 1 2 0 ZM86 73 q-4 -32 -1 -76 q-2 -11 -10 -19 q-3 -2 -3 1 q-9 15 -18 24 q-1 2 2 3 q4 -3 11 -4 q2 0 3 3 q2 32 0 65 q1 6 -2 12 q0 3 2 2 q8 -2 15 -7 q1 -1 1 -4 ZM95 126 q-3 0 -8 -1 q-21 -1 -32 -3 q2 -12 2 -25 q8 0 27 2 q6 1 8 1 q0 0 1 0 q1 6 3 18 q1 4 1 6 q0 2 -2 2 ZM47 56 q6 -14 0 -21 q-8 -14 -20 -23 q-6 -6 -10 5 q-4 6 5 12 q10 6 22 27 q2 2 2 2 q1 0 1 -2 ZM114 30 q-4 18 -19 34 q-1 1 0 2 q1 2 2 1 q3 -1 9 -4 q11 -4 18 -9 q3 -2 3 -8 q-1 -9 -7 -16 q-5 -2 -6 0 ZM197 153 q-2 1 -1 2 q1 2 3 1 q14 -5 31 -13 q4 -3 3 -6 q-2 -3 -6 -9 q-1 -2 -2 -3 q-2 -3 -3 -3 q-1 0 -2 4 q-8 15 -23 27 Z" /><glyph glyph-name="" unicode="&#x5c55;" d="M198 113 q-7 0 -34 -2 q2 0 -5 0 q-2 -7 -3 -23 q-1 -3 -1 -4 q15 2 31 3 q13 2 22 3 q4 2 7 -1 q3 -6 6 -9 q1 -3 0 -3 q0 -1 -3 -1 q-42 1 -90 -3 q13 -17 28 -31 q24 17 26 28 q0 3 1 4 q2 0 4 -2 q7 -6 11 -12 q3 -3 -1 -5 q-11 -7 -35 -19 q16 -14 32 -22 q25 -12 55 -17 q3 -1 4 -2 q0 -2 -3 -3 q-3 -1 -10 -3 q-17 -4 -25 -6 q-8 -2 -14 2 q-45 32 -83 87 q-12 -1 -22 -3 q5 -1 8 -3 q0 0 1 -1 q2 -1 2 -5 q0 -15 0 -52 q24 14 33 19 q3 2 5 0 q1 -2 -2 -5 q-31 -22 -52 -40 q-4 -3 -10 -9 q-1 -2 -2 -2 q-1 -1 -2 1 q-5 5 -8 13 q-2 4 1 5 q9 3 23 11 q0 38 -1 58 q-1 5 -3 9 q-2 -1 -5 -1 q-5 -2 -8 1 q-2 2 -5 8 q-1 1 -1 2 q1 1 3 1 q14 0 38 2 q0 14 0 25 q-3 0 -7 -1 q-4 0 -5 0 q-3 0 -4 1 q-2 2 -3 5 q-1 2 -1 2 q-2 3 1 2 q10 0 18 1 q0 2 0 3 q-1 9 -4 17 q-1 3 0 3 q0 1 3 0 q1 0 2 0 q7 -2 10 -4 q2 0 2 -6 q0 -4 0 -12 q4 1 11 1 q8 1 11 1 q1 5 1 8 q0 10 -3 18 q-1 2 0 3 q0 0 3 0 q3 -1 13 -6 q0 0 1 -1 q1 -2 1 -6 q0 -2 0 -6 q-1 -5 -1 -8 q4 1 10 2 q13 2 16 3 q6 1 8 -2 q3 -4 5 -9 q2 -2 -1 -2 ZM183 149 q-43 1 -89 -5 q-17 -85 -86 -130 q-6 -3 -8 -2 q-1 3 5 7 q70 56 78 157 q-1 -1 -3 -1 q-3 -1 -5 1 q0 -1 -1 0 q-2 2 -5 8 q-2 3 1 2 q4 0 9 0 q37 4 73 6 q1 0 2 0 q11 2 14 4 q4 3 7 0 q8 -6 13 -11 q4 -3 1 -7 q-6 -6 -11 -18 q3 -3 6 -8 q1 -3 -1 -3 ZM168 180 q0 4 -4 4 q-7 0 -40 -3 q-17 -2 -25 -3 q-1 -13 -3 -24 q28 0 57 5 q9 0 15 2 q0 7 0 19 ZM122 81 q3 1 10 1 q7 1 10 1 q2 14 3 27 q-4 0 -11 -1 q-7 0 -11 -1 q0 -5 -1 -14 q0 -9 0 -13 Z" /><glyph glyph-name="" unicode="&#x5df1;" d="M77 113 q3 0 4 -3 q14 2 54 7 q1 1 1 1 q4 18 7 40 q2 7 -6 6 q-24 -1 -58 -9 q-5 -2 -8 2 q-6 5 -10 9 q-1 2 -1 4 q1 2 3 1 q42 -5 89 8 q6 3 8 0 q1 0 7 -6 q3 -3 0 -10 q-6 -10 -13 -40 q2 0 4 -2 q4 -5 6 -9 q2 -4 -3 -4 q-48 -4 -80 -8 q-1 -28 0 -54 q-1 -34 32 -36 q23 -3 66 1 q27 3 35 17 q8 10 15 32 q1 3 2 3 q2 0 2 -3 q-1 -31 -5 -50 q1 -16 -16 -15 q-82 -4 -119 4 q-25 7 -27 34 q-2 17 -2 41 q1 31 -5 40 q-1 3 0 4 q0 1 3 0 q11 -2 15 -5 Z" /><glyph glyph-name="" unicode="&#x5e0c;" d="M25 124 q16 -1 78 3 q-3 0 5 0 q0 1 1 3 q6 15 5 23 q1 4 4 1 q7 -5 13 -11 q0 0 0 -1 q1 -2 0 -3 q-2 -5 -5 -11 q8 1 23 2 q19 2 27 3 q24 3 46 9 q3 2 5 -1 q6 -6 11 -12 q1 -5 -2 -5 q-25 1 -115 -5 q-13 -23 -29 -39 q1 0 3 -1 q1 0 2 -1 q5 1 16 2 q9 2 13 2 q0 23 -4 30 q0 3 2 2 q9 -3 17 -7 q1 -1 1 -2 q-1 -6 -1 -21 q4 0 7 1 q1 0 4 1 q12 2 17 5 q3 2 5 0 q4 -2 12 -10 q1 -2 1 -4 q-4 -11 -2 -44 q1 -15 -8 -25 q-4 -2 -6 1 q-5 10 -17 17 q-2 2 0 3 q15 -2 14 7 q2 18 0 39 q0 0 -1 1 q0 1 -1 0 q-11 0 -25 -2 q0 -63 1 -89 q1 -9 -8 -20 q-3 -3 -5 0 q-3 9 -3 19 q2 44 0 89 q-6 -1 -18 -3 q-6 -1 -8 -1 q0 -21 0 -47 q-1 -10 -5 -14 q-2 -2 -4 0 q0 -1 -1 0 q-5 6 -7 15 q0 2 0 4 q1 15 1 32 q0 8 -1 12 q-32 -30 -72 -42 q-2 -1 -3 0 q0 2 2 3 q61 34 93 85 q-35 -3 -67 -7 q-3 -1 -4 1 q-6 6 -9 11 q0 3 2 2 ZM75 191 q18 -4 50 -13 q2 1 5 5 q1 1 2 2 q10 11 1 28 q-1 3 2 2 q15 -10 23 -22 q2 -1 0 -3 q-8 -9 -17 -17 q16 -4 28 -9 q1 -1 3 -3 q1 -1 1 -1 q1 -5 1 -18 q-1 -7 -6 -5 q-9 16 -37 29 q-34 -24 -74 -24 q-2 0 -2 1 q0 1 1 2 q35 7 61 27 q-19 8 -45 15 q-3 1 -2 2 q1 2 5 2 Z" /><glyph glyph-name="" unicode="&#x5e74;" d="M196 77 q20 3 32 7 q6 4 10 -1 q7 -8 10 -12 q2 -3 2 -4 q-1 -1 -5 -2 q-12 0 -31 0 q-13 1 -67 -3 q3 1 -5 0 q-1 -21 -1 -61 q1 -22 -4 -35 q-2 -4 -4 -4 q-2 0 -4 3 q-6 7 -9 16 q-2 4 1 7 q3 9 3 16 q1 16 3 57 q-72 -6 -101 -12 q-5 -1 -8 2 q-6 6 -8 11 q-1 2 0 2 q0 1 3 1 q24 0 70 3 q0 26 -3 37 q-1 2 0 3 q1 1 3 0 q6 -2 12 -6 q3 -1 2 -8 q-1 -10 -1 -25 l31 2 q0 26 0 47 q-32 -4 -45 -6 q-7 -3 -12 9 q-1 2 2 3 q10 0 35 2 q13 1 20 1 q-1 31 -6 38 q-9 -1 -18 -3 q-6 -3 -11 8 q-24 -32 -70 -49 q-6 -2 -6 -1 q-1 2 4 5 q44 25 61 60 q6 13 1 23 q-4 4 -3 6 q1 1 5 -2 q8 -4 16 -12 q6 -6 2 -14 q-1 -2 -3 -6 q-3 -4 -4 -6 q53 1 103 11 q2 1 4 0 q-1 1 1 -1 q1 -2 4 -5 q2 -3 2 -4 q1 -2 0 -2 q0 -1 -2 -1 q-22 0 -76 -6 q2 -1 6 -3 q3 -2 5 -3 q3 -3 3 -5 q0 -4 -2 -26 q40 5 54 8 q3 0 3 -3 q1 -12 -7 -12 q-16 0 -50 -2 q0 -6 0 -19 q-1 -19 -1 -29 q35 4 54 5 Z" /><glyph glyph-name="" unicode="&#x5e76;" d="M16 87 q18 0 66 4 l15 1 l0 4 q0 28 -3 39 q-8 -1 -20 -3 q-2 -1 -3 -1 q-3 0 -5 2 q-6 3 -9 9 q-2 2 2 2 q37 1 83 8 l0 1 q5 9 11 33 q3 12 -2 21 q-1 4 -1 4 q0 1 3 1 q12 -4 22 -10 q6 -2 2 -8 q-13 -23 -28 -41 q30 3 38 6 q3 0 4 -1 q2 -2 5 -7 q1 -2 2 -3 q1 -3 -2 -3 q-4 0 -18 -1 q-17 -2 -26 -2 q3 -1 7 -3 q5 -3 7 -4 q2 -2 1 -5 q-2 -13 -2 -30 q41 4 64 10 q4 0 6 -1 q7 -8 10 -15 q3 -5 -1 -5 q-35 5 -79 0 q-1 -35 0 -84 q0 -24 -3 -32 q-4 -7 -8 -2 q-4 4 -10 13 q-1 1 -1 2 q-1 4 0 8 q4 7 4 14 q3 39 3 80 q0 0 -2 0 q-6 0 -18 -2 q-12 -1 -18 -2 q1 -85 -75 -111 q-4 -1 -2 2 q63 41 62 107 l-24 -4 q-24 -2 -41 -8 q-3 -1 -6 2 q-6 6 -11 12 q-1 1 -1 2 q0 1 2 1 ZM115 124 q-1 -8 -3 -30 l38 4 q0 31 -5 42 q0 1 -1 1 q-29 -4 -45 -5 q2 -1 6 -3 q6 -3 8 -5 q2 -1 2 -4 ZM81 198 q2 -1 7 -4 q16 -8 22 -13 q4 -1 2 -4 q-2 -11 -5 -20 q-1 -3 -3 -3 q-3 0 -4 3 q-12 26 -22 37 q-2 2 -1 4 q1 1 4 0 Z" /><glyph glyph-name="" unicode="&#x5f00;" d="M62 165 q0 1 -2 3 q-3 5 -4 7 q-1 2 -1 3 q1 1 3 1 q25 -2 97 5 q13 2 21 7 q5 3 9 -1 q6 -6 12 -12 q2 -4 -3 -5 q-22 0 -44 -1 q7 -1 13 -6 q3 0 2 -4 q-2 -14 -2 -32 q0 -9 0 -19 q0 1 2 1 q50 3 62 7 q6 2 9 -1 q4 -6 8 -12 q2 -5 -3 -5 q-19 3 -57 1 q-3 0 -10 0 q-7 -1 -11 -1 q-1 -50 0 -95 q0 -23 -3 -31 q-3 -7 -8 -2 q-5 5 -11 14 q-1 4 0 7 q4 7 4 14 q3 32 3 92 q-21 -1 -41 -3 q0 -86 -80 -117 q-4 -1 -5 0 q-2 2 1 4 q69 42 68 112 q-45 -3 -63 -8 q-5 0 -7 3 q-1 2 -3 6 q-3 5 -4 6 q-1 3 3 3 q34 -2 75 1 q0 6 0 12 q0 38 -6 46 q-7 -2 -15 -2 q-6 -2 -9 2 ZM148 130 q0 33 -5 42 q-26 -2 -49 -5 q1 -1 4 -2 q6 -3 8 -4 q4 -1 4 -6 q-3 -14 -3 -47 q7 1 20 1 q14 1 21 1 q0 11 0 20 Z" /><glyph glyph-name="" unicode="&#x5f3a;" d="M131 35 q-1 -3 -6 -1 q-6 2 -6 8 q0 9 -1 26 q-1 6 -1 9 q0 1 -1 4 q-2 12 -5 17 q-1 3 2 2 q1 0 2 -1 q3 0 9 -3 q4 0 14 2 q12 1 19 2 l0 2 q-1 22 -5 35 l-11 -2 l0 -7 q0 -5 -6 -2 q-1 1 -4 2 q-2 2 -3 3 q-2 2 -2 7 q0 18 -1 25 q-2 15 -8 26 q-1 3 2 2 q2 -1 4 -1 q5 -1 10 -4 q39 2 50 6 q8 3 12 7 q2 3 6 1 q1 -1 4 -3 q7 -5 9 -7 q4 -2 1 -5 q-5 -6 -8 -18 q-1 -3 -3 -9 q-1 -5 -2 -8 q3 -1 5 -4 q2 -2 1 -4 q0 -1 -3 -1 q-24 0 -46 -3 q7 -3 14 -7 q1 0 1 -3 q0 -3 0 -10 q-1 -10 -1 -15 q7 1 18 3 q3 1 5 1 q6 2 11 5 q1 2 3 0 q6 -2 11 -8 q2 -1 1 -3 q-3 -7 -9 -29 q-1 -6 -2 -8 q3 -3 5 -6 q1 -2 0 -2 q0 -1 -2 -1 q-11 -1 -43 -5 q0 -21 0 -36 q9 3 27 6 q3 1 5 1 q-1 3 -4 8 q-3 6 -5 8 q-1 2 -1 3 q1 1 3 0 q16 -10 32 -28 q9 -7 -9 -22 q-2 -2 -4 -1 q-1 0 -1 2 q0 1 -1 5 q-1 5 -7 17 q-61 -16 -90 -25 q-4 -2 -6 0 q-2 2 -6 6 q-3 4 -4 5 q-2 3 -2 4 q0 1 3 2 q19 1 56 7 q1 10 1 36 q-14 -3 -26 -4 q0 -2 -1 -6 q0 -2 0 -3 ZM82 191 q3 4 8 2 q1 0 9 -4 q6 -3 2 -8 q-6 -17 -6 -40 q3 -2 5 -5 q3 -2 -2 -2 q-2 0 -5 -1 q-23 -4 -37 -8 q-1 -17 -6 -37 q11 2 23 5 q9 2 11 6 q3 3 7 1 q3 -1 6 -4 q2 -1 3 -2 q4 -4 0 -9 q-3 -4 -4 -13 q0 -2 -1 -5 q-6 -44 -10 -57 q-6 -24 -24 -39 q-3 -2 -5 -2 q-1 0 -1 4 q-1 18 -12 28 q-1 2 0 3 q1 2 3 1 q19 -11 21 -1 q11 26 14 75 q0 6 -4 4 q-15 -4 -30 -7 q-3 -12 -6 -21 q-1 -4 -3 -4 q-1 0 -3 3 q-3 4 -5 9 q-3 5 0 9 q13 24 11 66 q0 3 3 2 q1 -1 5 -4 q-2 2 2 -1 q17 2 29 6 q2 11 2 27 q0 6 -4 5 q-14 -2 -24 -9 q-6 -3 -9 0 q-3 2 -8 9 q-1 1 -1 2 q1 1 3 1 q28 0 43 15 ZM137 176 q1 -7 2 -24 q0 5 1 -8 q5 1 15 2 q18 3 25 4 q1 0 4 1 q3 0 4 1 q2 17 3 24 q0 7 -7 5 q-13 0 -47 -5 ZM201 97 q-2 -1 -12 -2 q-11 -1 -17 -2 l0 -1 q0 -6 -1 -17 q0 -10 0 -15 q16 2 28 5 q1 8 3 23 q1 4 1 6 q1 3 -2 3 ZM157 91 q-8 -2 -23 -3 q-3 -1 -5 -1 q2 -16 3 -34 q2 0 8 1 q12 2 18 3 l-1 34 Z" /><glyph glyph-name="" unicode="&#x5f7c;" d="M114 138 q-1 2 0 3 q1 0 3 -1 q4 -1 10 -6 q5 1 14 2 q11 2 16 3 q-1 46 -7 58 q-1 2 0 3 q1 2 3 1 q3 -1 12 -5 q7 -2 9 -3 q3 -1 2 -5 q-2 -5 -4 -47 q2 0 4 1 q3 1 7 1 q19 4 24 6 q5 3 9 0 q1 -2 4 -6 q6 -9 8 -12 q4 -7 -3 -7 q-10 -2 -26 -7 q-3 -1 -4 0 q-1 0 0 2 q1 2 2 6 q2 4 3 6 q1 2 0 3 q-1 2 -3 1 q-9 -1 -25 -3 q-1 -16 -1 -36 q8 1 12 4 q2 0 5 -1 q5 -5 10 -10 q2 -2 0 -5 q0 -1 -1 -3 q-4 -11 -7 -16 q-6 -15 -12 -27 q12 -13 25 -23 q15 -10 28 -13 q13 -4 21 -7 q3 -1 3 -3 q0 -2 -3 -2 q-13 -3 -36 -5 q-6 0 -9 3 q-14 12 -35 39 q-20 -29 -55 -43 q-4 -2 -5 -1 q-1 2 2 4 q31 23 49 51 q-1 2 -3 5 q-4 5 -11 14 q-6 8 -12 9 q-2 1 -2 2 q0 1 3 2 q14 3 17 -3 q1 -2 3 -5 q4 -5 11 -14 q8 17 11 33 q1 6 -5 5 q-11 1 -26 -5 q-2 0 -5 1 q-2 1 -7 6 q-2 2 -1 2 q0 1 2 1 q3 0 9 1 q6 0 9 1 q1 18 1 36 l-25 -3 l0 -1 q0 -57 -9 -82 q-11 -31 -35 -50 q-3 -2 -4 -1 q0 0 2 4 q15 21 23 52 q7 22 7 50 q1 22 -2 40 ZM87 141 q5 -15 6 -23 q0 -5 -3 -8 q-6 -6 -12 -12 q0 -64 -1 -92 q-2 -34 -10 -34 q-3 0 -6 8 q-3 8 -4 13 q-2 6 1 9 q4 13 5 25 q0 5 1 16 q2 28 2 43 q-25 -24 -57 -39 q-6 -2 -7 0 q0 2 6 6 q35 24 61 58 q12 18 14 30 q0 2 1 2 q2 0 3 -2 ZM83 199 q2 -2 4 -5 q7 -7 9 -11 q2 -3 0 -5 q-22 -40 -58 -57 q-6 -3 -2 2 q31 26 40 59 q2 8 2 16 q0 3 1 3 q2 0 4 -2 Z" /><glyph glyph-name="" unicode="&#x5f97;" d="M183 86 q0 -4 0 -9 q6 2 14 3 q19 3 32 9 q4 3 7 0 q2 -1 6 -5 q5 -4 7 -6 q2 -2 2 -4 q-1 -2 -4 -2 q-11 1 -39 -1 q21 2 -3 0 q-3 0 -11 -1 q-7 -1 -11 -2 q0 -33 2 -64 q4 -25 -11 -36 q-3 -3 -5 1 q-9 16 -16 22 q-2 2 -2 4 q0 1 3 0 q16 -5 14 11 q2 39 -1 60 q-52 -7 -66 -11 q-3 -1 -5 1 q0 1 -2 4 q-2 2 -3 3 q-1 2 -1 3 q1 1 3 1 q27 2 74 8 q-2 18 -5 25 q-22 -3 -44 -8 q-4 -1 -7 2 q-2 1 -4 5 q2 -3 -1 1 q-1 3 2 3 q59 6 104 15 q3 2 4 -1 q2 -1 4 -4 q-1 3 1 -2 q2 -3 1 -4 q-1 -2 -4 -2 q-10 0 -44 -4 q3 1 -4 0 q7 -4 10 -7 q3 -3 3 -8 ZM119 193 q6 -1 12 -3 q20 2 42 6 q12 2 15 5 q4 3 8 0 q10 -5 6 -8 q-2 -3 -4 -10 q0 -1 0 -2 q-2 -15 -5 -38 q1 -1 3 -3 q1 -1 2 -2 q1 -2 1 -3 q-1 -1 -4 -1 q-15 -1 -51 -6 q3 0 -6 -1 q-1 -16 -4 -15 q-3 0 -10 8 q-2 3 -1 7 q3 11 1 41 q-2 16 -7 22 q-1 3 2 3 ZM84 142 q2 6 6 3 q1 -1 5 -4 q4 -3 6 -5 q3 -4 0 -8 q-10 -14 -20 -26 q2 -12 2 -18 q-1 -17 -3 -80 q0 -10 0 -15 q-1 -14 -9 -17 q-4 0 -10 13 q-2 5 1 14 q3 10 5 39 q2 31 1 50 q-25 -27 -64 -43 q-3 1 -1 4 q72 55 81 93 ZM169 169 q4 1 4 -1 q1 -8 -3 -7 q-13 -4 -33 -7 q0 -9 1 -19 q9 2 26 4 q11 2 16 3 q2 18 2 41 q0 5 -3 5 q-26 -3 -43 -7 q0 -2 0 -6 q1 -8 1 -13 q17 3 32 7 ZM77 200 q9 -3 19 -10 q3 -3 1 -7 q-14 -24 -47 -42 q-4 -2 -4 -2 q-1 1 1 4 q17 21 24 35 q7 13 2 19 q-1 2 0 3 q1 1 4 0 ZM122 49 q-1 2 0 3 q1 0 3 -1 q10 -4 19 -12 q5 -4 -2 -21 q-2 -3 -3 -3 q-2 0 -4 3 q-8 15 -13 31 Z" /><glyph glyph-name="" unicode="&#x5fae;" d="M149 84 q5 0 9 -2 q2 0 4 -4 q-1 4 1 -1 q7 -15 16 -28 q4 10 4 23 q1 5 0 21 q0 3 0 4 q0 2 1 3 q1 0 2 -1 q7 -6 12 -10 q1 -1 1 -5 q-1 -30 -10 -49 q9 -12 23 -24 q19 -13 39 -16 q2 -1 2 -2 q1 -1 -1 -2 q-3 -1 -8 -2 q-14 -4 -20 -5 q-8 -2 -11 3 q-10 10 -30 36 q-15 -25 -55 -34 q-5 -1 -2 2 q36 18 49 45 q-12 18 -18 32 q-3 6 -10 11 q-3 3 -2 4 q0 2 4 1 ZM71 -5 q-1 -4 -3 -5 q-3 -1 -5 2 q-5 5 -6 7 q-3 6 -2 13 q4 16 4 70 q-19 -16 -51 -24 q-2 -1 -3 1 q0 1 2 2 q39 19 60 54 q5 10 6 16 q1 2 2 2 q0 1 2 -1 q1 -1 4 -4 q3 -4 5 -6 q2 -3 1 -6 q-6 -11 -14 -20 q0 -79 -2 -101 ZM156 159 q0 0 0 -1 q2 -2 1 -5 q-3 -26 -8 -44 q-1 -2 -2 -2 q-1 -1 -2 1 q0 0 -1 2 q-2 3 -3 3 q-1 4 -1 7 q0 1 1 4 q0 2 0 3 q-6 -1 -22 -3 q-15 -3 -22 -4 q-2 0 -5 2 q-3 3 -5 6 q-2 2 1 2 l4 0 q0 8 0 13 q0 2 -1 6 q0 2 -1 5 q-1 3 1 2 q2 0 9 -2 q1 -1 2 -1 q3 -1 2 -5 q0 -8 0 -17 q2 1 7 1 q4 1 6 1 q0 5 -1 22 q0 11 0 13 q-3 14 -7 20 q-1 2 0 3 q0 1 2 0 q12 -4 17 -5 q2 -1 2 -5 q-1 -28 -2 -46 q8 0 14 2 q2 21 0 29 q-1 2 0 3 q1 0 3 -1 q2 -1 6 -4 q3 -3 5 -5 ZM214 124 q3 0 4 -1 q4 -3 7 -8 q1 -3 -2 -3 q-21 1 -43 -4 q-4 -1 -5 1 q-2 2 -2 3 q-8 -14 -17 -26 q-2 -2 -3 -1 q-1 1 0 3 q17 37 19 81 q0 14 -2 23 q-1 2 0 3 q1 1 3 0 q14 -10 17 -14 q3 -2 2 -8 q-7 -32 -17 -56 q3 0 8 1 q10 1 17 2 q1 0 4 1 q7 2 10 3 ZM118 62 q-1 0 -4 -1 q-3 0 -5 -1 l0 -2 q-2 -40 -26 -52 q-1 -1 -3 -1 q-1 0 0 2 q13 16 15 43 q2 10 0 17 q-1 2 0 3 q0 1 2 0 q1 0 3 -2 q5 -3 7 -4 q7 4 16 7 q2 0 7 3 q2 1 2 1 q2 2 3 0 q3 -2 4 -5 q1 -1 1 -4 q0 0 0 -1 q-6 -11 -6 -37 q0 -4 4 -6 q0 0 3 0 q6 -1 8 -1 q3 -1 4 -4 q0 -3 -3 -3 q-3 -1 -22 -3 q-7 0 -6 4 q0 37 1 43 q0 4 -5 4 ZM88 165 q-18 -34 -59 -41 q-3 -1 -3 1 q-1 1 2 2 q32 16 42 40 q3 10 2 16 q-1 3 0 3 q1 1 3 -1 q10 -10 13 -14 q2 -3 0 -6 ZM143 103 q3 2 5 0 q3 -6 3 -7 q2 -3 -1 -3 q-27 -1 -51 -5 q-4 -2 -5 1 q-3 3 -5 6 q-2 3 2 2 q23 0 43 4 q5 0 9 2 Z" /><glyph glyph-name="" unicode="&#x5fd7;" d="M117 202 q-1 2 0 4 q1 1 3 0 q14 -6 22 -11 q4 -3 3 -7 q-4 -8 -4 -18 q0 -4 0 -12 q-1 -8 -1 -12 q11 1 31 3 q7 1 10 1 q8 2 13 3 q6 2 8 0 q2 -1 7 -7 q1 -1 2 -2 q3 -4 3 -5 q-1 -2 -5 -2 q-18 0 -70 -2 q0 -1 0 -4 q-2 -16 -2 -30 q3 0 10 1 q6 0 9 1 q2 0 6 1 q8 0 12 2 q4 2 7 -2 q1 -1 3 -3 q2 -3 3 -4 q2 -5 -3 -5 q-58 0 -103 -7 q-4 -1 -6 3 q-4 4 -6 8 q-1 3 2 3 q30 0 50 1 q0 7 1 19 q0 10 0 15 q-7 -1 -21 -2 q-41 -4 -48 -6 q-4 0 -5 2 q-4 5 -6 10 q-1 3 0 3 q0 1 2 1 q24 -1 78 2 q2 24 0 35 q-1 15 -5 23 ZM90 65 q6 -32 20 -50 q17 -24 57 -20 q6 0 3 7 q-7 27 -13 39 q-1 4 0 5 q1 1 4 -3 q9 -11 30 -34 q6 -8 10 -12 q7 -13 -3 -15 q-79 -9 -98 26 q-14 21 -16 56 q0 4 2 5 q3 0 4 -4 ZM35 -9 q-3 3 -7 12 q-3 7 2 13 q12 14 31 34 q2 2 3 1 q2 -1 1 -4 q-13 -38 -22 -54 q-5 -6 -8 -2 ZM190 69 q18 -5 32 -18 q5 -8 4 -14 q-1 -2 -2 -6 q-3 -11 -5 -13 q-4 -5 -7 1 q-9 31 -23 46 q-2 2 -2 3 q1 2 3 1 ZM119 77 q11 -4 22 -14 q4 -7 2 -12 q-4 -10 -7 -15 q-2 -2 -3 -2 q-2 0 -3 3 q-6 18 -15 37 q-2 2 -1 3 q1 1 5 0 Z" /><glyph glyph-name="" unicode="&#x603b;" d="M89 70 q-2 -3 -5 -1 q-3 3 -5 5 q-2 1 -2 4 q-4 41 -13 61 q-1 2 2 2 q7 -1 16 -6 q5 1 18 2 q29 3 42 5 q10 0 18 5 q2 1 4 1 q3 -1 8 -5 q6 -3 8 -5 q2 -1 1 -3 q-6 -9 -18 -38 q2 -2 5 -6 q2 -2 3 -3 q1 -2 1 -4 q-1 -1 -3 -1 q-29 0 -78 -6 q1 -3 -2 -7 ZM75 52 q28 -62 95 -49 q5 1 3 5 q-2 6 -7 17 q-1 3 -2 5 q-1 2 0 3 q1 0 3 -2 q8 -7 32 -26 q9 -7 12 -10 q4 -3 3 -5 q0 -2 -5 -3 q-71 -8 -99 6 q-29 13 -38 58 q-1 3 1 3 q1 0 2 -2 ZM152 132 q-36 -3 -66 -6 q1 -5 2 -19 q2 -13 2 -19 q1 0 4 0 q39 3 56 6 q2 8 4 30 q1 4 1 5 q0 3 -3 3 ZM146 211 q1 0 3 -2 q13 -6 16 -8 q6 -1 2 -7 q-11 -20 -32 -44 q-3 -3 -5 -3 q-2 1 0 5 q17 34 12 55 q-1 4 0 4 q1 1 4 0 ZM52 54 q7 -6 4 -13 q-10 -25 -19 -37 q-3 -6 -7 -3 q-9 7 -10 11 q-2 2 0 4 q-1 0 0 1 q25 22 28 36 q1 3 4 1 ZM195 61 q24 -6 37 -12 q3 -3 3 -7 q0 -12 -6 -20 q-3 -4 -6 0 q-13 23 -30 35 q-2 2 -2 4 q1 1 4 0 ZM75 193 q2 0 10 -1 q9 -1 13 -1 q4 -1 4 -7 q0 -1 0 -2 q2 -15 2 -27 q0 -5 -2 -6 q-2 -1 -4 3 q-10 19 -25 37 q-2 1 -1 3 q0 1 3 1 ZM112 61 q23 -5 31 -10 q6 -4 3 -10 q-1 -5 -7 -11 q-3 -4 -6 -1 q-5 11 -23 29 q-2 2 -1 3 q0 1 3 0 Z" /><glyph glyph-name="" unicode="&#x6052;" d="M137 40 q0 -3 -4 -1 q-5 3 -11 9 q-1 3 -1 5 q0 19 -2 36 q-1 26 -8 44 q-1 3 2 3 q12 -3 15 -5 q42 4 69 12 q2 2 5 0 q6 -4 15 -11 q1 0 1 -3 q0 -1 -1 -3 q-2 -9 -3 -14 q-2 -15 -7 -48 q-1 -6 -1 -9 q-4 -13 -10 -16 q-4 -4 -6 0 q0 6 -6 16 q-23 -2 -47 -5 q0 -6 0 -10 ZM51 201 q14 -7 21 -12 q5 -3 3 -6 q-2 -5 -2 -43 q-2 -88 -2 -151 q0 -6 -3 -15 q-3 -6 -9 -1 q-3 3 -7 11 q-1 6 -1 12 q5 20 6 68 q2 48 0 96 q-2 27 -9 38 q-1 2 0 3 q1 1 3 0 ZM195 129 q-35 -4 -64 -9 q2 -10 3 -24 q28 4 39 8 q3 1 5 -1 q3 -2 6 -5 q3 -3 -1 -4 q-29 -5 -48 -7 l2 -28 q31 4 40 7 q3 1 5 -1 q3 -3 5 -5 q3 0 4 2 q4 15 7 65 q0 2 0 2 q-1 1 -3 0 ZM81 10 q-1 3 1 3 q10 -1 35 0 q8 1 13 1 q82 7 107 12 q3 0 5 -1 q6 -5 11 -10 q3 -4 -2 -5 q-74 1 -159 -12 q-1 0 -3 1 q-2 2 -7 9 q-1 1 -1 2 ZM110 169 q-1 3 2 3 q41 2 88 12 q1 1 2 0 q1 0 1 0 q4 -6 7 -9 q3 -3 -1 -4 q-38 -3 -89 -12 q-1 0 -3 1 q-4 6 -7 9 ZM26 79 q-3 -4 -6 1 q-2 6 -2 12 q-1 6 2 7 q11 12 13 29 q0 4 1 5 q1 0 3 -2 q6 -6 7 -12 q-1 -13 -18 -40 ZM83 141 q15 -8 19 -14 q4 -6 -2 -22 q-1 -3 -3 -4 q-2 0 -3 3 q-7 11 -15 36 q0 2 1 2 q1 0 3 -1 Z" /></font>
</defs>
</svg>
